{
DisplayStrings = (
W.
);
copyright = "Copyright (c) 2013 STICK NO BILLS, Copyright (c) 2015 moonia";
customParameters = (
{
name = description;
value = "Stick No Bills - is the bespoke typeface of STICK NO BILLS\U2122 Poster Gallery in Galle, Sri Lanka. ";
},
{
name = license;
value = "This Font Software is licensed under the SIL Open Font License, Version 1.1. This license is available with a FAQ at: http://scripts.sil.org/OFL";
},
{
name = vendorID;
value = PfEd;
},
{
name = glyphOrder;
value = (
    ".notdef",
    uni0000,
    uni000D,
    space,
    exclam,
    quotedbl,
    numbersign,
    dollar,
    "Percent_sign",
    ampersand,
    quotesingle,
    parenleft,
    parenright,
    asterisk,
    plus,
    comma,
    hyphen,
    period,
    slash,
    zero,
    one,
    two,
    three,
    four,
    five,
    six,
    seven,
    eight,
    nine,
    colon,
    semicolon,
    less,
    equal,
    greater,
    question,
    at,
    A,
    B,
    C,
    D,
    E,
    F,
    G,
    H,
    I,
    J,
    K,
    L,
    M,
    N,
    O,
    P,
    Q,
    R,
    S,
    T,
    U,
    V,
    W,
    X,
    Y,
    Z,
    bracketleft,
    backslash,
    bracketright,
    asciicircum,
    underscore,
    grave,
    a,
    b,
    c,
    d,
    e,
    f,
    g,
    h,
    i,
    j,
    k,
    l,
    m,
    n,
    o,
    p,
    q,
    r,
    s,
    t,
    u,
    v,
    w,
    x,
    y,
    z,
    braceleft,
    bar,
    braceright,
    asciitilde,
    uni007F,
    exclamdown,
    cent,
    sterling,
    currency,
    yen,
    brokenbar,
    section,
    dieresis,
    copyright,
    ordfeminine,
    guillemotleft,
    logicalnot,
    uni00AD,
    registered,
    macron,
    degree,
    plusminus,
    uni00B2,
    uni00B3,
    acute,
    mu,
    paragraph,
    periodcentered,
    cedilla,
    uni00B9,
    ordmasculine,
    guillemotright,
    onequarter,
    onehalf,
    threequarters,
    questiondown,
    Agrave,
    Aacute,
    Acircumflex,
    Atilde,
    Adieresis,

glyphs = (
{
glyphname = .notdef;
layers = (
{
layerId = "2EFD55B3-2F90-4AA8-864A-7457E925C2F5";
name = Regular;
paths = (
{
closed = 1;
nodes = (
"34 0 LINE",
"34 682 LINE",
"306 682 LINE",
"306 0 LINE"
);
},
{
closed = 1;
nodes = (
"68 34 LINE",
"272 34 LINE",
"272 648 LINE",
"68 648 LINE"
);
}
);
width = 374;
}
);
},
{
glyphname = exclam;
layers = (
{
layerId = "2EFD55B3-2F90-4AA8-864A-7457E925C2F5";
name = Regular;
paths = (
{
closed = 1;
nodes = (
"100 166 LINE",
"100 700 LINE",
"229 700 LINE",
"229 166 LINE"
);
},
{
closed = 1;
nodes = (
"88 96 OFFCURVE",
"122 129 OFFCURVE",
"163 129 CURVE SMOOTH",
"204 129 OFFCURVE",
"238 96 OFFCURVE",
"238 53 CURVE SMOOTH",
"238 12 OFFCURVE",
"204 -22 OFFCURVE",
"163 -22 CURVE SMOOTH",
"122 -22 OFFCURVE",
"88 12 OFFCURVE",
"88 53 CURVE SMOOTH"
);
}
);
width = 329;
}
);
unicode = 0021;
},
{
glyphname = quotedbl;
layers = (
{
layerId = "2EFD55B3-2F90-4AA8-864A-7457E925C2F5";
name = Regular;
paths = (
{
closed = 1;
nodes = (
"357 465 LINE",
"230 465 LINE",
"230 736 LINE",
"357 736 LINE"
);
},
{
closed = 1;
nodes = (
"177 465 LINE",
"50 465 LINE",
"50 736 LINE",
"177 736 LINE"
);
}
);
width = 407;
}
);
unicode = 0022;
},
{
glyphname = numbersign;
layers = (
{
layerId = "2EFD55B3-2F90-4AA8-864A-7457E925C2F5";
name = Regular;
paths = (
{
closed = 1;
nodes = (
"507 404 LINE",
"402 404 LINE",
"383 296 LINE",
"489 296 LINE"
);
},
{
closed = 1;
nodes = (
"335 22 LINE",
"214 22 LINE",
"241 176 LINE",
"101 176 LINE",
"126 297 LINE",
"263 297 LINE",
"281 404 LINE",
"135 404 LINE",
"157 525 LINE",
"303 525 LINE",
"330 682 LINE",
"451 682 LINE",
"423 524 LINE",
"529 524 LINE",
"556 682 LINE",
"677 682 LINE",
"649 524 LINE",
"787 524 LINE",
"768 403 LINE",
"628 403 LINE",
"609 296 LINE",
"752 296 LINE",
"734 175 LINE",
"588 175 LINE",
"561 22 LINE",
"441 22 LINE",
"467 176 LINE",
"362 176 LINE"
);
}
);
width = 888;
}
);
unicode = 0023;
},
{
glyphname = dollar;
layers = (
{
layerId = "2EFD55B3-2F90-4AA8-864A-7457E925C2F5";
name = Regular;
paths = (
{
closed = 1;
nodes = (
"213 -47 LINE",
"142 -47 LINE",
"142 13 LINE",
"77 44 OFFCURVE",
"31 111 OFFCURVE",
"30 158 CURVE",
"157 203 LINE",
"158 170 OFFCURVE",
"181 142 OFFCURVE",
"200 134 CURVE",
"213 127 LINE"
);
},
{
closed = 1;
nodes = (
"339 682 LINE",
"395 653 OFFCURVE",
"436 588 OFFCURVE",
"443 553 CURVE",
"313 510 LINE",
"310 538 OFFCURVE",
"291 559 OFFCURVE",
"278 564 CURVE SMOOTH",
"268 568 LINE",
"268 750 LINE",
"339 750 LINE"
);
},
{
closed = 1;
nodes = (
"213 750 LINE",
"213 568 LINE",
"192 561 OFFCURVE",
"172 537 OFFCURVE",
"172 513 CURVE SMOOTH",
"172 491 OFFCURVE",
"186 471 OFFCURVE",
"213 454 CURVE",
"213 302 LINE",
"191 310 OFFCURVE",
"174 317 OFFCURVE",
"161 323 CURVE SMOOTH",
"81 362 OFFCURVE",
"38 411 OFFCURVE",
"38 508 CURVE SMOOTH",
"38 585 OFFCURVE",
"73 642 OFFCURVE",
"142 679 CURVE",
"142 750 LINE"
);
},
{
closed = 1;
nodes = (
"268 428 LINE",
"329 404 OFFCURVE",
"365 383 OFFCURVE",
"390 364 CURVE",
"414 344 OFFCURVE",
"447 315 OFFCURVE",
"461 275 CURVE SMOOTH",
"468 255 OFFCURVE",
"471 233 OFFCURVE",
"471 209 CURVE SMOOTH",
"471 124 OFFCURVE",
"415 45 OFFCURVE",
"339 12 CURVE",
"339 -47 LINE",
"268 -47 LINE",
"268 -3 LINE",
"268 127 LINE",
"299 131 OFFCURVE",
"330 155 OFFCURVE",
"330 203 CURVE SMOOTH",
"330 234 OFFCURVE",
"309 260 OFFCURVE",
"268 280 CURVE"
);
}
);
width = 501;
}
);
unicode = 0024;
},
{
glyphname = Percent_sign;
layers = (
{
layerId = "2EFD55B3-2F90-4AA8-864A-7457E925C2F5";
name = Regular;
paths = (
{
closed = 1;
nodes = (
"398 62 OFFCURVE",
"387 87 OFFCURVE",
"387 117 CURVE SMOOTH",
"387 177 OFFCURVE",
"435 225 OFFCURVE",
"495 225 CURVE SMOOTH",
"555 225 OFFCURVE",
"603 177 OFFCURVE",
"603 117 CURVE SMOOTH",
"603 57 OFFCURVE",
"555 9 OFFCURVE",
"495 9 CURVE SMOOTH",
"465 9 OFFCURVE",
"440 20 OFFCURVE",
"419 41 CURVE SMOOTH"
);
},
{
closed = 1;
nodes = (
"37 520 OFFCURVE",
"26 545 OFFCURVE",
"26 575 CURVE SMOOTH",
"26 635 OFFCURVE",
"74 683 OFFCURVE",
"134 683 CURVE SMOOTH",
"194 683 OFFCURVE",
"242 635 OFFCURVE",
"242 575 CURVE SMOOTH",
"242 515 OFFCURVE",
"194 467 OFFCURVE",
"134 467 CURVE SMOOTH",
"104 467 OFFCURVE",
"79 478 OFFCURVE",
"58 499 CURVE SMOOTH"
);
},
{
closed = 1;
nodes = (
"160 -23 LINE",
"335 716 LINE",
"461 716 LINE",
"287 -23 LINE"
);
}
);
width = 629;
}
);
unicode = 0025;
},
{
glyphname = ampersand;
layers = (
{
layerId = "2EFD55B3-2F90-4AA8-864A-7457E925C2F5";
name = Regular;
paths = (
{
closed = 1;
nodes = (
"317 700 LINE",
"424 681 OFFCURVE",
"477 621 OFFCURVE",
"477 520 CURVE SMOOTH",
"477 449 OFFCURVE",
"423 385 OFFCURVE",
"363 361 CURVE",
"431 280 LINE",
"443 299 OFFCURVE",
"451 321 OFFCURVE",
"455 345 CURVE",
"594 345 LINE",
"585 284 OFFCURVE",
"561 229 OFFCURVE",
"520 180 CURVE",
"661 16 LINE",
"464 16 LINE",
"417 72 LINE",
"388 45 OFFCURVE",
"355 27 OFFCURVE",
"317 16 CURVE",
"317 168 LINE",
"321 171 OFFCURVE",
"326 175 OFFCURVE",
"332 180 CURVE",
"317 198 LINE",
"317 486 LINE",
"318 487 OFFCURVE",
"324 492 OFFCURVE",
"326 493 CURVE SMOOTH",
"328 494 OFFCURVE",
"333 499 OFFCURVE",
"335 502 CURVE SMOOTH",
"337 505 OFFCURVE",
"340 510 OFFCURVE",
"341 515 CURVE",
"342 519 OFFCURVE",
"344 526 OFFCURVE",
"344 533 CURVE SMOOTH",
"344 558 OFFCURVE",
"338 570 OFFCURVE",
"317 582 CURVE"
);
},
{
closed = 1;
nodes = (
"257 578 LINE",
"240 572 OFFCURVE",
"231 558 OFFCURVE",
"231 536 CURVE SMOOTH",
"231 520 OFFCURVE",
"237 506 OFFCURVE",
"242 502 CURVE",
"244 499 OFFCURVE",
"247 497 OFFCURVE",
"251 494 CURVE",
"254 491 OFFCURVE",
"256 490 OFFCURVE",
"257 489 CURVE",
"257 269 LINE",
"233 297 LINE",
"201 269 OFFCURVE",
"183 247 OFFCURVE",
"183 204 CURVE SMOOTH",
"183 160 OFFCURVE",
"210 135 OFFCURVE",
"257 135 CURVE",
"257 3 LINE",
"112 3 OFFCURVE",
"26 89 OFFCURVE",
"26 214 CURVE SMOOTH",
"26 302 OFFCURVE",
"76 368 OFFCURVE",
"151 404 CURVE",
"123 424 OFFCURVE",
"94 487 OFFCURVE",
"94 528 CURVE SMOOTH",
"94 620 OFFCURVE",
"152 681 OFFCURVE",
"257 702 CURVE"
);
}
);
width = 687;
}
);
unicode = 0026;
},
{
glyphname = quotesingle;
layers = (
{
layerId = "2EFD55B3-2F90-4AA8-864A-7457E925C2F5";
name = Regular;
paths = (
{
closed = 1;
nodes = (
"177 465 LINE",
"50 465 LINE",
"50 736 LINE",
"177 736 LINE"
);
}
);
width = 227;
}
);
unicode = 0027;
},
{
glyphname = parenleft;
layers = (
{
layerId = "2EFD55B3-2F90-4AA8-864A-7457E925C2F5";
name = Regular;
paths = (
{
closed = 1;
nodes = (
"212 648 LINE",
"172 624 OFFCURVE",
"154 590 OFFCURVE",
"153 521 CURVE SMOOTH",
"153 208 LINE",
"153 202 LINE SMOOTH",
"153 111 OFFCURVE",
"173 76 OFFCURVE",
"213 51 CURVE",
"213 -37 LINE",
"81 18 OFFCURVE",
"50 81 OFFCURVE",
"50 189 CURVE SMOOTH",
"50 510 LINE SMOOTH",
"50 642 OFFCURVE",
"100 691 OFFCURVE",
"212 735 CURVE"
);
}
);
width = 262;
}
);
unicode = 0028;
},
{
glyphname = parenright;
layers = (
{
layerId = "2EFD55B3-2F90-4AA8-864A-7457E925C2F5";
name = Regular;
paths = (
{
closed = 1;
nodes = (
"101 746 LINE",
"220 702 OFFCURVE",
"280 641 OFFCURVE",
"280 510 CURVE SMOOTH",
"280 189 LINE SMOOTH",
"280 84 OFFCURVE",
"234 5 OFFCURVE",
"101 -47 CURVE",
"101 51 LINE",
"141 76 OFFCURVE",
"161 111 OFFCURVE",
"161 202 CURVE SMOOTH",
"161 208 LINE",
"161 521 LINE",
"160 583 OFFCURVE",
"140 626 OFFCURVE",
"100 649 CURVE"
);
}
);
width = 330;
}
);
unicode = 0029;
},
{
glyphname = asterisk;
layers = (
{
layerId = "2EFD55B3-2F90-4AA8-864A-7457E925C2F5";
name = Regular;
paths = (
{
closed = 1;
nodes = (
"231 478 LINE",
"160 478 LINE",
"160 564 LINE",
"92 517 LINE",
"51 574 LINE",
"138 633 LINE",
"50 691 LINE",
"92 748 LINE",
"160 704 LINE",
"160 785 LINE",
"231 785 LINE",
"231 702 LINE",
"302 748 LINE",
"344 691 LINE",
"256 632 LINE",
"343 572 LINE",
"302 515 LINE",
"231 565 LINE"
);
}
);
width = 394;
}
);
unicode = 002A;
},
{
glyphname = plus;
layers = (
{
layerId = "2EFD55B3-2F90-4AA8-864A-7457E925C2F5";
name = Regular;
paths = (
{
closed = 1;
nodes = (
"425 357 LINE",
"425 230 LINE",
"300 230 LINE",
"300 87 LINE",
"173 87 LINE",
"173 230 LINE",
"50 230 LINE",
"50 357 LINE",
"173 357 LINE",
"173 498 LINE",
"300 498 LINE",
"300 357 LINE"
);
}
);
width = 475;
}
);
unicode = 002B;
},
{
glyphname = comma;
layers = (
{
layerId = "2EFD55B3-2F90-4AA8-864A-7457E925C2F5";
name = Regular;
paths = (
{
closed = 1;
nodes = (
"178 -23 LINE",
"51 -23 LINE",
"88 129 LINE",
"215 129 LINE"
);
}
);
width = 265;
}
);
leftKerningGroup = comma;
unicode = 002C;
},
{
glyphname = hyphen;
layers = (
{
layerId = "2EFD55B3-2F90-4AA8-864A-7457E925C2F5";
name = Regular;
paths = (
{
closed = 1;
nodes = (
"366 357 LINE",
"366 230 LINE",
"50 230 LINE",
"50 357 LINE"
);
}
);
width = 416;
}
);
unicode = 002D;
},
{
glyphname = period;
lastChange = "2015-04-25 11:08:46 +0000";
layers = (
{
layerId = "2EFD55B3-2F90-4AA8-864A-7457E925C2F5";
name = Regular;
paths = (
{
closed = 1;
nodes = (
"50 96 OFFCURVE",
"84 129 OFFCURVE",
"125 129 CURVE SMOOTH",
"166 129 OFFCURVE",
"200 96 OFFCURVE",
"200 53 CURVE SMOOTH",
"200 12 OFFCURVE",
"166 -22 OFFCURVE",
"125 -22 CURVE SMOOTH",
"84 -22 OFFCURVE",
"50 12 OFFCURVE",
"50 53 CURVE SMOOTH"
);
}
);
width = 250;
}
);
leftKerningGroup = comma;
unicode = 002E;
},
{
glyphname = slash;
layers = (
{
layerId = "2EFD55B3-2F90-4AA8-864A-7457E925C2F5";
name = Regular;
paths = (
{
closed = 1;
nodes = (
"50 -23 LINE",
"225 716 LINE",
"351 716 LINE",
"177 -23 LINE"
);
}
);
width = 401;
}
);
unicode = 002F;
},
{
glyphname = zero;
layers = (
{
layerId = "2EFD55B3-2F90-4AA8-864A-7457E925C2F5";
name = Regular;
paths = (
{
closed = 1;
nodes = (
"264 698 LINE",
"365 693 OFFCURVE",
"447 584 OFFCURVE",
"447 353 CURVE SMOOTH",
"447 216 OFFCURVE",
"420 114 OFFCURVE",
"380 67 CURVE SMOOTH",
"340 19 OFFCURVE",
"304 1 OFFCURVE",
"265 0 CURVE",
"265 124 LINE",
"300 132 OFFCURVE",
"316 194 OFFCURVE",
"320 243 CURVE",
"321 267 OFFCURVE",
"322 299 OFFCURVE",
"322 339 CURVE SMOOTH",
"322 398 LINE SMOOTH",
"322 505 OFFCURVE",
"303 564 OFFCURVE",
"264 573 CURVE"
);
},
{
closed = 1;
nodes = (
"204 573 LINE",
"165 564 OFFCURVE",
"146 505 OFFCURVE",
"146 398 CURVE SMOOTH",
"146 339 LINE SMOOTH",
"146 259 OFFCURVE",
"147 219 OFFCURVE",
"164 168 CURVE SMOOTH",
"173 143 OFFCURVE",
"186 128 OFFCURVE",
"203 124 CURVE",
"203 0 LINE",
"164 1 OFFCURVE",
"128 19 OFFCURVE",
"88 67 CURVE SMOOTH",
"48 114 OFFCURVE",
"21 216 OFFCURVE",
"21 353 CURVE SMOOTH",
"21 584 OFFCURVE",
"103 693 OFFCURVE",
"204 698 CURVE"
);
}
);
width = 468;
}
);
unicode = 0030;
},
{
glyphname = one;
layers = (
{
layerId = "2EFD55B3-2F90-4AA8-864A-7457E925C2F5";
name = Regular;
paths = (
{
closed = 1;
nodes = (
"106 499 LINE",
"30 439 LINE",
"30 640 LINE",
"106 699 LINE",
"236 699 LINE",
"236 0 LINE",
"106 0 LINE"
);
}
);
width = 266;
}
);
unicode = 0031;
},
{
glyphname = two;
layers = (
{
layerId = "2EFD55B3-2F90-4AA8-864A-7457E925C2F5";
name = Regular;
paths = (
{
closed = 1;
nodes = (
"245 700 LINE",
"245 700 OFFCURVE",
"247 700 OFFCURVE",
"252 700 CURVE SMOOTH",
"325 700 OFFCURVE",
"382 670 OFFCURVE",
"411 627 CURVE SMOOTH",
"439 583 OFFCURVE",
"453 540 OFFCURVE",
"453 497 CURVE SMOOTH",
"453 494 LINE SMOOTH",
"453 445 OFFCURVE",
"445 409 OFFCURVE",
"419 380 CURVE SMOOTH",
"393 351 OFFCURVE",
"385 344 OFFCURVE",
"342 315 CURVE SMOOTH",
"266 262 OFFCURVE",
"229 230 OFFCURVE",
"197 179 CURVE",
"45 179 LINE",
"73 236 OFFCURVE",
"121 293 OFFCURVE",
"150 318 CURVE SMOOTH",
"164 330 OFFCURVE",
"182 344 OFFCURVE",
"203 360 CURVE SMOOTH",
"224 375 OFFCURVE",
"234 383 OFFCURVE",
"235 384 CURVE",
"241 389 OFFCURVE",
"254 399 OFFCURVE",
"275 413 CURVE SMOOTH",
"316 440 OFFCURVE",
"330 458 OFFCURVE",
"330 495 CURVE SMOOTH",
"330 497 LINE SMOOTH",
"330 546 OFFCURVE",
"302 572 OFFCURVE",
"245 574 CURVE"
);
},
{
closed = 1;
nodes = (
"190 573 LINE",
"189 573 OFFCURVE",
"188 572 OFFCURVE",
"185 571 CURVE",
"179 568 OFFCURVE",
"167 561 OFFCURVE",
"159 550 CURVE SMOOTH",
"150 538 OFFCURVE",
"142 518 OFFCURVE",
"142 495 CURVE",
"24 520 LINE",
"33 608 OFFCURVE",
"99 687 OFFCURVE",
"190 699 CURVE"
);
},
{
closed = 1;
nodes = (
"447 127 LINE",
"447 0 LINE",
"43 0 LINE",
"43 127 LINE"
);
}
);
width = 480;
}
);
unicode = 0032;
},
{
glyphname = three;
layers = (
{
layerId = "2EFD55B3-2F90-4AA8-864A-7457E925C2F5";
name = Regular;
paths = (
{
closed = 1;
nodes = (
"132 160 LINE",
"146 139 OFFCURVE",
"167 127 OFFCURVE",
"195 125 CURVE",
"195 -1 LINE",
"116 -1 OFFCURVE",
"59 32 OFFCURVE",
"26 97 CURVE"
);
},
{
closed = 1;
nodes = (
"254 122 LINE",
"295 122 OFFCURVE",
"327 160 OFFCURVE",
"327 201 CURVE SMOOTH",
"327 265 OFFCURVE",
"301 286 OFFCURVE",
"188 286 CURVE",
"188 410 LINE",
"301 410 OFFCURVE",
"327 434 OFFCURVE",
"327 499 CURVE SMOOTH",
"327 548 OFFCURVE",
"292 574 OFFCURVE",
"256 574 CURVE SMOOTH",
"252 574 LINE",
"252 698 LINE",
"375 695 OFFCURVE",
"453 595 OFFCURVE",
"453 508 CURVE SMOOTH",
"453 424 OFFCURVE",
"432 371 OFFCURVE",
"391 350 CURVE",
"426 326 OFFCURVE",
"458 275 OFFCURVE",
"458 199 CURVE SMOOTH",
"458 84 OFFCURVE",
"348 0 OFFCURVE",
"257 0 CURVE SMOOTH",
"255 0 LINE"
);
},
{
closed = 1;
nodes = (
"26 600 LINE",
"65 665 OFFCURVE",
"121 698 OFFCURVE",
"195 698 CURVE",
"195 572 LINE",
"167 570 OFFCURVE",
"146 558 OFFCURVE",
"132 537 CURVE"
);
}
);
width = 484;
}
);
unicode = 0033;
},
{
glyphname = four;
layers = (
{
layerId = "2EFD55B3-2F90-4AA8-864A-7457E925C2F5";
name = Regular;
paths = (
{
closed = 1;
nodes = (
"457 272 LINE",
"457 145 LINE",
"403 145 LINE",
"403 0 LINE",
"273 0 LINE",
"273 701 LINE",
"403 701 LINE",
"403 272 LINE"
);
},
{
closed = 1;
nodes = (
"216 272 LINE",
"216 145 LINE",
"26 145 LINE",
"26 272 LINE",
"216 598 LINE",
"216 351 LINE",
"170 272 LINE"
);
}
);
width = 483;
}
);
unicode = 0034;
},
{
glyphname = five;
layers = (
{
layerId = "2EFD55B3-2F90-4AA8-864A-7457E925C2F5";
name = Regular;
paths = (
{
closed = 1;
nodes = (
"131 175 LINE",
"144 149 OFFCURVE",
"169 133 OFFCURVE",
"204 126 CURVE",
"204 0 LINE",
"124 0 OFFCURVE",
"61 43 OFFCURVE",
"28 107 CURVE"
);
},
{
closed = 1;
nodes = (
"258 447 LINE",
"393 444 OFFCURVE",
"466 343 OFFCURVE",
"466 223 CURVE SMOOTH",
"466 88 OFFCURVE",
"370 3 OFFCURVE",
"258 0 CURVE",
"258 126 LINE",
"307 135 OFFCURVE",
"338 173 OFFCURVE",
"338 224 CURVE SMOOTH",
"338 277 OFFCURVE",
"299 319 OFFCURVE",
"258 324 CURVE"
);
},
{
closed = 1;
nodes = (
"409 574 LINE",
"171 573 LINE",
"159 442 LINE",
"174 445 OFFCURVE",
"189 447 OFFCURVE",
"204 447 CURVE",
"204 324 LINE",
"177 321 OFFCURVE",
"155 309 OFFCURVE",
"136 286 CURVE",
"26 354 LINE",
"55 700 LINE",
"409 700 LINE"
);
}
);
width = 492;
}
);
unicode = 0035;
},
{
glyphname = six;
layers = (
{
layerId = "2EFD55B3-2F90-4AA8-864A-7457E925C2F5";
name = Regular;
paths = (
{
closed = 1;
nodes = (
"228 572 LINE",
"173 565 OFFCURVE",
"150 471 OFFCURVE",
"150 399 CURVE",
"172 416 OFFCURVE",
"198 425 OFFCURVE",
"228 425 CURVE",
"228 307 LINE",
"227 307 LINE",
"182 296 OFFCURVE",
"160 263 OFFCURVE",
"160 209 CURVE SMOOTH",
"160 169 OFFCURVE",
"191 128 OFFCURVE",
"228 124 CURVE",
"228 -1 LINE",
"160 -1 OFFCURVE",
"110 31 OFFCURVE",
"82 75 CURVE SMOOTH",
"53 119 OFFCURVE",
"35 193 OFFCURVE",
"30 254 CURVE SMOOTH",
"27 285 OFFCURVE",
"26 319 OFFCURVE",
"26 358 CURVE SMOOTH",
"26 411 OFFCURVE",
"30 460 OFFCURVE",
"48 521 CURVE SMOOTH",
"66 582 OFFCURVE",
"90 628 OFFCURVE",
"141 664 CURVE SMOOTH",
"166 682 OFFCURVE",
"195 693 OFFCURVE",
"228 697 CURVE"
);
},
{
closed = 1;
nodes = (
"355 537 LINE",
"338 561 OFFCURVE",
"317 573 OFFCURVE",
"293 573 CURVE SMOOTH",
"282 573 LINE",
"282 698 LINE",
"355 698 OFFCURVE",
"411 665 OFFCURVE",
"450 600 CURVE"
);
},
{
closed = 1;
nodes = (
"282 425 LINE",
"401 425 OFFCURVE",
"471 333 OFFCURVE",
"471 209 CURVE SMOOTH",
"471 88 OFFCURVE",
"386 0 OFFCURVE",
"282 -1 CURVE",
"282 123 LINE",
"321 127 OFFCURVE",
"356 161 OFFCURVE",
"356 208 CURVE SMOOTH",
"356 263 OFFCURVE",
"332 296 OFFCURVE",
"283 309 CURVE"
);
}
);
width = 497;
}
);
unicode = 0036;
},
{
glyphname = seven;
layers = (
{
layerId = "2EFD55B3-2F90-4AA8-864A-7457E925C2F5";
name = Regular;
paths = (
{
closed = 1;
nodes = (
"356 450 LINE",
"316 295 OFFCURVE",
"288 145 OFFCURVE",
"273 0 CURVE",
"136 0 LINE",
"151 143 OFFCURVE",
"180 293 OFFCURVE",
"223 450 CURVE"
);
},
{
closed = 1;
nodes = (
"20 698 LINE",
"409 698 LINE",
"409 573 LINE",
"394 560 OFFCURVE",
"382 539 OFFCURVE",
"371 510 CURVE",
"236 510 LINE",
"260 572 LINE",
"20 572 LINE"
);
}
);
width = 435;
}
);
unicode = 0037;
},
{
glyphname = eight;
layers = (
{
layerId = "2EFD55B3-2F90-4AA8-864A-7457E925C2F5";
name = Regular;
paths = (
{
closed = 1;
nodes = (
"211 0 LINE",
"210 0 LINE SMOOTH",
"186 0 OFFCURVE",
"147 15 OFFCURVE",
"104 44 CURVE SMOOTH",
"60 73 OFFCURVE",
"26 131 OFFCURVE",
"26 199 CURVE SMOOTH",
"26 264 OFFCURVE",
"59 328 OFFCURVE",
"91 349 CURVE",
"86 350 OFFCURVE",
"79 357 OFFCURVE",
"70 370 CURVE SMOOTH",
"53 394 OFFCURVE",
"33 448 OFFCURVE",
"33 499 CURVE SMOOTH",
"33 610 OFFCURVE",
"134 698 OFFCURVE",
"214 698 CURVE",
"214 571 LINE",
"187 567 OFFCURVE",
"157 545 OFFCURVE",
"157 497 CURVE SMOOTH",
"157 452 OFFCURVE",
"176 424 OFFCURVE",
"213 413 CURVE",
"213 283 LINE",
"174 272 OFFCURVE",
"154 244 OFFCURVE",
"154 201 CURVE SMOOTH",
"154 165 OFFCURVE",
"179 134 OFFCURVE",
"212 125 CURVE"
);
},
{
closed = 1;
nodes = (
"274 125 LINE",
"307 134 OFFCURVE",
"332 165 OFFCURVE",
"332 201 CURVE SMOOTH",
"332 244 OFFCURVE",
"312 272 OFFCURVE",
"273 283 CURVE",
"273 413 LINE",
"310 424 OFFCURVE",
"329 452 OFFCURVE",
"329 497 CURVE SMOOTH",
"329 545 OFFCURVE",
"299 567 OFFCURVE",
"272 571 CURVE",
"272 698 LINE",
"351 698 OFFCURVE",
"452 610 OFFCURVE",
"452 499 CURVE SMOOTH",
"452 448 OFFCURVE",
"433 394 OFFCURVE",
"416 370 CURVE SMOOTH",
"407 357 OFFCURVE",
"400 350 OFFCURVE",
"395 349 CURVE",
"427 328 OFFCURVE",
"460 264 OFFCURVE",
"460 199 CURVE SMOOTH",
"460 131 OFFCURVE",
"426 73 OFFCURVE",
"383 44 CURVE SMOOTH",
"339 15 OFFCURVE",
"300 0 OFFCURVE",
"276 0 CURVE SMOOTH",
"275 0 LINE"
);
}
);
width = 486;
}
);
unicode = 0038;
},
{
glyphname = nine;
layers = (
{
layerId = "2EFD55B3-2F90-4AA8-864A-7457E925C2F5";
name = Regular;
paths = (
{
closed = 1;
nodes = (
"272 127 LINE",
"323 138 OFFCURVE",
"349 195 OFFCURVE",
"349 300 CURVE",
"327 283 OFFCURVE",
"301 274 OFFCURVE",
"272 274 CURVE",
"272 392 LINE",
"273 392 LINE",
"318 403 OFFCURVE",
"340 436 OFFCURVE",
"340 490 CURVE SMOOTH",
"340 530 OFFCURVE",
"309 571 OFFCURVE",
"272 575 CURVE",
"272 700 LINE",
"356 700 OFFCURVE",
"413 658 OFFCURVE",
"441 584 CURVE SMOOTH",
"469 510 OFFCURVE",
"478 438 OFFCURVE",
"478 341 CURVE SMOOTH",
"478 288 OFFCURVE",
"474 236 OFFCURVE",
"455 173 CURVE SMOOTH",
"436 109 OFFCURVE",
"410 61 OFFCURVE",
"359 28 CURVE SMOOTH",
"334 11 OFFCURVE",
"305 3 OFFCURVE",
"272 2 CURVE"
);
},
{
closed = 1;
nodes = (
"142 178 LINE",
"177 134 OFFCURVE",
"189 131 OFFCURVE",
"218 127 CURVE",
"218 1 LINE",
"143 1 OFFCURVE",
"78 48 OFFCURVE",
"43 115 CURVE"
);
},
{
closed = 1;
nodes = (
"218 274 LINE",
"97 274 OFFCURVE",
"26 357 OFFCURVE",
"26 485 CURVE SMOOTH",
"26 608 OFFCURVE",
"114 699 OFFCURVE",
"218 700 CURVE",
"218 576 LINE",
"181 572 OFFCURVE",
"145 538 OFFCURVE",
"145 491 CURVE SMOOTH",
"145 436 OFFCURVE",
"169 403 OFFCURVE",
"217 390 CURVE"
);
}
);
width = 504;
}
);
unicode = 0039;
},
{
glyphname = colon;
layers = (
{
layerId = "2EFD55B3-2F90-4AA8-864A-7457E925C2F5";
name = Regular;
paths = (
{
closed = 1;
nodes = (
"57 321 OFFCURVE",
"50 339 OFFCURVE",
"50 360 CURVE SMOOTH",
"50 403 OFFCURVE",
"84 436 OFFCURVE",
"125 436 CURVE SMOOTH",
"166 436 OFFCURVE",
"200 403 OFFCURVE",
"200 360 CURVE SMOOTH",
"200 317 OFFCURVE",
"166 285 OFFCURVE",
"125 285 CURVE SMOOTH",
"104 285 OFFCURVE",
"87 292 OFFCURVE",
"72 307 CURVE SMOOTH"
);
},
{
closed = 1;
nodes = (
"57 31 OFFCURVE",
"50 49 OFFCURVE",
"50 70 CURVE SMOOTH",
"50 113 OFFCURVE",
"84 146 OFFCURVE",
"125 146 CURVE SMOOTH",
"166 146 OFFCURVE",
"200 113 OFFCURVE",
"200 70 CURVE SMOOTH",
"200 27 OFFCURVE",
"166 -5 OFFCURVE",
"125 -5 CURVE SMOOTH",
"104 -5 OFFCURVE",
"87 2 OFFCURVE",
"72 17 CURVE SMOOTH"
);
}
);
width = 250;
}
);
leftKerningGroup = colon;
unicode = 003A;
},
{
glyphname = semicolon;
layers = (
{
layerId = "2EFD55B3-2F90-4AA8-864A-7457E925C2F5";
name = Regular;
paths = (
{
closed = 1;
nodes = (
"177 -23 LINE",
"50 -23 LINE",
"87 129 LINE",
"214 129 LINE"
);
},
{
closed = 1;
nodes = (
"98 321 OFFCURVE",
"91 339 OFFCURVE",
"91 360 CURVE SMOOTH",
"91 403 OFFCURVE",
"125 436 OFFCURVE",
"166 436 CURVE SMOOTH",
"207 436 OFFCURVE",
"241 403 OFFCURVE",
"241 360 CURVE SMOOTH",
"241 317 OFFCURVE",
"209 285 OFFCURVE",
"166 285 CURVE SMOOTH",
"145 285 OFFCURVE",
"127 292 OFFCURVE",
"113 307 CURVE"
);
}
);
width = 291;
}
);
leftKerningGroup = colon;
unicode = 003B;
},
{
glyphname = less;
layers = (
{
layerId = "2EFD55B3-2F90-4AA8-864A-7457E925C2F5";
name = Regular;
paths = (
{
closed = 1;
nodes = (
"384 500 LINE",
"384 370 LINE",
"208 292 LINE",
"384 206 LINE",
"384 79 LINE",
"30 258 LINE",
"30 322 LINE"
);
}
);
width = 414;
}
);
unicode = 003C;
},
{
glyphname = equal;
layers = (
{
layerId = "2EFD55B3-2F90-4AA8-864A-7457E925C2F5";
name = Regular;
paths = (
{
closed = 1;
nodes = (
"368 452 LINE",
"368 325 LINE",
"50 325 LINE",
"50 452 LINE"
);
},
{
closed = 1;
nodes = (
"368 258 LINE",
"368 131 LINE",
"50 131 LINE",
"50 258 LINE"
);
}
);
width = 418;
}
);
unicode = 003D;
},
{
glyphname = greater;
layers = (
{
layerId = "2EFD55B3-2F90-4AA8-864A-7457E925C2F5";
name = Regular;
paths = (
{
closed = 1;
nodes = (
"30 500 LINE",
"384 322 LINE",
"384 258 LINE",
"30 79 LINE",
"30 206 LINE",
"206 292 LINE",
"30 370 LINE"
);
}
);
width = 414;
}
);
unicode = 003E;
},
{
glyphname = question;
layers = (
{
layerId = "2EFD55B3-2F90-4AA8-864A-7457E925C2F5";
name = Regular;
paths = (
{
closed = 1;
nodes = (
"30 611 LINE",
"57 644 OFFCURVE",
"74 665 OFFCURVE",
"128 687 CURVE SMOOTH",
"155 698 OFFCURVE",
"185 703 OFFCURVE",
"218 703 CURVE SMOOTH",
"345 703 OFFCURVE",
"426 620 OFFCURVE",
"430 491 CURVE SMOOTH",
"430 481 LINE SMOOTH",
"430 429 OFFCURVE",
"417 384 OFFCURVE",
"397 357 CURVE SMOOTH",
"377 329 OFFCURVE",
"353 307 OFFCURVE",
"329 296 CURVE SMOOTH",
"305 285 OFFCURVE",
"284 278 OFFCURVE",
"272 277 CURVE SMOOTH",
"263 276 LINE",
"263 166 LINE",
"134 166 LINE",
"134 386 LINE",
"261 389 OFFCURVE",
"302 405 OFFCURVE",
"302 493 CURVE SMOOTH",
"302 542 OFFCURVE",
"259 575 OFFCURVE",
"210 575 CURVE SMOOTH",
"169 575 OFFCURVE",
"137 559 OFFCURVE",
"112 526 CURVE"
);
},
{
closed = 1;
nodes = (
"122 96 OFFCURVE",
"156 129 OFFCURVE",
"197 129 CURVE SMOOTH",
"238 129 OFFCURVE",
"273 94 OFFCURVE",
"273 53 CURVE SMOOTH",
"273 12 OFFCURVE",
"240 -22 OFFCURVE",
"197 -22 CURVE SMOOTH",
"156 -22 OFFCURVE",
"122 12 OFFCURVE",
"122 53 CURVE SMOOTH"
);
}
);
width = 460;
}
);
unicode = 003F;
},
{
glyphname = at;
layers = (
{
layerId = "2EFD55B3-2F90-4AA8-864A-7457E925C2F5";
name = Regular;
paths = (
{
closed = 1;
nodes = (
"717 12 LINE",
"657 -45 OFFCURVE",
"536 -87 OFFCURVE",
"423 -87 CURVE SMOOTH",
"268 -87 OFFCURVE",
"144 -30 OFFCURVE",
"71 91 CURVE SMOOTH",
"34 152 OFFCURVE",
"16 224 OFFCURVE",
"16 309 CURVE SMOOTH",
"16 537 OFFCURVE",
"195 715 OFFCURVE",
"448 715 CURVE SMOOTH",
"560 715 OFFCURVE",
"666 673 OFFCURVE",
"735 578 CURVE SMOOTH",
"769 531 OFFCURVE",
"786 475 OFFCURVE",
"786 412 CURVE SMOOTH",
"786 311 OFFCURVE",
"755 229 OFFCURVE",
"705 184 CURVE SMOOTH",
"655 139 OFFCURVE",
"596 116 OFFCURVE",
"532 116 CURVE SMOOTH",
"495 116 OFFCURVE",
"464 136 OFFCURVE",
"453 161 CURVE",
"434 131 OFFCURVE",
"397 116 OFFCURVE",
"344 116 CURVE SMOOTH",
"268 116 OFFCURVE",
"205 193 OFFCURVE",
"205 289 CURVE SMOOTH",
"205 430 OFFCURVE",
"313 519 OFFCURVE",
"409 519 CURVE SMOOTH",
"448 519 OFFCURVE",
"481 504 OFFCURVE",
"491 496 CURVE SMOOTH",
"496 492 OFFCURVE",
"502 486 OFFCURVE",
"510 477 CURVE",
"518 504 LINE",
"602 504 LINE",
"552 308 LINE",
"547 291 OFFCURVE",
"545 277 OFFCURVE",
"545 266 CURVE SMOOTH",
"545 249 OFFCURVE",
"551 240 OFFCURVE",
"563 240 CURVE SMOOTH",
"610 240 OFFCURVE",
"666 295 OFFCURVE",
"666 412 CURVE SMOOTH",
"666 523 OFFCURVE",
"558 602 OFFCURVE",
"451 602 CURVE SMOOTH",
"280 602 OFFCURVE",
"136 477 OFFCURVE",
"136 312 CURVE SMOOTH",
"136 129 OFFCURVE",
"253 22 OFFCURVE",
"414 22 CURVE SMOOTH",
"505 22 OFFCURVE",
"590 49 OFFCURVE",
"667 103 CURVE"
);
}
);
width = 803;
}
);
unicode = 0040;
},
{
glyphname = A;
layers = (
{
layerId = "2EFD55B3-2F90-4AA8-864A-7457E925C2F5";
name = Regular;
paths = (
{
closed = 1;
nodes = (
"200 699 LINE",
"339 699 LINE",
"490 0 LINE",
"353 0 LINE",
"333 85 LINE",
"239 85 LINE",
"269 223 LINE",
"305 223 LINE"
);
},
{
closed = 1;
nodes = (
"155 582 LINE",
"170 582 LINE",
"230 302 LINE",
"164 0 LINE",
"26 0 LINE"
);
}
);
width = 516;
}
);
leftKerningGroup = A;
rightKerningGroup = A;
unicode = 0041;
},
{
glyphname = B;
layers = (
{
layerId = "2EFD55B3-2F90-4AA8-864A-7457E925C2F5";
name = Regular;
paths = (
{
closed = 1;
nodes = (
"26 700 LINE",
"167 700 LINE",
"167 0 LINE",
"26 0 LINE"
);
},
{
closed = 1;
nodes = (
"221 122 LINE",
"297 122 OFFCURVE",
"324 166 OFFCURVE",
"324 205 CURVE SMOOTH",
"324 220 OFFCURVE",
"319 235 OFFCURVE",
"307 255 CURVE",
"294 275 OFFCURVE",
"262 289 OFFCURVE",
"221 289 CURVE",
"221 411 LINE",
"281 411 OFFCURVE",
"322 446 OFFCURVE",
"322 497 CURVE SMOOTH",
"322 546 OFFCURVE",
"281 576 OFFCURVE",
"221 577 CURVE",
"221 700 LINE",
"226 701 OFFCURVE",
"234 701 OFFCURVE",
"245 701 CURVE SMOOTH",
"317 701 OFFCURVE",
"376 670 OFFCURVE",
"407 630 CURVE SMOOTH",
"438 589 OFFCURVE",
"454 547 OFFCURVE",
"454 514 CURVE SMOOTH",
"454 513 LINE SMOOTH",
"453 439 OFFCURVE",
"430 385 OFFCURVE",
"385 352 CURVE",
"432 316 OFFCURVE",
"458 277 OFFCURVE",
"458 201 CURVE SMOOTH",
"458 197 LINE SMOOTH",
"457 86 OFFCURVE",
"366 -2 OFFCURVE",
"249 -2 CURVE SMOOTH",
"242 -2 OFFCURVE",
"233 -1 OFFCURVE",
"221 0 CURVE"
);
}
);
width = 484;
}
);
unicode = 0042;
},
{
glyphname = C;
layers = (
{
layerId = "2EFD55B3-2F90-4AA8-864A-7457E925C2F5";
name = Regular;
paths = (
{
closed = 1;
nodes = (
"229 564 LINE",
"201 564 OFFCURVE",
"182 544 OFFCURVE",
"177 532 CURVE",
"174 526 OFFCURVE",
"173 521 OFFCURVE",
"173 518 CURVE SMOOTH",
"173 181 LINE SMOOTH",
"173 178 OFFCURVE",
"174 173 OFFCURVE",
"177 167 CURVE",
"182 155 OFFCURVE",
"201 136 OFFCURVE",
"229 136 CURVE",
"229 -5 LINE",
"174 -5 OFFCURVE",
"126 15 OFFCURVE",
"98 43 CURVE SMOOTH",
"69 71 OFFCURVE",
"47 107 OFFCURVE",
"39 139 CURVE",
"34 154 OFFCURVE",
"32 168 OFFCURVE",
"32 181 CURVE SMOOTH",
"32 518 LINE SMOOTH",
"32 551 OFFCURVE",
"47 593 OFFCURVE",
"76 634 CURVE SMOOTH",
"105 674 OFFCURVE",
"162 705 OFFCURVE",
"229 705 CURVE"
);
},
{
closed = 1;
nodes = (
"283 136 LINE",
"326 145 OFFCURVE",
"330 170 OFFCURVE",
"330 203 CURVE SMOOTH",
"330 215 LINE",
"468 182 LINE",
"468 79 OFFCURVE",
"378 -5 OFFCURVE",
"283 -5 CURVE"
);
},
{
closed = 1;
nodes = (
"283 564 LINE",
"283 705 LINE",
"375 705 OFFCURVE",
"468 612 OFFCURVE",
"468 516 CURVE",
"330 480 LINE",
"330 495 LINE SMOOTH",
"330 528 OFFCURVE",
"325 539 OFFCURVE",
"311 550 CURVE",
"304 555 OFFCURVE",
"297 559 OFFCURVE",
"292 561 CURVE"
);
}
);
width = 494;
}
);
unicode = 0043;
},
{
glyphname = D;
layers = (
{
layerId = "2EFD55B3-2F90-4AA8-864A-7457E925C2F5";
name = Regular;
paths = (
{
closed = 1;
nodes = (
"32 0 LINE",
"32 700 LINE",
"173 700 LINE",
"173 0 LINE"
);
},
{
closed = 1;
nodes = (
"227 141 LINE",
"231 141 OFFCURVE",
"237 142 OFFCURVE",
"244 145 CURVE",
"259 149 OFFCURVE",
"283 168 OFFCURVE",
"283 197 CURVE SMOOTH",
"283 503 LINE SMOOTH",
"283 507 OFFCURVE",
"282 513 OFFCURVE",
"280 520 CURVE",
"275 535 OFFCURVE",
"255 559 OFFCURVE",
"227 559 CURVE",
"227 700 LINE",
"294 700 OFFCURVE",
"351 668 OFFCURVE",
"380 625 CURVE SMOOTH",
"409 581 OFFCURVE",
"424 538 OFFCURVE",
"424 503 CURVE SMOOTH",
"424 197 LINE SMOOTH",
"424 128 OFFCURVE",
"391 71 OFFCURVE",
"348 43 CURVE SMOOTH",
"304 14 OFFCURVE",
"260 0 OFFCURVE",
"227 0 CURVE"
);
}
);
width = 452;
}
);
unicode = 0044;
},
{
glyphname = E;
layers = (
{
layerId = "2EFD55B3-2F90-4AA8-864A-7457E925C2F5";
name = Regular;
paths = (
{
closed = 1;
nodes = (
"396 141 LINE",
"396 0 LINE",
"32 0 LINE",
"32 700 LINE",
"396 700 LINE",
"396 560 LINE",
"173 560 LINE",
"173 418 LINE",
"302 418 LINE",
"302 277 LINE",
"173 277 LINE",
"173 141 LINE"
);
}
);
width = 422;
}
);
unicode = 0045;
},
{
glyphname = F;
layers = (
{
layerId = "2EFD55B3-2F90-4AA8-864A-7457E925C2F5";
name = Regular;
paths = (
{
closed = 1;
nodes = (
"302 418 LINE",
"302 277 LINE",
"173 277 LINE",
"173 1 LINE",
"32 1 LINE",
"32 700 LINE",
"396 700 LINE",
"396 560 LINE",
"173 560 LINE",
"173 418 LINE"
);
}
);
width = 422;
}
);
rightKerningGroup = F;
unicode = 0046;
},
{
glyphname = G;
layers = (
{
layerId = "2EFD55B3-2F90-4AA8-864A-7457E925C2F5";
name = Regular;
paths = (
{
closed = 1;
nodes = (
"222 -5 LINE",
"189 -5 OFFCURVE",
"145 10 OFFCURVE",
"102 39 CURVE SMOOTH",
"59 68 OFFCURVE",
"26 124 OFFCURVE",
"26 192 CURVE SMOOTH",
"26 524 LINE",
"37 608 OFFCURVE",
"105 705 OFFCURVE",
"222 705 CURVE",
"222 564 LINE",
"194 564 OFFCURVE",
"175 540 OFFCURVE",
"171 525 CURVE",
"168 518 OFFCURVE",
"167 512 OFFCURVE",
"167 508 CURVE SMOOTH",
"167 192 LINE SMOOTH",
"167 164 OFFCURVE",
"190 145 OFFCURVE",
"206 140 CURVE",
"213 137 OFFCURVE",
"219 136 OFFCURVE",
"222 136 CURVE"
);
},
{
closed = 1;
nodes = (
"461 353 LINE",
"461 176 LINE SMOOTH",
"461 96 OFFCURVE",
"359 -4 OFFCURVE",
"276 -5 CURVE",
"276 136 LINE",
"279 136 OFFCURVE",
"283 138 OFFCURVE",
"290 142 CURVE",
"302 150 OFFCURVE",
"319 169 OFFCURVE",
"319 190 CURVE SMOOTH",
"319 223 LINE",
"276 223 LINE",
"276 353 LINE"
);
},
{
closed = 1;
nodes = (
"276 564 LINE",
"276 705 LINE",
"369 705 OFFCURVE",
"461 612 OFFCURVE",
"461 516 CURVE",
"323 465 LINE",
"323 495 LINE SMOOTH",
"323 528 OFFCURVE",
"318 539 OFFCURVE",
"304 550 CURVE",
"297 555 OFFCURVE",
"290 559 OFFCURVE",
"284 561 CURVE"
);
}
);
width = 493;
}
);
unicode = 0047;
},
{
glyphname = H;
layers = (
{
layerId = "2EFD55B3-2F90-4AA8-864A-7457E925C2F5";
name = Regular;
paths = (
{
closed = 1;
nodes = (
"285 700 LINE",
"426 700 LINE",
"426 0 LINE",
"285 0 LINE",
"285 283 LINE",
"256 283 LINE",
"256 421 LINE",
"285 421 LINE"
);
},
{
closed = 1;
nodes = (
"202 421 LINE",
"202 283 LINE",
"173 283 LINE",
"173 0 LINE",
"32 0 LINE",
"32 700 LINE",
"173 700 LINE",
"173 421 LINE"
);
}
);
width = 458;
}
);
unicode = 0048;
},
{
glyphname = I;
layers = (
{
layerId = "2EFD55B3-2F90-4AA8-864A-7457E925C2F5";
name = Regular;
paths = (
{
closed = 1;
nodes = (
"34 700 LINE",
"175 700 LINE",
"175 0 LINE",
"34 0 LINE"
);
}
);
width = 209;
}
);
unicode = 0049;
},
{
glyphname = J;
layers = (
{
layerId = "2EFD55B3-2F90-4AA8-864A-7457E925C2F5";
name = Regular;
paths = (
{
closed = 1;
nodes = (
"267 137 LINE",
"270 137 OFFCURVE",
"276 138 OFFCURVE",
"284 141 CURVE",
"299 146 OFFCURVE",
"323 165 OFFCURVE",
"323 193 CURVE SMOOTH",
"323 700 LINE",
"463 700 LINE",
"463 193 LINE SMOOTH",
"463 125 OFFCURVE",
"430 68 OFFCURVE",
"387 39 CURVE SMOOTH",
"344 10 OFFCURVE",
"300 -5 OFFCURVE",
"267 -5 CURVE"
);
},
{
closed = 1;
nodes = (
"213 -5 LINE",
"181 -5 OFFCURVE",
"138 12 OFFCURVE",
"98 42 CURVE SMOOTH",
"57 72 OFFCURVE",
"26 128 OFFCURVE",
"26 193 CURVE SMOOTH",
"26 242 LINE",
"167 242 LINE",
"167 193 LINE SMOOTH",
"167 165 OFFCURVE",
"187 146 OFFCURVE",
"199 141 CURVE",
"205 138 OFFCURVE",
"210 137 OFFCURVE",
"213 137 CURVE"
);
}
);
width = 495;
}
);
unicode = 004A;
},
{
glyphname = K;
layers = (
{
layerId = "2EFD55B3-2F90-4AA8-864A-7457E925C2F5";
name = Regular;
paths = (
{
closed = 1;
nodes = (
"26 700 LINE",
"167 700 LINE",
"167 0 LINE",
"26 0 LINE"
);
},
{
closed = 1;
nodes = (
"314 700 LINE",
"453 700 LINE",
"347 341 LINE",
"457 0 LINE",
"319 0 LINE",
"207 341 LINE"
);
}
);
width = 475;
}
);
unicode = 004B;
},
{
glyphname = L;
layers = (
{
layerId = "2EFD55B3-2F90-4AA8-864A-7457E925C2F5";
name = Regular;
paths = (
{
closed = 1;
nodes = (
"402 139 LINE",
"402 0 LINE",
"26 0 LINE",
"26 700 LINE",
"167 700 LINE",
"167 139 LINE"
);
}
);
width = 428;
}
);
rightKerningGroup = L;
unicode = 004C;
},
{
glyphname = M;
layers = (
{
layerId = "2EFD55B3-2F90-4AA8-864A-7457E925C2F5";
name = Regular;
paths = (
{
closed = 1;
nodes = (
"503 700 LINE",
"644 700 LINE",
"644 0 LINE",
"503 0 LINE"
);
},
{
closed = 1;
nodes = (
"32 700 LINE",
"142 700 LINE",
"333 237 LINE",
"439 476 LINE",
"449 476 LINE",
"449 151 LINE",
"382 0 LINE",
"285 0 LINE",
"32 608 LINE"
);
},
{
closed = 1;
nodes = (
"32 0 LINE",
"32 444 LINE",
"41 444 LINE",
"173 127 LINE",
"173 0 LINE"
);
}
);
width = 676;
}
);
unicode = 004D;
},
{
glyphname = N;
layers = (
{
layerId = "2EFD55B3-2F90-4AA8-864A-7457E925C2F5";
name = Regular;
paths = (
{
closed = 1;
nodes = (
"32 700 LINE",
"147 700 LINE",
"477 168 LINE",
"477 0 LINE",
"410 0 LINE",
"32 608 LINE"
);
},
{
closed = 1;
nodes = (
"477 700 LINE",
"477 284 LINE",
"469 284 LINE",
"336 498 LINE",
"336 700 LINE"
);
},
{
closed = 1;
nodes = (
"32 0 LINE",
"32 492 LINE",
"40 492 LINE",
"173 278 LINE",
"173 0 LINE"
);
}
);
width = 509;
}
);
unicode = 004E;
},
{
glyphname = O;
layers = (
{
layerId = "2EFD55B3-2F90-4AA8-864A-7457E925C2F5";
name = Regular;
paths = (
{
closed = 1;
nodes = (
"281 137 LINE",
"284 137 OFFCURVE",
"290 139 OFFCURVE",
"298 142 CURVE SMOOTH",
"313 148 OFFCURVE",
"337 167 OFFCURVE",
"337 195 CURVE SMOOTH",
"337 508 LINE SMOOTH",
"337 511 OFFCURVE",
"336 517 OFFCURVE",
"333 525 CURVE",
"328 540 OFFCURVE",
"309 564 OFFCURVE",
"281 564 CURVE",
"281 705 LINE",
"398 705 OFFCURVE",
"478 599 OFFCURVE",
"478 524 CURVE SMOOTH",
"478 195 LINE SMOOTH",
"478 127 OFFCURVE",
"445 71 OFFCURVE",
"402 41 CURVE SMOOTH",
"358 11 OFFCURVE",
"314 -5 OFFCURVE",
"281 -5 CURVE"
);
},
{
closed = 1;
nodes = (
"226 -5 LINE",
"193 -5 OFFCURVE",
"149 11 OFFCURVE",
"106 41 CURVE SMOOTH",
"63 71 OFFCURVE",
"30 127 OFFCURVE",
"30 195 CURVE SMOOTH",
"30 524 LINE SMOOTH",
"30 568 OFFCURVE",
"55 627 OFFCURVE",
"119 672 CURVE SMOOTH",
"150 694 OFFCURVE",
"186 705 OFFCURVE",
"227 705 CURVE",
"227 564 LINE",
"199 564 OFFCURVE",
"180 540 OFFCURVE",
"175 525 CURVE",
"172 517 OFFCURVE",
"171 511 OFFCURVE",
"171 508 CURVE SMOOTH",
"171 195 LINE SMOOTH",
"171 167 OFFCURVE",
"194 148 OFFCURVE",
"210 142 CURVE",
"217 139 OFFCURVE",
"223 137 OFFCURVE",
"226 137 CURVE"
);
}
);
width = 508;
}
);
unicode = 004F;
},
{
glyphname = P;
layers = (
{
layerId = "2EFD55B3-2F90-4AA8-864A-7457E925C2F5";
name = Regular;
paths = (
{
closed = 1;
nodes = (
"26 700 LINE",
"167 700 LINE",
"167 0 LINE",
"26 0 LINE"
);
},
{
closed = 1;
nodes = (
"221 457 LINE",
"254 457 LINE SMOOTH",
"265 457 OFFCURVE",
"276 456 OFFCURVE",
"293 473 CURVE",
"301 482 OFFCURVE",
"305 493 OFFCURVE",
"305 508 CURVE SMOOTH",
"305 539 OFFCURVE",
"284 556 OFFCURVE",
"272 559 CURVE",
"266 560 OFFCURVE",
"260 561 OFFCURVE",
"254 561 CURVE SMOOTH",
"221 561 LINE",
"221 700 LINE",
"392 700 OFFCURVE",
"448 636 OFFCURVE",
"448 512 CURVE SMOOTH",
"448 371 OFFCURVE",
"381 318 OFFCURVE",
"221 318 CURVE"
);
}
);
width = 474;
}
);
rightKerningGroup = F;
unicode = 0050;
},
{
glyphname = Q;
layers = (
{
layerId = "2EFD55B3-2F90-4AA8-864A-7457E925C2F5";
name = Regular;
paths = (
{
closed = 1;
nodes = (
"460 -32 LINE",
"348 -107 LINE",
"277 -5 LINE",
"277 137 LINE",
"280 137 OFFCURVE",
"286 139 OFFCURVE",
"294 142 CURVE SMOOTH",
"309 148 OFFCURVE",
"333 167 OFFCURVE",
"333 195 CURVE SMOOTH",
"333 508 LINE SMOOTH",
"333 511 OFFCURVE",
"332 517 OFFCURVE",
"329 525 CURVE",
"324 540 OFFCURVE",
"305 564 OFFCURVE",
"277 564 CURVE",
"277 705 LINE",
"394 705 OFFCURVE",
"474 599 OFFCURVE",
"474 524 CURVE SMOOTH",
"474 195 LINE SMOOTH",
"474 134 OFFCURVE",
"451 85 OFFCURVE",
"405 47 CURVE"
);
},
{
closed = 1;
nodes = (
"222 -5 LINE",
"189 -5 OFFCURVE",
"145 11 OFFCURVE",
"102 41 CURVE SMOOTH",
"59 71 OFFCURVE",
"26 127 OFFCURVE",
"26 195 CURVE SMOOTH",
"26 524 LINE SMOOTH",
"26 568 OFFCURVE",
"51 627 OFFCURVE",
"115 672 CURVE SMOOTH",
"146 694 OFFCURVE",
"182 705 OFFCURVE",
"223 705 CURVE",
"223 564 LINE",
"195 564 OFFCURVE",
"176 540 OFFCURVE",
"171 525 CURVE",
"168 517 OFFCURVE",
"167 511 OFFCURVE",
"167 508 CURVE SMOOTH",
"167 195 LINE SMOOTH",
"167 167 OFFCURVE",
"190 148 OFFCURVE",
"206 142 CURVE",
"213 139 OFFCURVE",
"219 137 OFFCURVE",
"222 137 CURVE"
);
}
);
width = 500;
}
);
unicode = 0051;
},
{
glyphname = R;
layers = (
{
layerId = "2EFD55B3-2F90-4AA8-864A-7457E925C2F5";
name = Regular;
paths = (
{
closed = 1;
nodes = (
"32 700 LINE",
"173 700 LINE",
"173 0 LINE",
"32 0 LINE"
);
},
{
closed = 1;
nodes = (
"227 411 LINE",
"240 411 LINE SMOOTH",
"297 411 OFFCURVE",
"326 444 OFFCURVE",
"326 488 CURVE SMOOTH",
"326 535 OFFCURVE",
"289 567 OFFCURVE",
"240 567 CURVE SMOOTH",
"227 567 LINE",
"227 700 LINE",
"372 700 OFFCURVE",
"453 620 OFFCURVE",
"453 496 CURVE SMOOTH",
"453 428 OFFCURVE",
"431 380 OFFCURVE",
"386 352 CURVE",
"421 325 OFFCURVE",
"448 268 OFFCURVE",
"452 217 CURVE SMOOTH",
"469 0 LINE",
"343 0 LINE",
"328 178 LINE SMOOTH",
"321 258 OFFCURVE",
"298 285 OFFCURVE",
"227 286 CURVE"
);
}
);
width = 495;
}
);
unicode = 0052;
},
{
glyphname = S;
layers = (
{
layerId = "2EFD55B3-2F90-4AA8-864A-7457E925C2F5";
name = Regular;
paths = (
{
closed = 1;
nodes = (
"216 -3 LINE",
"116 -3 OFFCURVE",
"34 93 OFFCURVE",
"33 158 CURVE",
"160 203 LINE",
"161 170 OFFCURVE",
"185 142 OFFCURVE",
"202 134 CURVE SMOOTH",
"216 127 LINE"
);
},
{
closed = 1;
nodes = (
"271 700 LINE",
"320 700 OFFCURVE",
"368 673 OFFCURVE",
"397 640 CURVE SMOOTH",
"425 607 OFFCURVE",
"442 573 OFFCURVE",
"446 553 CURVE",
"316 510 LINE",
"313 538 OFFCURVE",
"294 559 OFFCURVE",
"281 564 CURVE SMOOTH",
"271 568 LINE"
);
},
{
closed = 1;
nodes = (
"216 568 LINE",
"195 561 OFFCURVE",
"175 537 OFFCURVE",
"175 513 CURVE SMOOTH",
"175 473 OFFCURVE",
"209 450 OFFCURVE",
"276 425 CURVE SMOOTH",
"343 400 OFFCURVE",
"368 383 OFFCURVE",
"393 364 CURVE",
"417 344 OFFCURVE",
"450 315 OFFCURVE",
"464 275 CURVE SMOOTH",
"471 255 OFFCURVE",
"474 233 OFFCURVE",
"474 209 CURVE SMOOTH",
"474 96 OFFCURVE",
"379 -3 OFFCURVE",
"271 -3 CURVE",
"271 127 LINE",
"302 131 OFFCURVE",
"333 155 OFFCURVE",
"333 203 CURVE SMOOTH",
"333 238 OFFCURVE",
"301 267 OFFCURVE",
"272 280 CURVE SMOOTH",
"257 287 OFFCURVE",
"238 294 OFFCURVE",
"214 303 CURVE SMOOTH",
"190 312 OFFCURVE",
"173 318 OFFCURVE",
"164 323 CURVE",
"84 362 OFFCURVE",
"41 411 OFFCURVE",
"41 508 CURVE SMOOTH",
"41 573 OFFCURVE",
"71 628 OFFCURVE",
"110 657 CURVE SMOOTH",
"149 685 OFFCURVE",
"187 700 OFFCURVE",
"216 700 CURVE"
);
}
);
width = 497;
}
);
unicode = 0053;
},
{
glyphname = T;
layers = (
{
layerId = "2EFD55B3-2F90-4AA8-864A-7457E925C2F5";
name = Regular;
paths = (
{
closed = 1;
nodes = (
"459 700 LINE",
"459 562 LINE",
"313 562 LINE",
"313 0 LINE",
"172 0 LINE",
"172 562 LINE",
"26 562 LINE",
"26 700 LINE"
);
}
);
width = 485;
}
);
leftKerningGroup = T;
rightKerningGroup = F;
unicode = 0054;
},
{
glyphname = U;
layers = (
{
layerId = "2EFD55B3-2F90-4AA8-864A-7457E925C2F5";
name = Regular;
paths = (
{
closed = 1;
nodes = (
"283 137 LINE",
"286 137 OFFCURVE",
"292 138 OFFCURVE",
"300 141 CURVE",
"315 146 OFFCURVE",
"339 165 OFFCURVE",
"339 193 CURVE SMOOTH",
"339 700 LINE",
"479 700 LINE",
"479 193 LINE SMOOTH",
"479 125 OFFCURVE",
"447 68 OFFCURVE",
"404 39 CURVE SMOOTH",
"360 10 OFFCURVE",
"316 -5 OFFCURVE",
"283 -5 CURVE"
);
},
{
closed = 1;
nodes = (
"229 -5 LINE",
"204 -5 OFFCURVE",
"170 3 OFFCURVE",
"134 24 CURVE SMOOTH",
"97 44 OFFCURVE",
"67 72 OFFCURVE",
"47 118 CURVE SMOOTH",
"37 141 OFFCURVE",
"32 166 OFFCURVE",
"32 193 CURVE SMOOTH",
"32 700 LINE",
"173 700 LINE",
"173 193 LINE SMOOTH",
"173 165 OFFCURVE",
"197 146 OFFCURVE",
"213 141 CURVE",
"220 138 OFFCURVE",
"226 137 OFFCURVE",
"229 137 CURVE"
);
}
);
width = 512;
}
);
unicode = 0055;
},
{
glyphname = V;
layers = (
{
layerId = "2EFD55B3-2F90-4AA8-864A-7457E925C2F5";
name = Regular;
paths = (
{
closed = 1;
nodes = (
"482 700 LINE",
"470 661 OFFCURVE",
"457 620 OFFCURVE",
"444 575 CURVE SMOOTH",
"431 530 OFFCURVE",
"416 479 OFFCURVE",
"399 422 CURVE SMOOTH",
"382 365 OFFCURVE",
"368 321 OFFCURVE",
"359 290 CURVE",
"349 290 LINE",
"283 514 LINE",
"338 700 LINE"
);
},
{
closed = 1;
nodes = (
"26 700 LINE",
"170 700 LINE",
"329 158 LINE",
"276 0 LINE",
"229 0 LINE"
);
}
);
width = 508;
}
);
leftKerningGroup = T;
rightKerningGroup = V;
unicode = 0056;
},
{
glyphname = W;
layers = (
{
layerId = "2EFD55B3-2F90-4AA8-864A-7457E925C2F5";
name = Regular;
paths = (
{
closed = 1;
nodes = (
"699 700 LINE",
"576 290 LINE",
"566 290 LINE",
"500 514 LINE",
"555 700 LINE"
);
},
{
closed = 1;
nodes = (
"239 700 LINE",
"383 700 LINE",
"541 158 LINE",
"489 0 LINE",
"442 0 LINE"
);
},
{
closed = 1;
nodes = (
"26 700 LINE",
"170 700 LINE",
"328 158 LINE",
"276 0 LINE",
"229 0 LINE"
);
}
);
width = 725;
}
);
leftKerningGroup = T;
rightKerningGroup = V;
unicode = 0057;
},
{
glyphname = X;
layers = (
{
layerId = "2EFD55B3-2F90-4AA8-864A-7457E925C2F5";
name = Regular;
paths = (
{
closed = 1;
nodes = (
"426 700 LINE",
"302 361 LINE",
"438 0 LINE",
"293 0 LINE",
"232 167 LINE",
"171 0 LINE",
"26 0 LINE",
"162 361 LINE",
"38 700 LINE",
"175 700 LINE",
"232 548 LINE",
"289 700 LINE"
);
}
);
width = 464;
}
);
unicode = 0058;
},
{
glyphname = Y;
layers = (
{
layerId = "2EFD55B3-2F90-4AA8-864A-7457E925C2F5";
name = Regular;
paths = (
{
closed = 1;
nodes = (
"269 565 LINE",
"308 700 LINE",
"453 700 LINE",
"344 331 LINE",
"335 331 LINE"
);
},
{
closed = 1;
nodes = (
"26 700 LINE",
"173 700 LINE",
"303 253 LINE",
"303 0 LINE",
"157 0 LINE",
"157 252 LINE"
);
}
);
width = 479;
}
);
leftKerningGroup = T;
rightKerningGroup = F;
unicode = 0059;
},
{
glyphname = Z;
layers = (
{
layerId = "2EFD55B3-2F90-4AA8-864A-7457E925C2F5";
name = Regular;
paths = (
{
closed = 1;
nodes = (
"182 144 LINE",
"392 144 LINE",
"392 0 LINE",
"26 0 LINE",
"26 141 LINE",
"236 560 LINE",
"26 560 LINE",
"26 700 LINE",
"392 700 LINE",
"392 563 LINE"
);
}
);
width = 418;
}
);
unicode = 005A;
},
{
glyphname = bracketleft;
layers = (
{
layerId = "2EFD55B3-2F90-4AA8-864A-7457E925C2F5";
name = Regular;
paths = (
{
closed = 1;
nodes = (
"244 739 LINE",
"244 629 LINE",
"183 629 LINE",
"180 74 LINE",
"244 74 LINE",
"244 -36 LINE",
"50 -36 LINE",
"50 739 LINE"
);
}
);
width = 258;
}
);
unicode = 005B;
},
{
glyphname = backslash;
layers = (
{
layerId = "2EFD55B3-2F90-4AA8-864A-7457E925C2F5";
name = Regular;
paths = (
{
closed = 1;
nodes = (
"351 -23 LINE",
"224 -23 LINE",
"50 716 LINE",
"176 716 LINE"
);
}
);
width = 402;
}
);
unicode = 005C;
},
{
glyphname = bracketright;
layers = (
{
layerId = "2EFD55B3-2F90-4AA8-864A-7457E925C2F5";
name = Regular;
paths = (
{
closed = 1;
nodes = (
"14 739 LINE",
"208 739 LINE",
"208 -36 LINE",
"14 -36 LINE",
"14 74 LINE",
"78 74 LINE",
"75 629 LINE",
"14 629 LINE"
);
}
);
width = 258;
}
);
unicode = 005D;
},
{
glyphname = asciicircum;
layers = (
{
layerId = "2EFD55B3-2F90-4AA8-864A-7457E925C2F5";
name = Regular;
paths = (
{
closed = 1;
nodes = (
"27 460 LINE",
"176 756 LINE",
"264 756 LINE",
"413 460 LINE",
"290 460 LINE",
"219 603 LINE",
"149 460 LINE"
);
}
);
width = 374;
}
);
unicode = 005E;
},
{
glyphname = underscore;
layers = (
{
layerId = "2EFD55B3-2F90-4AA8-864A-7457E925C2F5";
name = Regular;
paths = (
{
closed = 1;
nodes = (
"480 -205 LINE",
"30 -205 LINE",
"30 -98 LINE",
"480 -98 LINE"
);
}
);
width = 510;
}
);
unicode = 005F;
},
{
glyphname = grave;
layers = (
{
layerId = "2EFD55B3-2F90-4AA8-864A-7457E925C2F5";
name = Regular;
paths = (
{
closed = 1;
nodes = (
"122 605 LINE",
"49 757 LINE",
"176 757 LINE",
"213 605 LINE"
);
}
);
width = 263;
}
);
unicode = 0060;
},
{
glyphname = a;
layers = (
{
layerId = "2EFD55B3-2F90-4AA8-864A-7457E925C2F5";
name = Regular;
paths = (
{
closed = 1;
nodes = (
"181 407 LINE",
"178 407 LINE",
"151 405 OFFCURVE",
"138 387 OFFCURVE",
"138 353 CURVE SMOOTH",
"138 349 LINE",
"33 389 LINE",
"33 391 LINE SMOOTH",
"33 459 OFFCURVE",
"107 519 OFFCURVE",
"178 519 CURVE SMOOTH",
"181 519 LINE"
);
},
{
closed = 1;
nodes = (
"228 519 LINE",
"231 519 LINE SMOOTH",
"323 519 OFFCURVE",
"384 436 OFFCURVE",
"384 380 CURVE SMOOTH",
"384 143 LINE SMOOTH",
"384 124 OFFCURVE",
"392 114 OFFCURVE",
"407 114 CURVE SMOOTH",
"410 114 LINE",
"410 1 LINE",
"407 1 LINE SMOOTH",
"372 1 OFFCURVE",
"344 11 OFFCURVE",
"321 30 CURVE",
"296 11 OFFCURVE",
"267 1 OFFCURVE",
"232 1 CURVE SMOOTH",
"229 1 LINE",
"229 113 LINE",
"232 113 LINE SMOOTH",
"249 113 OFFCURVE",
"262 129 OFFCURVE",
"266 139 CURVE",
"267 144 OFFCURVE",
"268 147 OFFCURVE",
"268 149 CURVE SMOOTH",
"268 227 LINE",
"253 218 OFFCURVE",
"229 209 OFFCURVE",
"194 199 CURVE SMOOTH",
"159 189 OFFCURVE",
"140 184 OFFCURVE",
"139 183 CURVE",
"131 179 OFFCURVE",
"127 172 OFFCURVE",
"127 162 CURVE SMOOTH",
"127 149 LINE SMOOTH",
"127 125 OFFCURVE",
"139 113 OFFCURVE",
"163 113 CURVE SMOOTH",
"180 113 LINE",
"180 1 LINE",
"88 1 OFFCURVE",
"26 60 OFFCURVE",
"26 121 CURVE SMOOTH",
"26 167 LINE SMOOTH",
"26 250 OFFCURVE",
"73 261 OFFCURVE",
"142 283 CURVE SMOOTH",
"176 294 OFFCURVE",
"206 305 OFFCURVE",
"231 316 CURVE SMOOTH",
"256 327 OFFCURVE",
"268 339 OFFCURVE",
"268 351 CURVE SMOOTH",
"268 363 LINE SMOOTH",
"268 391 OFFCURVE",
"263 404 OFFCURVE",
"231 407 CURVE",
"228 408 LINE"
);
}
);
width = 435;
}
);
leftKerningGroup = a;
unicode = 0061;
},
{
glyphname = b;
layers = (
{
layerId = "2EFD55B3-2F90-4AA8-864A-7457E925C2F5";
name = Regular;
paths = (
{
closed = 1;
nodes = (
"270 373 LINE SMOOTH",
"270 374 OFFCURVE",
"269 377 OFFCURVE",
"268 380 CURVE",
"264 387 OFFCURVE",
"253 398 OFFCURVE",
"237 398 CURVE SMOOTH",
"203 398 LINE",
"203 516 LINE",
"236 516 LINE SMOOTH",
"327 516 OFFCURVE",
"387 434 OFFCURVE",
"388 377 CURVE SMOOTH",
"388 141 LINE SMOOTH",
"388 84 OFFCURVE",
"328 0 OFFCURVE",
"236 0 CURVE SMOOTH",
"203 0 LINE",
"203 118 LINE",
"236 118 LINE SMOOTH",
"252 118 OFFCURVE",
"264 129 OFFCURVE",
"268 136 CURVE",
"269 139 OFFCURVE",
"270 142 OFFCURVE",
"270 143 CURVE SMOOTH"
);
},
{
closed = 1;
nodes = (
"30 0 LINE",
"30 699 LINE",
"155 699 LINE",
"155 0 LINE"
);
}
);
width = 414;
}
);
unicode = 0062;
},
{
glyphname = c;
layers = (
{
layerId = "2EFD55B3-2F90-4AA8-864A-7457E925C2F5";
name = Regular;
paths = (
{
closed = 1;
nodes = (
"30 377 LINE SMOOTH",
"31 434 OFFCURVE",
"92 516 OFFCURVE",
"185 516 CURVE SMOOTH",
"191 516 LINE",
"191 400 LINE",
"185 400 LINE SMOOTH",
"166 400 OFFCURVE",
"154 390 OFFCURVE",
"151 383 CURVE",
"150 380 OFFCURVE",
"149 377 OFFCURVE",
"149 375 CURVE SMOOTH",
"149 141 LINE SMOOTH",
"149 139 OFFCURVE",
"150 136 OFFCURVE",
"152 133 CURVE",
"155 126 OFFCURVE",
"170 115 OFFCURVE",
"194 115 CURVE",
"199 114 LINE",
"199 0 LINE",
"194 0 LINE SMOOTH",
"139 0 OFFCURVE",
"93 23 OFFCURVE",
"69 54 CURVE SMOOTH",
"44 85 OFFCURVE",
"30 117 OFFCURVE",
"30 141 CURVE SMOOTH"
);
},
{
closed = 1;
nodes = (
"243 -1 LINE",
"243 116 LINE",
"249 116 LINE SMOOTH",
"250 116 OFFCURVE",
"253 116 OFFCURVE",
"256 117 CURVE",
"263 118 OFFCURVE",
"274 124 OFFCURVE",
"277 132 CURVE",
"280 137 OFFCURVE",
"281 145 OFFCURVE",
"281 156 CURVE SMOOTH",
"281 186 LINE",
"392 144 LINE",
"392 140 LINE SMOOTH",
"392 68 OFFCURVE",
"323 -1 OFFCURVE",
"250 -1 CURVE SMOOTH"
);
},
{
closed = 1;
nodes = (
"263 391 OFFCURVE",
"252 397 OFFCURVE",
"244 398 CURVE",
"239 399 LINE",
"236 399 LINE",
"233 399 LINE",
"233 516 LINE",
"239 516 LINE SMOOTH",
"312 516 OFFCURVE",
"381 448 OFFCURVE",
"381 376 CURVE SMOOTH",
"381 372 LINE",
"270 330 LINE",
"270 360 LINE SMOOTH",
"270 370 OFFCURVE",
"269 378 OFFCURVE",
"266 383 CURVE"
);
}
);
width = 418;
}
);
leftKerningGroup = a;
unicode = 0063;
},
{
glyphname = d;
layers = (
{
layerId = "2EFD55B3-2F90-4AA8-864A-7457E925C2F5";
name = Regular;
paths = (
{
closed = 1;
nodes = (
"384 0 LINE",
"258 0 LINE",
"258 698 LINE",
"384 698 LINE"
);
},
{
closed = 1;
nodes = (
"210 516 LINE",
"210 398 LINE",
"180 398 LINE SMOOTH",
"164 398 OFFCURVE",
"153 387 OFFCURVE",
"150 380 CURVE",
"149 377 OFFCURVE",
"148 374 OFFCURVE",
"148 373 CURVE SMOOTH",
"148 143 LINE SMOOTH",
"148 142 OFFCURVE",
"149 139 OFFCURVE",
"151 136 CURVE",
"154 128 OFFCURVE",
"165 118 OFFCURVE",
"182 118 CURVE SMOOTH",
"210 118 LINE",
"210 0 LINE",
"182 0 LINE SMOOTH",
"89 0 OFFCURVE",
"30 84 OFFCURVE",
"30 141 CURVE SMOOTH",
"30 377 LINE SMOOTH",
"31 434 OFFCURVE",
"89 516 OFFCURVE",
"180 516 CURVE SMOOTH"
);
}
);
width = 414;
}
);
leftKerningGroup = a;
unicode = 0064;
},
{
glyphname = e;
layers = (
{
layerId = "2EFD55B3-2F90-4AA8-864A-7457E925C2F5";
name = Regular;
paths = (
{
closed = 1;
nodes = (
"236 0 LINE",
"236 111 LINE",
"242 111 LINE SMOOTH",
"271 112 OFFCURVE",
"294 132 OFFCURVE",
"298 153 CURVE",
"299 157 LINE",
"398 120 LINE",
"397 118 LINE",
"382 54 OFFCURVE",
"311 0 OFFCURVE",
"242 0 CURVE SMOOTH"
);
},
{
closed = 1;
nodes = (
"236 402 LINE",
"236 516 LINE",
"242 516 LINE SMOOTH",
"314 516 OFFCURVE",
"397 447 OFFCURVE",
"397 378 CURVE SMOOTH",
"397 208 LINE",
"148 208 LINE",
"148 141 LINE SMOOTH",
"148 139 OFFCURVE",
"149 136 OFFCURVE",
"151 131 CURVE",
"154 122 OFFCURVE",
"166 108 OFFCURVE",
"183 108 CURVE SMOOTH",
"188 108 LINE",
"188 0 LINE",
"183 0 LINE SMOOTH",
"90 0 OFFCURVE",
"26 84 OFFCURVE",
"26 141 CURVE SMOOTH",
"26 377 LINE SMOOTH",
"27 434 OFFCURVE",
"90 516 OFFCURVE",
"182 516 CURVE SMOOTH",
"187 516 LINE",
"187 400 LINE",
"184 400 LINE SMOOTH",
"159 400 OFFCURVE",
"148 384 OFFCURVE",
"148 369 CURVE SMOOTH",
"148 324 LINE",
"283 324 LINE",
"283 369 LINE SMOOTH",
"283 391 OFFCURVE",
"269 402 OFFCURVE",
"240 402 CURVE SMOOTH"
);
}
);
width = 424;
}
);
leftKerningGroup = a;
unicode = 0065;
},
{
glyphname = f;
layers = (
{
layerId = "2EFD55B3-2F90-4AA8-864A-7457E925C2F5";
name = Regular;
paths = (
{
closed = 1;
nodes = (
"89 552 LINE SMOOTH",
"89 609 OFFCURVE",
"151 695 OFFCURVE",
"243 696 CURVE SMOOTH",
"304 696 LINE",
"277 579 LINE",
"244 579 LINE SMOOTH",
"227 579 OFFCURVE",
"216 568 OFFCURVE",
"213 561 CURVE",
"212 557 OFFCURVE",
"211 554 OFFCURVE",
"211 552 CURVE SMOOTH",
"211 515 LINE",
"277 516 LINE",
"277 400 LINE",
"211 400 LINE",
"211 0 LINE",
"89 0 LINE",
"89 400 LINE",
"26 400 LINE",
"26 516 LINE",
"89 516 LINE"
);
}
);
width = 304;
}
);
rightKerningGroup = f;
unicode = 0066;
},
{
glyphname = g;
layers = (
{
layerId = "2EFD55B3-2F90-4AA8-864A-7457E925C2F5";
name = Regular;
paths = (
{
closed = 1;
nodes = (
"192 516 LINE",
"192 403 LINE",
"189 403 LINE SMOOTH",
"170 403 OFFCURVE",
"156 392 OFFCURVE",
"153 384 CURVE",
"151 380 OFFCURVE",
"150 377 OFFCURVE",
"150 375 CURVE SMOOTH",
"150 140 LINE SMOOTH",
"150 138 OFFCURVE",
"151 135 OFFCURVE",
"153 131 CURVE SMOOTH",
"157 123 OFFCURVE",
"170 112 OFFCURVE",
"189 112 CURVE SMOOTH",
"192 112 LINE",
"192 -1 LINE",
"189 -1 LINE SMOOTH",
"96 -1 OFFCURVE",
"35 83 OFFCURVE",
"35 139 CURVE SMOOTH",
"35 378 LINE SMOOTH",
"36 435 OFFCURVE",
"96 516 OFFCURVE",
"189 516 CURVE SMOOTH"
);
},
{
closed = 1;
nodes = (
"26 -181 LINE",
"54 -69 LINE",
"234 -69 LINE SMOOTH",
"253 -69 OFFCURVE",
"266 -57 OFFCURVE",
"270 -49 CURVE",
"271 -45 OFFCURVE",
"272 -42 OFFCURVE",
"272 -40 CURVE SMOOTH",
"272 3 LINE",
"261 0 OFFCURVE",
"249 -1 OFFCURVE",
"234 -1 CURVE SMOOTH",
"231 -1 LINE",
"231 109 LINE",
"234 109 LINE SMOOTH",
"253 109 OFFCURVE",
"266 122 OFFCURVE",
"270 130 CURVE",
"271 134 OFFCURVE",
"272 137 OFFCURVE",
"272 139 CURVE SMOOTH",
"272 374 LINE SMOOTH",
"272 376 OFFCURVE",
"271 379 OFFCURVE",
"270 383 CURVE",
"266 391 OFFCURVE",
"253 403 OFFCURVE",
"234 403 CURVE SMOOTH",
"231 403 LINE",
"231 516 LINE",
"234 516 LINE SMOOTH",
"247 516 OFFCURVE",
"260 514 OFFCURVE",
"272 511 CURVE",
"272 516 LINE",
"389 516 LINE",
"389 -40 LINE SMOOTH",
"389 -96 OFFCURVE",
"328 -180 OFFCURVE",
"236 -181 CURVE SMOOTH"
);
}
);
width = 415;
}
);
leftKerningGroup = a;
unicode = 0067;
},
{
glyphname = h;
layers = (
{
layerId = "2EFD55B3-2F90-4AA8-864A-7457E925C2F5";
name = Regular;
paths = (
{
closed = 1;
nodes = (
"238 511 LINE",
"241 511 LINE",
"334 507 OFFCURVE",
"395 447 OFFCURVE",
"395 374 CURVE SMOOTH",
"395 1 LINE",
"281 1 LINE",
"281 365 LINE SMOOTH",
"281 368 OFFCURVE",
"280 371 OFFCURVE",
"279 375 CURVE",
"275 383 OFFCURVE",
"261 398 OFFCURVE",
"241 399 CURVE",
"238 399 LINE"
);
},
{
closed = 1;
nodes = (
"145 1 LINE",
"30 1 LINE",
"30 698 LINE",
"144 698 LINE",
"144 505 LINE",
"147 506 LINE",
"160 509 OFFCURVE",
"175 511 OFFCURVE",
"190 511 CURVE SMOOTH",
"193 511 LINE",
"193 399 LINE",
"190 399 LINE",
"171 398 OFFCURVE",
"154 384 OFFCURVE",
"149 375 CURVE SMOOTH",
"146 370 OFFCURVE",
"145 367 OFFCURVE",
"145 365 CURVE SMOOTH"
);
}
);
width = 421;
}
);
unicode = 0068;
},
{
glyphname = i;
layers = (
{
layerId = "2EFD55B3-2F90-4AA8-864A-7457E925C2F5";
name = Regular;
paths = (
{
closed = 1;
nodes = (
"161 0 LINE",
"39 0 LINE",
"39 516 LINE",
"161 516 LINE"
);
},
{
closed = 1;
nodes = (
"172 591 OFFCURVE",
"139 558 OFFCURVE",
"99 558 CURVE SMOOTH",
"59 558 OFFCURVE",
"26 591 OFFCURVE",
"26 630 CURVE SMOOTH",
"26 670 OFFCURVE",
"59 703 OFFCURVE",
"99 703 CURVE SMOOTH",
"139 703 OFFCURVE",
"172 670 OFFCURVE",
"172 630 CURVE SMOOTH"
);
}
);
width = 199;
}
);
unicode = 0069;
},
{
glyphname = j;
layers = (
{
layerId = "2EFD55B3-2F90-4AA8-864A-7457E925C2F5";
name = Regular;
paths = (
{
closed = 1;
nodes = (
"163 665 OFFCURVE",
"170 648 OFFCURVE",
"170 628 CURVE SMOOTH",
"170 588 OFFCURVE",
"137 556 OFFCURVE",
"97 556 CURVE SMOOTH",
"57 556 OFFCURVE",
"24 588 OFFCURVE",
"24 628 CURVE SMOOTH",
"24 668 OFFCURVE",
"57 702 OFFCURVE",
"97 702 CURVE SMOOTH",
"117 702 OFFCURVE",
"134 695 OFFCURVE",
"149 680 CURVE SMOOTH"
);
},
{
closed = 1;
nodes = (
"159 -38 LINE SMOOTH",
"159 -97 OFFCURVE",
"99 -181 OFFCURVE",
"7 -181 CURVE SMOOTH",
"-50 -181 LINE",
"-23 -64 LINE",
"4 -64 LINE SMOOTH",
"21 -64 OFFCURVE",
"32 -53 OFFCURVE",
"35 -45 CURVE",
"36 -42 OFFCURVE",
"37 -39 OFFCURVE",
"37 -38 CURVE SMOOTH",
"37 516 LINE",
"159 516 LINE"
);
}
);
width = 194;
}
);
unicode = 006A;
},
{
glyphname = k;
layers = (
{
layerId = "2EFD55B3-2F90-4AA8-864A-7457E925C2F5";
name = Regular;
paths = (
{
closed = 1;
nodes = (
"296 0 LINE",
"183 257 LINE",
"295 514 LINE",
"428 514 LINE",
"313 257 LINE",
"428 0 LINE"
);
},
{
closed = 1;
nodes = (
"155 0 LINE",
"30 0 LINE",
"30 698 LINE",
"155 698 LINE"
);
}
);
width = 452;
}
);
unicode = 006B;
},
{
glyphname = l;
layers = (
{
layerId = "2EFD55B3-2F90-4AA8-864A-7457E925C2F5";
name = Regular;
paths = (
{
closed = 1;
nodes = (
"161 0 LINE",
"30 0 LINE",
"30 698 LINE",
"161 698 LINE"
);
}
);
width = 184;
}
);
unicode = 006C;
},
{
glyphname = m;
layers = (
{
layerId = "2EFD55B3-2F90-4AA8-864A-7457E925C2F5";
name = Regular;
paths = (
{
closed = 1;
nodes = (
"280 0 LINE",
"280 372 LINE SMOOTH",
"280 374 OFFCURVE",
"279 377 OFFCURVE",
"278 381 CURVE",
"274 388 OFFCURVE",
"260 398 OFFCURVE",
"243 398 CURVE SMOOTH",
"237 398 LINE",
"237 519 LINE",
"243 519 LINE SMOOTH",
"280 519 OFFCURVE",
"313 508 OFFCURVE",
"342 486 CURVE",
"369 508 OFFCURVE",
"402 519 OFFCURVE",
"441 519 CURVE SMOOTH",
"447 519 LINE",
"447 398 LINE",
"441 398 LINE SMOOTH",
"422 398 OFFCURVE",
"410 387 OFFCURVE",
"407 380 CURVE",
"405 377 OFFCURVE",
"404 374 OFFCURVE",
"404 372 CURVE SMOOTH",
"404 0 LINE"
);
},
{
closed = 1;
nodes = (
"530 372 LINE SMOOTH",
"530 374 OFFCURVE",
"529 377 OFFCURVE",
"528 381 CURVE",
"524 388 OFFCURVE",
"511 398 OFFCURVE",
"494 398 CURVE SMOOTH",
"488 398 LINE",
"488 519 LINE",
"494 519 LINE SMOOTH",
"589 519 OFFCURVE",
"654 434 OFFCURVE",
"654 377 CURVE SMOOTH",
"654 0 LINE",
"530 0 LINE"
);
},
{
closed = 1;
nodes = (
"154 0 LINE",
"30 0 LINE",
"30 377 LINE SMOOTH",
"30 437 OFFCURVE",
"94 519 OFFCURVE",
"189 519 CURVE SMOOTH",
"195 519 LINE",
"195 398 LINE",
"189 398 LINE SMOOTH",
"172 398 OFFCURVE",
"159 387 OFFCURVE",
"156 380 CURVE",
"155 377 OFFCURVE",
"154 374 OFFCURVE",
"154 372 CURVE SMOOTH"
);
}
);
width = 684;
}
);
unicode = 006D;
},
{
glyphname = n;
layers = (
{
layerId = "2EFD55B3-2F90-4AA8-864A-7457E925C2F5";
name = Regular;
paths = (
{
closed = 1;
nodes = (
"154 0 LINE",
"30 0 LINE",
"30 377 LINE SMOOTH",
"30 437 OFFCURVE",
"95 519 OFFCURVE",
"191 519 CURVE SMOOTH",
"196 519 LINE",
"196 398 LINE",
"191 398 LINE SMOOTH",
"172 398 OFFCURVE",
"160 387 OFFCURVE",
"157 380 CURVE",
"155 377 OFFCURVE",
"154 374 OFFCURVE",
"154 372 CURVE SMOOTH"
);
},
{
closed = 1;
nodes = (
"280 372 LINE SMOOTH",
"280 374 OFFCURVE",
"279 377 OFFCURVE",
"278 381 CURVE",
"274 388 OFFCURVE",
"260 398 OFFCURVE",
"243 398 CURVE SMOOTH",
"238 398 LINE",
"238 519 LINE",
"243 519 LINE SMOOTH",
"339 519 OFFCURVE",
"404 434 OFFCURVE",
"404 377 CURVE SMOOTH",
"404 0 LINE",
"280 0 LINE"
);
}
);
width = 434;
}
);
unicode = 006E;
},
{
glyphname = o;
layers = (
{
layerId = "2EFD55B3-2F90-4AA8-864A-7457E925C2F5";
name = Regular;
paths = (
{
closed = 1;
nodes = (
"233 398 LINE",
"233 516 LINE",
"239 516 LINE SMOOTH",
"331 516 OFFCURVE",
"392 433 OFFCURVE",
"392 376 CURVE SMOOTH",
"392 141 LINE SMOOTH",
"392 108 OFFCURVE",
"373 62 OFFCURVE",
"324 26 CURVE SMOOTH",
"299 8 OFFCURVE",
"271 -1 OFFCURVE",
"239 -1 CURVE SMOOTH",
"233 -1 LINE",
"233 117 LINE",
"239 117 LINE",
"266 118 OFFCURVE",
"275 136 OFFCURVE",
"275 152 CURVE SMOOTH",
"275 363 LINE SMOOTH",
"275 386 OFFCURVE",
"263 398 OFFCURVE",
"239 398 CURVE SMOOTH"
);
},
{
closed = 1;
nodes = (
"28 376 LINE SMOOTH",
"28 433 OFFCURVE",
"90 516 OFFCURVE",
"186 516 CURVE SMOOTH",
"192 516 LINE",
"192 398 LINE",
"186 398 LINE SMOOTH",
"157 398 OFFCURVE",
"148 379 OFFCURVE",
"148 363 CURVE SMOOTH",
"148 154 LINE SMOOTH",
"148 129 OFFCURVE",
"161 117 OFFCURVE",
"186 117 CURVE SMOOTH",
"192 117 LINE",
"192 -1 LINE",
"186 -1 LINE SMOOTH",
"90 -1 OFFCURVE",
"28 84 OFFCURVE",
"28 141 CURVE SMOOTH"
);
}
);
width = 420;
}
);
leftKerningGroup = a;
unicode = 006F;
},
{
glyphname = p;
layers = (
{
layerId = "2EFD55B3-2F90-4AA8-864A-7457E925C2F5";
name = Regular;
paths = (
{
closed = 1;
nodes = (
"30 516 LINE",
"155 516 LINE",
"155 -182 LINE",
"30 -182 LINE"
);
},
{
closed = 1;
nodes = (
"203 0 LINE",
"203 118 LINE",
"234 118 LINE",
"262 119 OFFCURVE",
"276 127 OFFCURVE",
"276 143 CURVE SMOOTH",
"276 372 LINE SMOOTH",
"276 385 OFFCURVE",
"257 398 OFFCURVE",
"228 398 CURVE SMOOTH",
"196 398 LINE",
"196 516 LINE",
"228 516 LINE SMOOTH",
"327 516 OFFCURVE",
"396 439 OFFCURVE",
"396 375 CURVE SMOOTH",
"396 139 LINE SMOOTH",
"396 75 OFFCURVE",
"335 0 OFFCURVE",
"232 0 CURVE SMOOTH"
);
}
);
width = 422;
}
);
unicode = 0070;
},
{
glyphname = q;
layers = (
{
layerId = "2EFD55B3-2F90-4AA8-864A-7457E925C2F5";
name = Regular;
paths = (
{
closed = 1;
nodes = (
"385 516 LINE",
"386 -182 LINE",
"262 -182 LINE",
"261 516 LINE"
);
},
{
closed = 1;
nodes = (
"146 143 LINE SMOOTH",
"146 141 OFFCURVE",
"147 139 OFFCURVE",
"148 136 CURVE",
"151 130 OFFCURVE",
"165 118 OFFCURVE",
"188 118 CURVE SMOOTH",
"219 118 LINE",
"219 0 LINE",
"190 0 LINE SMOOTH",
"89 0 OFFCURVE",
"27 80 OFFCURVE",
"26 139 CURVE",
"26 375 LINE SMOOTH",
"26 432 OFFCURVE",
"87 516 OFFCURVE",
"183 516 CURVE SMOOTH",
"214 516 LINE",
"214 398 LINE",
"183 398 LINE SMOOTH",
"164 398 OFFCURVE",
"151 388 OFFCURVE",
"148 381 CURVE",
"147 378 OFFCURVE",
"146 375 OFFCURVE",
"146 373 CURVE SMOOTH"
);
}
);
width = 416;
}
);
leftKerningGroup = a;
unicode = 0071;
},
{
glyphname = r;
layers = (
{
layerId = "2EFD55B3-2F90-4AA8-864A-7457E925C2F5";
name = Regular;
paths = (
{
closed = 1;
nodes = (
"36 516 LINE",
"160 516 LINE",
"160 454 LINE",
"184 486 OFFCURVE",
"233 516 OFFCURVE",
"284 516 CURVE SMOOTH",
"317 516 LINE",
"289 395 LINE",
"222 394 OFFCURVE",
"160 332 OFFCURVE",
"160 271 CURVE SMOOTH",
"160 0 LINE",
"36 0 LINE"
);
}
);
width = 316;
}
);
rightKerningGroup = f;
unicode = 0072;
},
{
glyphname = s;
layers = (
{
layerId = "2EFD55B3-2F90-4AA8-864A-7457E925C2F5";
name = Regular;
paths = (
{
closed = 1;
nodes = (
"182 406 LINE",
"180 406 LINE",
"152 403 OFFCURVE",
"138 389 OFFCURVE",
"138 362 CURVE SMOOTH",
"138 355 OFFCURVE",
"141 348 OFFCURVE",
"147 343 CURVE",
"152 337 OFFCURVE",
"167 330 OFFCURVE",
"192 322 CURVE",
"216 313 OFFCURVE",
"250 305 OFFCURVE",
"294 296 CURVE SMOOTH",
"351 285 OFFCURVE",
"397 237 OFFCURVE",
"397 160 CURVE SMOOTH",
"397 60 OFFCURVE",
"324 -5 OFFCURVE",
"228 -5 CURVE SMOOTH",
"225 -5 LINE",
"225 109 LINE",
"228 109 LINE",
"251 110 OFFCURVE",
"280 124 OFFCURVE",
"280 153 CURVE SMOOTH",
"280 166 OFFCURVE",
"271 177 OFFCURVE",
"252 186 CURVE SMOOTH",
"233 195 OFFCURVE",
"208 203 OFFCURVE",
"177 211 CURVE SMOOTH",
"114 227 OFFCURVE",
"76 243 OFFCURVE",
"48 283 CURVE SMOOTH",
"33 303 OFFCURVE",
"26 332 OFFCURVE",
"26 371 CURVE SMOOTH",
"26 419 OFFCURVE",
"50 461 OFFCURVE",
"83 483 CURVE SMOOTH",
"115 505 OFFCURVE",
"150 517 OFFCURVE",
"179 517 CURVE SMOOTH",
"182 517 LINE"
);
},
{
closed = 1;
nodes = (
"388 374 LINE",
"276 355 LINE",
"276 358 LINE",
"273 382 OFFCURVE",
"254 398 OFFCURVE",
"242 402 CURVE",
"236 403 OFFCURVE",
"231 404 OFFCURVE",
"226 404 CURVE SMOOTH",
"223 404 LINE",
"224 517 LINE",
"227 517 LINE SMOOTH",
"316 517 OFFCURVE",
"388 444 OFFCURVE",
"388 376 CURVE SMOOTH"
);
},
{
closed = 1;
nodes = (
"21 136 LINE",
"133 157 LINE",
"133 154 LINE",
"136 134 OFFCURVE",
"157 112 OFFCURVE",
"181 111 CURVE",
"184 110 LINE",
"184 -5 LINE",
"181 -5 LINE SMOOTH",
"92 -5 OFFCURVE",
"25 65 OFFCURVE",
"22 134 CURVE"
);
}
);
width = 418;
}
);
leftKerningGroup = a;
unicode = 0073;
},
{
glyphname = t;
layers = (
{
layerId = "2EFD55B3-2F90-4AA8-864A-7457E925C2F5";
name = Regular;
paths = (
{
closed = 1;
nodes = (
"271 125 LINE",
"298 0 LINE",
"243 0 LINE SMOOTH",
"128 1 OFFCURVE",
"89 57 OFFCURVE",
"89 168 CURVE SMOOTH",
"89 398 LINE",
"26 398 LINE",
"26 516 LINE",
"89 516 LINE",
"89 700 LINE",
"211 700 LINE",
"211 516 LINE",
"271 516 LINE",
"271 398 LINE",
"211 398 LINE",
"211 159 LINE SMOOTH",
"211 137 OFFCURVE",
"222 126 OFFCURVE",
"244 125 CURVE"
);
}
);
width = 324;
}
);
leftKerningGroup = t;
unicode = 0074;
},
{
glyphname = u;
layers = (
{
layerId = "2EFD55B3-2F90-4AA8-864A-7457E925C2F5";
name = Regular;
paths = (
{
closed = 1;
nodes = (
"30 514 LINE",
"154 514 LINE",
"154 142 LINE SMOOTH",
"154 140 OFFCURVE",
"155 137 OFFCURVE",
"157 134 CURVE",
"160 126 OFFCURVE",
"172 116 OFFCURVE",
"191 116 CURVE SMOOTH",
"196 116 LINE",
"196 -5 LINE",
"191 -5 LINE SMOOTH",
"95 -5 OFFCURVE",
"30 77 OFFCURVE",
"30 137 CURVE SMOOTH"
);
},
{
closed = 1;
nodes = (
"238 116 LINE",
"243 116 LINE SMOOTH",
"262 116 OFFCURVE",
"274 127 OFFCURVE",
"278 134 CURVE",
"279 137 OFFCURVE",
"280 140 OFFCURVE",
"280 142 CURVE SMOOTH",
"280 514 LINE",
"404 514 LINE",
"404 137 LINE SMOOTH",
"404 80 OFFCURVE",
"339 -5 OFFCURVE",
"243 -5 CURVE SMOOTH",
"238 -5 LINE"
);
}
);
width = 434;
}
);
leftKerningGroup = a;
unicode = 0075;
},
{
glyphname = v;
layers = (
{
layerId = "2EFD55B3-2F90-4AA8-864A-7457E925C2F5";
name = Regular;
paths = (
{
closed = 1;
nodes = (
"269 516 LINE",
"400 515 LINE",
"308 208 LINE",
"296 208 LINE",
"232 394 LINE"
);
},
{
closed = 1;
nodes = (
"174 0 LINE",
"16 515 LINE",
"151 516 LINE",
"286 120 LINE",
"243 0 LINE"
);
}
);
width = 400;
}
);
leftKerningGroup = t;
rightKerningGroup = f;
unicode = 0076;
},
{
glyphname = w;
layers = (
{
layerId = "2EFD55B3-2F90-4AA8-864A-7457E925C2F5";
name = Regular;
paths = (
{
closed = 1;
nodes = (
"443 516 LINE",
"569 515 LINE",
"471 208 LINE",
"463 208 LINE",
"407 394 LINE"
);
},
{
closed = 1;
nodes = (
"348 0 LINE",
"190 515 LINE",
"328 516 LINE",
"449 120 LINE",
"412 0 LINE"
);
},
{
closed = 1;
nodes = (
"160 0 LINE",
"8 515 LINE",
"144 516 LINE",
"261 120 LINE",
"222 0 LINE"
);
}
);
width = 577;
}
);
leftKerningGroup = t;
rightKerningGroup = f;
unicode = 0077;
},
{
glyphname = x;
layers = (
{
layerId = "2EFD55B3-2F90-4AA8-864A-7457E925C2F5";
name = Regular;
paths = (
{
closed = 1;
nodes = (
"132 262 LINE",
"22 516 LINE",
"147 516 LINE",
"200 399 LINE",
"252 515 LINE",
"378 515 LINE",
"269 262 LINE",
"382 0 LINE",
"257 0 LINE",
"200 126 LINE",
"143 0 LINE",
"18 0 LINE"
);
}
);
width = 381;
}
);
unicode = 0078;
},
{
glyphname = y;
layers = (
{
layerId = "2EFD55B3-2F90-4AA8-864A-7457E925C2F5";
name = Regular;
paths = (
{
closed = 1;
nodes = (
"251 515 LINE",
"382 514 LINE",
"279 208 LINE",
"267 208 LINE",
"213 393 LINE"
);
},
{
closed = 1;
nodes = (
"118 113 LINE",
"0 514 LINE",
"131 515 LINE",
"188 327 LINE",
"188 328 OFFCURVE",
"188 328 OFFCURVE",
"189 328 CURVE",
"189 328 OFFCURVE",
"189 328 OFFCURVE",
"189 329 CURVE",
"252 111 LINE",
"155 -182 LINE",
"29 -182 LINE"
);
}
);
width = 383;
}
);
rightKerningGroup = f;
unicode = 0079;
},
{
glyphname = z;
layers = (
{
layerId = "2EFD55B3-2F90-4AA8-864A-7457E925C2F5";
name = Regular;
paths = (
{
closed = 1;
nodes = (
"322 400 LINE",
"169 118 LINE",
"322 117 LINE",
"322 0 LINE",
"26 0 LINE",
"26 116 LINE",
"183 394 LINE",
"26 394 LINE",
"26 514 LINE",
"322 514 LINE"
);
}
);
width = 348;
}
);
unicode = 007A;
},
{
glyphname = braceleft;
layers = (
{
layerId = "2EFD55B3-2F90-4AA8-864A-7457E925C2F5";
name = Regular;
paths = (
{
closed = 1;
nodes = (
"307 635 LINE",
"280 635 OFFCURVE",
"265 626 OFFCURVE",
"255 614 CURVE",
"245 601 OFFCURVE",
"241 566 OFFCURVE",
"240 539 CURVE SMOOTH",
"239 525 OFFCURVE",
"239 504 OFFCURVE",
"239 476 CURVE SMOOTH",
"239 473 OFFCURVE",
"239 470 OFFCURVE",
"239 469 CURVE SMOOTH",
"239 383 LINE SMOOTH",
"239 367 OFFCURVE",
"224 355 OFFCURVE",
"195 348 CURVE",
"224 339 OFFCURVE",
"239 324 OFFCURVE",
"239 304 CURVE SMOOTH",
"239 207 LINE SMOOTH",
"239 147 OFFCURVE",
"244 108 OFFCURVE",
"253 89 CURVE SMOOTH",
"262 70 OFFCURVE",
"280 61 OFFCURVE",
"307 61 CURVE",
"307 -38 LINE",
"289 -38 LINE SMOOTH",
"252 -38 OFFCURVE",
"235 -37 OFFCURVE",
"204 -28 CURVE SMOOTH",
"173 -20 OFFCURVE",
"157 1 OFFCURVE",
"139 33 CURVE SMOOTH",
"121 65 OFFCURVE",
"112 120 OFFCURVE",
"112 192 CURVE SMOOTH",
"112 290 LINE SMOOTH",
"112 301 OFFCURVE",
"108 310 OFFCURVE",
"104 315 CURVE SMOOTH",
"100 320 OFFCURVE",
"89 328 OFFCURVE",
"83 332 CURVE",
"80 333 OFFCURVE",
"74 336 OFFCURVE",
"67 340 CURVE",
"60 343 OFFCURVE",
"54 346 OFFCURVE",
"50 348 CURVE",
"53 349 OFFCURVE",
"67 356 OFFCURVE",
"70 357 CURVE",
"73 357 OFFCURVE",
"84 363 OFFCURVE",
"87 365 CURVE",
"88 366 OFFCURVE",
"91 367 OFFCURVE",
"94 369 CURVE SMOOTH",
"97 371 OFFCURVE",
"100 373 OFFCURVE",
"101 375 CURVE",
"102 376 OFFCURVE",
"103 378 OFFCURVE",
"105 381 CURVE",
"109 386 OFFCURVE",
"110 390 OFFCURVE",
"111 397 CURVE",
"112 400 OFFCURVE",
"112 404 OFFCURVE",
"112 408 CURVE SMOOTH",
"112 504 LINE SMOOTH",
"112 605 OFFCURVE",
"130 670 OFFCURVE",
"170 699 CURVE SMOOTH",
"209 728 OFFCURVE",
"244 735 OFFCURVE",
"307 735 CURVE"
);
}
);
width = 407;
}
);
unicode = 007B;
},
{
glyphname = bar;
layers = (
{
layerId = "2EFD55B3-2F90-4AA8-864A-7457E925C2F5";
name = Regular;
paths = (
{
closed = 1;
nodes = (
"50 754 LINE",
"155 754 LINE",
"155 -134 LINE",
"50 -134 LINE"
);
}
);
width = 205;
}
);
unicode = 007C;
},
{
glyphname = braceright;
layers = (
{
layerId = "2EFD55B3-2F90-4AA8-864A-7457E925C2F5";
name = Regular;
paths = (
{
closed = 1;
nodes = (
"100 735 LINE",
"163 735 OFFCURVE",
"198 728 OFFCURVE",
"238 699 CURVE SMOOTH",
"277 670 OFFCURVE",
"295 605 OFFCURVE",
"295 504 CURVE SMOOTH",
"295 408 LINE SMOOTH",
"295 400 OFFCURVE",
"297 393 OFFCURVE",
"298 389 CURVE",
"299 386 OFFCURVE",
"300 384 OFFCURVE",
"302 381 CURVE SMOOTH",
"304 378 OFFCURVE",
"306 376 OFFCURVE",
"307 375 CURVE",
"308 373 OFFCURVE",
"310 371 OFFCURVE",
"313 369 CURVE SMOOTH",
"316 367 OFFCURVE",
"319 366 OFFCURVE",
"320 365 CURVE",
"323 363 OFFCURVE",
"334 357 OFFCURVE",
"337 357 CURVE",
"340 356 OFFCURVE",
"354 349 OFFCURVE",
"357 348 CURVE",
"353 346 OFFCURVE",
"347 343 OFFCURVE",
"340 340 CURVE",
"325 332 OFFCURVE",
"322 331 OFFCURVE",
"313 324 CURVE SMOOTH",
"304 317 OFFCURVE",
"301 313 OFFCURVE",
"298 305 CURVE SMOOTH",
"296 300 OFFCURVE",
"295 295 OFFCURVE",
"295 290 CURVE SMOOTH",
"295 192 LINE SMOOTH",
"295 120 OFFCURVE",
"287 65 OFFCURVE",
"269 33 CURVE SMOOTH",
"251 1 OFFCURVE",
"234 -20 OFFCURVE",
"203 -28 CURVE SMOOTH",
"172 -37 OFFCURVE",
"155 -38 OFFCURVE",
"118 -38 CURVE SMOOTH",
"100 -38 LINE",
"100 61 LINE",
"127 61 OFFCURVE",
"146 71 OFFCURVE",
"155 90 CURVE SMOOTH",
"164 109 OFFCURVE",
"168 148 OFFCURVE",
"168 208 CURVE SMOOTH",
"168 304 LINE SMOOTH",
"168 324 OFFCURVE",
"183 339 OFFCURVE",
"212 348 CURVE",
"183 355 OFFCURVE",
"168 367 OFFCURVE",
"168 383 CURVE SMOOTH",
"168 384 LINE",
"168 469 LINE",
"167 541 OFFCURVE",
"164 585 OFFCURVE",
"158 602 CURVE",
"149 624 OFFCURVE",
"130 635 OFFCURVE",
"100 635 CURVE"
);
}
);
width = 407;
}
);
unicode = 007D;
},
{
glyphname = asciitilde;
layers = (
{
layerId = "2EFD55B3-2F90-4AA8-864A-7457E925C2F5";
name = Regular;
paths = (
{
closed = 1;
nodes = (
"518 281 LINE",
"467 250 OFFCURVE",
"422 235 OFFCURVE",
"381 235 CURVE SMOOTH",
"350 235 OFFCURVE",
"311 247 OFFCURVE",
"266 272 CURVE SMOOTH",
"220 296 OFFCURVE",
"184 308 OFFCURVE",
"157 308 CURVE SMOOTH",
"123 308 OFFCURVE",
"87 296 OFFCURVE",
"50 272 CURVE",
"50 405 LINE",
"91 428 OFFCURVE",
"128 440 OFFCURVE",
"163 440 CURVE SMOOTH",
"192 440 OFFCURVE",
"229 428 OFFCURVE",
"275 404 CURVE SMOOTH",
"320 379 OFFCURVE",
"358 367 OFFCURVE",
"387 367 CURVE SMOOTH",
"425 367 OFFCURVE",
"469 382 OFFCURVE",
"518 412 CURVE"
);
}
);
width = 568;
}
);
unicode = 007E;
},
{
glyphname = exclamdown;
layers = (
{
layerId = "2EFD55B3-2F90-4AA8-864A-7457E925C2F5";
name = Regular;
paths = (
{
closed = 1;
nodes = (
"38 534 LINE",
"167 534 LINE",
"167 0 LINE",
"38 0 LINE"
);
},
{
closed = 1;
nodes = (
"26 688 OFFCURVE",
"60 722 OFFCURVE",
"101 722 CURVE SMOOTH",
"142 722 OFFCURVE",
"176 688 OFFCURVE",
"176 647 CURVE SMOOTH",
"176 604 OFFCURVE",
"142 571 OFFCURVE",
"101 571 CURVE SMOOTH",
"60 571 OFFCURVE",
"26 604 OFFCURVE",
"26 647 CURVE SMOOTH"
);
}
);
width = 210;
}
);
unicode = 00A1;
},
{
glyphname = cent;
layers = (
{
layerId = "2EFD55B3-2F90-4AA8-864A-7457E925C2F5";
name = Regular;
paths = (
{
closed = 1;
nodes = (
"283 136 LINE",
"326 145 OFFCURVE",
"330 170 OFFCURVE",
"330 203 CURVE SMOOTH",
"330 215 LINE",
"468 182 LINE",
"468 107 OFFCURVE",
"419 42 OFFCURVE",
"354 11 CURVE",
"354 -48 LINE",
"283 -48 LINE",
"283 -5 LINE",
"283 86 LINE"
);
},
{
closed = 1;
nodes = (
"283 749 LINE",
"354 749 LINE",
"354 687 LINE",
"419 655 OFFCURVE",
"468 585 OFFCURVE",
"468 516 CURVE",
"330 480 LINE",
"330 495 LINE SMOOTH",
"330 528 OFFCURVE",
"325 539 OFFCURVE",
"311 550 CURVE",
"304 555 OFFCURVE",
"297 559 OFFCURVE",
"292 561 CURVE",
"283 564 LINE",
"283 595 LINE",
"283 705 LINE"
);
},
{
closed = 1;
nodes = (
"158 749 LINE",
"229 749 LINE",
"229 705 LINE",
"229 595 LINE",
"229 564 LINE",
"201 564 OFFCURVE",
"182 544 OFFCURVE",
"177 532 CURVE",
"174 526 OFFCURVE",
"173 521 OFFCURVE",
"173 518 CURVE SMOOTH",
"173 181 LINE SMOOTH",
"173 178 OFFCURVE",
"174 173 OFFCURVE",
"177 167 CURVE",
"182 155 OFFCURVE",
"201 136 OFFCURVE",
"229 136 CURVE",
"229 86 LINE",
"229 -5 LINE",
"229 -48 LINE",
"158 -48 LINE",
"158 7 LINE",
"77 36 OFFCURVE",
"32 121 OFFCURVE",
"32 181 CURVE SMOOTH",
"32 518 LINE SMOOTH",
"32 578 OFFCURVE",
"77 664 OFFCURVE",
"158 693 CURVE"
);
}
);
width = 494;
}
);
unicode = 00A2;
},
{
glyphname = sterling;
layers = (
{
layerId = "2EFD55B3-2F90-4AA8-864A-7457E925C2F5";
name = Regular;
paths = (
{
closed = 1;
nodes = (
"371 520 LINE",
"357 563 OFFCURVE",
"332 584 OFFCURVE",
"297 584 CURVE SMOOTH",
"258 584 OFFCURVE",
"239 562 OFFCURVE",
"239 517 CURVE SMOOTH",
"239 396 LINE",
"378 396 LINE",
"378 289 LINE",
"238 289 LINE",
"238 108 LINE",
"462 108 LINE",
"462 0 LINE",
"106 0 LINE",
"106 288 LINE",
"50 288 LINE",
"50 395 LINE",
"106 395 LINE",
"106 514 LINE SMOOTH",
"106 625 OFFCURVE",
"168 705 OFFCURVE",
"291 705 CURVE SMOOTH",
"293 705 LINE SMOOTH",
"346 705 OFFCURVE",
"398 686 OFFCURVE",
"434 642 CURVE SMOOTH",
"452 619 OFFCURVE",
"464 595 OFFCURVE",
"470 570 CURVE"
);
}
);
width = 520;
}
);
unicode = 00A3;
},
{
glyphname = currency;
layers = (
{
layerId = "2EFD55B3-2F90-4AA8-864A-7457E925C2F5";
name = Regular;
paths = (
{
closed = 1;
nodes = (
"50 540 LINE",
"122 622 LINE",
"198 555 LINE",
"227 582 OFFCURVE",
"262 595 OFFCURVE",
"304 595 CURVE SMOOTH",
"310 595 LINE",
"310 477 LINE",
"304 477 LINE SMOOTH",
"284 477 OFFCURVE",
"271 466 OFFCURVE",
"268 459 CURVE",
"267 456 OFFCURVE",
"266 453 OFFCURVE",
"266 452 CURVE SMOOTH",
"266 276 LINE SMOOTH",
"266 274 OFFCURVE",
"267 271 OFFCURVE",
"269 268 CURVE",
"273 261 OFFCURVE",
"287 251 OFFCURVE",
"304 251 CURVE SMOOTH",
"310 251 LINE",
"310 133 LINE",
"304 133 LINE SMOOTH",
"262 133 OFFCURVE",
"226 147 OFFCURVE",
"197 175 CURVE",
"122 109 LINE",
"51 190 LINE",
"146 275 LINE",
"146 455 LINE",
"146 456 LINE"
);
},
{
closed = 1;
nodes = (
"351 477 LINE",
"351 595 LINE",
"357 595 LINE SMOOTH",
"396 595 OFFCURVE",
"430 582 OFFCURVE",
"459 555 CURVE",
"534 622 LINE",
"606 540 LINE",
"510 456 LINE",
"510 455 LINE",
"510 275 LINE",
"605 190 LINE",
"534 109 LINE",
"460 174 LINE",
"431 147 OFFCURVE",
"397 133 OFFCURVE",
"357 133 CURVE SMOOTH",
"351 133 LINE",
"351 247 LINE",
"357 247 LINE SMOOTH",
"376 247 OFFCURVE",
"388 259 OFFCURVE",
"391 266 CURVE",
"392 269 OFFCURVE",
"393 272 OFFCURVE",
"393 274 CURVE SMOOTH",
"393 451 LINE SMOOTH",
"393 453 OFFCURVE",
"392 456 OFFCURVE",
"391 460 CURVE",
"387 467 OFFCURVE",
"374 477 OFFCURVE",
"357 477 CURVE SMOOTH"
);
}
);
width = 656;
}
);
unicode = 00A4;
},
{
glyphname = yen;
layers = (
{
layerId = "2EFD55B3-2F90-4AA8-864A-7457E925C2F5";
name = Regular;
paths = (
{
closed = 1;
nodes = (
"73 698 LINE",
"210 698 LINE",
"273 485 LINE",
"333 698 LINE",
"470 698 LINE",
"382 408 LINE",
"492 408 LINE",
"492 350 LINE",
"365 350 LINE",
"351 295 LINE",
"492 295 LINE",
"492 236 LINE",
"340 236 LINE",
"340 0 LINE",
"203 0 LINE",
"203 238 LINE",
"50 238 LINE",
"50 295 LINE",
"193 295 LINE",
"177 351 LINE",
"50 351 LINE",
"50 409 LINE",
"162 409 LINE"
);
}
);
width = 542;
}
);
unicode = 00A5;
},
{
glyphname = brokenbar;
layers = (
{
layerId = "2EFD55B3-2F90-4AA8-864A-7457E925C2F5";
name = Regular;
paths = (
{
closed = 1;
nodes = (
"50 221 LINE",
"172 221 LINE",
"172 -134 LINE",
"50 -134 LINE"
);
},
{
closed = 1;
nodes = (
"50 754 LINE",
"172 754 LINE",
"172 399 LINE",
"50 399 LINE"
);
}
);
width = 222;
}
);
unicode = 00A6;
},
{
glyphname = section;
layers = (
{
layerId = "2EFD55B3-2F90-4AA8-864A-7457E925C2F5";
name = Regular;
paths = (
{
closed = 1;
nodes = (
"377 759 LINE",
"377 627 LINE",
"273 627 LINE SMOOTH",
"240 627 OFFCURVE",
"219 607 OFFCURVE",
"219 576 CURVE SMOOTH",
"219 558 OFFCURVE",
"228 542 OFFCURVE",
"246 527 CURVE",
"246 372 LINE",
"226 380 OFFCURVE",
"214 385 OFFCURVE",
"211 386 CURVE SMOOTH",
"208 387 OFFCURVE",
"204 390 OFFCURVE",
"198 393 CURVE SMOOTH",
"192 396 OFFCURVE",
"187 399 OFFCURVE",
"184 400 CURVE",
"173 391 OFFCURVE",
"167 376 OFFCURVE",
"167 357 CURVE SMOOTH",
"167 323 OFFCURVE",
"193 295 OFFCURVE",
"246 272 CURVE",
"246 125 LINE",
"194 147 OFFCURVE",
"163 161 OFFCURVE",
"154 166 CURVE SMOOTH",
"117 187 OFFCURVE",
"96 204 OFFCURVE",
"68 233 CURVE SMOOTH",
"40 262 OFFCURVE",
"26 303 OFFCURVE",
"26 351 CURVE SMOOTH",
"26 412 OFFCURVE",
"50 462 OFFCURVE",
"98 499 CURVE",
"91 518 OFFCURVE",
"88 542 OFFCURVE",
"88 571 CURVE SMOOTH",
"88 658 OFFCURVE",
"137 719 OFFCURVE",
"189 742 CURVE SMOOTH",
"214 753 OFFCURVE",
"240 759 OFFCURVE",
"265 759 CURVE SMOOTH"
);
},
{
closed = 1;
nodes = (
"374 232 OFFCURVE",
"380 247 OFFCURVE",
"380 266 CURVE SMOOTH",
"380 301 OFFCURVE",
"353 329 OFFCURVE",
"300 351 CURVE",
"300 498 LINE",
"353 476 OFFCURVE",
"384 462 OFFCURVE",
"393 457 CURVE SMOOTH",
"430 436 OFFCURVE",
"451 419 OFFCURVE",
"479 390 CURVE SMOOTH",
"507 361 OFFCURVE",
"521 320 OFFCURVE",
"521 272 CURVE SMOOTH",
"521 211 OFFCURVE",
"497 161 OFFCURVE",
"449 124 CURVE",
"456 105 OFFCURVE",
"459 81 OFFCURVE",
"459 52 CURVE SMOOTH",
"459 -35 OFFCURVE",
"410 -96 OFFCURVE",
"359 -119 CURVE SMOOTH",
"333 -130 OFFCURVE",
"307 -136 OFFCURVE",
"282 -136 CURVE SMOOTH",
"170 -136 LINE",
"170 -4 LINE",
"274 -4 LINE SMOOTH",
"307 -4 OFFCURVE",
"328 16 OFFCURVE",
"328 47 CURVE SMOOTH",
"328 66 OFFCURVE",
"319 83 OFFCURVE",
"300 97 CURVE",
"300 252 LINE",
"313 247 OFFCURVE",
"325 242 OFFCURVE",
"336 237 CURVE",
"339 235 OFFCURVE",
"344 233 OFFCURVE",
"350 230 CURVE SMOOTH",
"356 227 OFFCURVE",
"360 224 OFFCURVE",
"363 223 CURVE"
);
}
);
width = 547;
}
);
unicode = 00A7;
},
{
glyphname = dieresis;
layers = (
{
layerId = "2EFD55B3-2F90-4AA8-864A-7457E925C2F5";
name = Regular;
paths = (
{
closed = 1;
nodes = (
"7 639 OFFCURVE",
"0 657 OFFCURVE",
"0 678 CURVE SMOOTH",
"0 721 OFFCURVE",
"34 754 OFFCURVE",
"75 754 CURVE SMOOTH",
"116 754 OFFCURVE",
"150 721 OFFCURVE",
"150 678 CURVE SMOOTH",
"150 635 OFFCURVE",
"116 603 OFFCURVE",
"75 603 CURVE SMOOTH",
"54 603 OFFCURVE",
"37 610 OFFCURVE",
"22 625 CURVE SMOOTH"
);
},
{
closed = 1;
nodes = (
"177 639 OFFCURVE",
"170 657 OFFCURVE",
"170 678 CURVE SMOOTH",
"170 721 OFFCURVE",
"204 754 OFFCURVE",
"245 754 CURVE SMOOTH",
"286 754 OFFCURVE",
"320 721 OFFCURVE",
"320 678 CURVE SMOOTH",
"320 635 OFFCURVE",
"286 603 OFFCURVE",
"245 603 CURVE SMOOTH",
"224 603 OFFCURVE",
"207 610 OFFCURVE",
"192 625 CURVE SMOOTH"
);
}
);
width = 320;
}
);
unicode = 00A8;
},
{
glyphname = copyright;
layers = (
{
layerId = "2EFD55B3-2F90-4AA8-864A-7457E925C2F5";
name = Regular;
paths = (
{
closed = 1;
nodes = (
"447 44 LINE",
"594 51 OFFCURVE",
"717 180 OFFCURVE",
"720 332 CURVE SMOOTH",
"720 339 LINE SMOOTH",
"720 508 OFFCURVE",
"584 635 OFFCURVE",
"447 636 CURVE",
"447 726 LINE",
"523 726 OFFCURVE",
"610 689 OFFCURVE",
"683 627 CURVE SMOOTH",
"756 565 OFFCURVE",
"809 458 OFFCURVE",
"809 339 CURVE SMOOTH",
"809 327 LINE SMOOTH",
"805 184 OFFCURVE",
"723 61 OFFCURVE",
"616 0 CURVE SMOOTH",
"562 -31 OFFCURVE",
"506 -47 OFFCURVE",
"447 -49 CURVE"
);
},
{
closed = 1;
nodes = (
"412 476 LINE",
"395 476 OFFCURVE",
"383 464 OFFCURVE",
"380 456 CURVE",
"378 452 OFFCURVE",
"377 449 OFFCURVE",
"377 447 CURVE SMOOTH",
"377 231 LINE SMOOTH",
"377 229 OFFCURVE",
"378 226 OFFCURVE",
"380 223 CURVE",
"383 215 OFFCURVE",
"395 203 OFFCURVE",
"412 203 CURVE",
"412 112 LINE",
"331 112 OFFCURVE",
"287 180 OFFCURVE",
"287 231 CURVE SMOOTH",
"287 447 LINE SMOOTH",
"287 498 OFFCURVE",
"331 566 OFFCURVE",
"412 566 CURVE"
);
},
{
closed = 1;
nodes = (
"447 201 LINE",
"475 209 OFFCURVE",
"477 224 OFFCURVE",
"477 245 CURVE SMOOTH",
"477 264 LINE",
"565 232 LINE",
"565 171 OFFCURVE",
"506 112 OFFCURVE",
"447 112 CURVE"
);
},
{
closed = 1;
nodes = (
"447 476 LINE",
"447 566 LINE",
"506 566 OFFCURVE",
"565 507 OFFCURVE",
"565 446 CURVE",
"477 413 LINE",
"477 432 LINE SMOOTH",
"477 453 OFFCURVE",
"473 460 OFFCURVE",
"465 467 CURVE",
"460 470 OFFCURVE",
"456 473 OFFCURVE",
"452 474 CURVE"
);
},
{
closed = 1;
nodes = (
"412 -49 LINE",
"295 -45 OFFCURVE",
"181 17 OFFCURVE",
"108 133 CURVE SMOOTH",
"71 191 OFFCURVE",
"52 256 OFFCURVE",
"50 327 CURVE",
"50 339 LINE SMOOTH",
"50 458 OFFCURVE",
"103 565 OFFCURVE",
"176 627 CURVE SMOOTH",
"249 689 OFFCURVE",
"336 726 OFFCURVE",
"412 726 CURVE",
"412 636 LINE",
"275 635 OFFCURVE",
"139 508 OFFCURVE",
"139 339 CURVE SMOOTH",
"139 332 LINE SMOOTH",
"142 180 OFFCURVE",
"265 51 OFFCURVE",
"412 44 CURVE"
);
}
);
width = 859;
}
);
unicode = 00A9;
},
{
glyphname = ordfeminine;
layers = (
{
layerId = "2EFD55B3-2F90-4AA8-864A-7457E925C2F5";
name = Regular;
paths = (
{
closed = 1;
nodes = (
"116 701 LINE",
"119 701 LINE SMOOTH",
"160 701 OFFCURVE",
"188 664 OFFCURVE",
"188 639 CURVE SMOOTH",
"188 535 LINE SMOOTH",
"188 527 OFFCURVE",
"191 523 OFFCURVE",
"197 523 CURVE SMOOTH",
"200 523 LINE",
"200 471 LINE",
"197 471 LINE SMOOTH",
"182 471 OFFCURVE",
"169 475 OFFCURVE",
"159 483 CURVE",
"148 475 OFFCURVE",
"135 471 OFFCURVE",
"120 471 CURVE SMOOTH",
"117 471 LINE",
"117 523 LINE",
"120 523 LINE SMOOTH",
"129 523 OFFCURVE",
"134 528 OFFCURVE",
"134 537 CURVE SMOOTH",
"134 569 LINE",
"127 565 OFFCURVE",
"116 561 OFFCURVE",
"102 558 CURVE",
"87 554 OFFCURVE",
"80 552 OFFCURVE",
"79 551 CURVE",
"76 550 OFFCURVE",
"75 547 OFFCURVE",
"75 543 CURVE SMOOTH",
"75 537 LINE SMOOTH",
"75 528 OFFCURVE",
"80 523 OFFCURVE",
"89 523 CURVE SMOOTH",
"99 523 LINE",
"99 471 LINE",
"97 471 LINE SMOOTH",
"56 471 OFFCURVE",
"28 493 OFFCURVE",
"28 520 CURVE SMOOTH",
"28 551 LINE SMOOTH",
"28 580 OFFCURVE",
"50 588 OFFCURVE",
"80 598 CURVE SMOOTH",
"95 603 OFFCURVE",
"107 607 OFFCURVE",
"118 612 CURVE SMOOTH",
"129 617 OFFCURVE",
"134 621 OFFCURVE",
"134 626 CURVE SMOOTH",
"134 631 LINE SMOOTH",
"134 642 OFFCURVE",
"129 648 OFFCURVE",
"119 649 CURVE",
"116 650 LINE"
);
},
{
closed = 1;
nodes = (
"96 649 LINE",
"85 648 OFFCURVE",
"80 640 OFFCURVE",
"80 627 CURVE SMOOTH",
"80 623 LINE",
"31 642 LINE",
"31 644 LINE SMOOTH",
"31 675 OFFCURVE",
"64 701 OFFCURVE",
"96 701 CURVE SMOOTH",
"99 701 LINE",
"99 649 LINE"
);
},
{
closed = 1;
nodes = (
"26 430 LINE",
"201 430 LINE",
"201 362 LINE",
"26 362 LINE"
);
}
);
width = 227;
}
);
unicode = 00AA;
},
{
glyphname = guillemotleft;
layers = (
{
layerId = "2EFD55B3-2F90-4AA8-864A-7457E925C2F5";
name = Regular;
paths = (
{
closed = 1;
nodes = (
"449 477 LINE",
"449 352 LINE",
"360 292 LINE",
"449 224 LINE",
"449 102 LINE",
"238 259 LINE",
"238 321 LINE"
);
},
{
closed = 1;
nodes = (
"238 477 LINE",
"238 352 LINE",
"149 292 LINE",
"238 224 LINE",
"238 102 LINE",
"27 259 LINE",
"27 321 LINE"
);
}
);
width = 475;
}
);
unicode = 00AB;
},
{
glyphname = logicalnot;
layers = (
{
layerId = "2EFD55B3-2F90-4AA8-864A-7457E925C2F5";
name = Regular;
paths = (
{
closed = 1;
nodes = (
"476 208 LINE",
"358 208 LINE",
"358 327 LINE",
"26 327 LINE",
"26 442 LINE",
"476 442 LINE"
);
}
);
width = 502;
}
);
unicode = 00AC;
},
{
glyphname = uni00AD;
layers = (
{
layerId = "2EFD55B3-2F90-4AA8-864A-7457E925C2F5";
name = Regular;
paths = (
{
closed = 1;
nodes = (
"366 357 LINE",
"366 230 LINE",
"50 230 LINE",
"50 357 LINE"
);
}
);
width = 516;
}
);
unicode = 00AD;
},
{
glyphname = registered;
layers = (
{
layerId = "2EFD55B3-2F90-4AA8-864A-7457E925C2F5";
name = Regular;
paths = (
{
closed = 1;
nodes = (
"151 627 LINE",
"190 627 LINE",
"190 430 LINE",
"151 430 LINE"
);
},
{
closed = 1;
nodes = (
"206 547 LINE",
"210 547 LINE SMOOTH",
"226 547 OFFCURVE",
"234 554 OFFCURVE",
"234 568 CURVE SMOOTH",
"234 583 OFFCURVE",
"226 591 OFFCURVE",
"210 591 CURVE SMOOTH",
"206 591 LINE",
"206 628 LINE",
"247 628 OFFCURVE",
"270 605 OFFCURVE",
"270 570 CURVE SMOOTH",
"270 551 OFFCURVE",
"264 538 OFFCURVE",
"251 530 CURVE",
"262 521 OFFCURVE",
"269 508 OFFCURVE",
"270 492 CURVE",
"270 431 LINE",
"235 431 LINE",
"235 481 LINE SMOOTH",
"235 504 OFFCURVE",
"226 511 OFFCURVE",
"206 511 CURVE"
);
},
{
closed = 1;
nodes = (
"211 396 LINE",
"276 399 OFFCURVE",
"333 457 OFFCURVE",
"334 525 CURVE SMOOTH",
"334 527 LINE SMOOTH",
"334 604 OFFCURVE",
"274 662 OFFCURVE",
"211 662 CURVE",
"211 703 LINE",
"287 702 OFFCURVE",
"374 632 OFFCURVE",
"374 528 CURVE SMOOTH",
"374 523 LINE SMOOTH",
"374 428 OFFCURVE",
"294 357 OFFCURVE",
"211 354 CURVE"
);
},
{
closed = 1;
nodes = (
"192 354 LINE",
"109 355 OFFCURVE",
"30 434 OFFCURVE",
"30 523 CURVE SMOOTH",
"30 525 LINE SMOOTH",
"30 637 OFFCURVE",
"120 703 OFFCURVE",
"193 703 CURVE SMOOTH",
"195 703 LINE",
"195 662 LINE",
"132 662 OFFCURVE",
"70 605 OFFCURVE",
"70 526 CURVE SMOOTH",
"71 457 OFFCURVE",
"126 399 OFFCURVE",
"191 396 CURVE"
);
}
);
width = 404;
}
);
unicode = 00AE;
},
{
glyphname = macron;
layers = (
{
layerId = "2EFD55B3-2F90-4AA8-864A-7457E925C2F5";
name = Regular;
paths = (
{
closed = 1;
nodes = (
"480 712 LINE",
"30 712 LINE",
"30 819 LINE",
"480 819 LINE"
);
}
);
width = 510;
}
);
unicode = 00AF;
},
{
glyphname = degree;
layers = (
{
layerId = "2EFD55B3-2F90-4AA8-864A-7457E925C2F5";
name = Regular;
paths = (
{
closed = 1;
nodes = (
"25 647 OFFCURVE",
"77 698 OFFCURVE",
"140 698 CURVE SMOOTH",
"204 698 OFFCURVE",
"256 647 OFFCURVE",
"256 583 CURVE SMOOTH",
"256 520 OFFCURVE",
"204 468 OFFCURVE",
"140 468 CURVE SMOOTH",
"77 468 OFFCURVE",
"25 520 OFFCURVE",
"25 583 CURVE SMOOTH"
);
},
{
closed = 1;
nodes = (
"106 603 OFFCURVE",
"102 594 OFFCURVE",
"102 583 CURVE SMOOTH",
"102 562 OFFCURVE",
"119 545 OFFCURVE",
"140 545 CURVE SMOOTH",
"161 545 OFFCURVE",
"179 562 OFFCURVE",
"179 583 CURVE SMOOTH",
"179 606 OFFCURVE",
"161 622 OFFCURVE",
"140 622 CURVE SMOOTH",
"129 622 OFFCURVE",
"120 618 OFFCURVE",
"113 611 CURVE"
);
}
);
width = 282;
}
);
unicode = 00B0;
},
{
glyphname = plusminus;
layers = (
{
layerId = "2EFD55B3-2F90-4AA8-864A-7457E925C2F5";
name = Regular;
paths = (
{
closed = 1;
nodes = (
"476 167 LINE",
"476 40 LINE",
"100 40 LINE",
"100 167 LINE"
);
},
{
closed = 1;
nodes = (
"425 518 LINE",
"425 391 LINE",
"300 391 LINE",
"300 248 LINE",
"173 248 LINE",
"173 391 LINE",
"50 391 LINE",
"50 518 LINE",
"173 518 LINE",
"173 659 LINE",
"300 659 LINE",
"300 518 LINE"
);
}
);
width = 575;
}
);
unicode = 00B1;
},
{
glyphname = uni00B2;
layers = (
{
layerId = "2EFD55B3-2F90-4AA8-864A-7457E925C2F5";
name = Regular;
paths = (
{
closed = 1;
nodes = (
"122 639 LINE",
"122 700 LINE",
"129 700 LINE SMOOTH",
"190 700 OFFCURVE",
"219 653 OFFCURVE",
"219 609 CURVE SMOOTH",
"219 578 OFFCURVE",
"205 555 OFFCURVE",
"196 547 CURVE",
"191 543 OFFCURVE",
"183 536 OFFCURVE",
"170 527 CURVE SMOOTH",
"139 505 OFFCURVE",
"119 486 OFFCURVE",
"109 471 CURVE",
"108 469 LINE",
"34 469 LINE",
"37 475 LINE SMOOTH",
"49 500 OFFCURVE",
"70 524 OFFCURVE",
"83 535 CURVE SMOOTH",
"89 540 OFFCURVE",
"96 546 OFFCURVE",
"105 553 CURVE",
"114 559 OFFCURVE",
"118 562 OFFCURVE",
"119 563 CURVE SMOOTH",
"122 566 OFFCURVE",
"128 570 OFFCURVE",
"137 576 CURVE SMOOTH",
"154 587 OFFCURVE",
"159 593 OFFCURVE",
"159 608 CURVE SMOOTH",
"159 628 OFFCURVE",
"148 638 OFFCURVE",
"125 639 CURVE"
);
},
{
closed = 1;
nodes = (
"216 451 LINE",
"216 389 LINE",
"34 389 LINE",
"34 451 LINE"
);
},
{
closed = 1;
nodes = (
"102 638 LINE",
"91 633 OFFCURVE",
"85 623 OFFCURVE",
"85 608 CURVE SMOOTH",
"85 604 LINE",
"26 616 LINE",
"26 619 LINE",
"30 659 OFFCURVE",
"60 695 OFFCURVE",
"101 700 CURVE",
"105 700 LINE",
"105 645 LINE",
"105 638 LINE"
);
}
);
width = 245;
}
);
unicode = 00B2;
},
{
glyphname = uni00B3;
layers = (
{
layerId = "2EFD55B3-2F90-4AA8-864A-7457E925C2F5";
name = Regular;
paths = (
{
closed = 1;
nodes = (
"78 623 LINE",
"26 654 LINE",
"28 657 LINE",
"45 686 OFFCURVE",
"71 701 OFFCURVE",
"104 701 CURVE SMOOTH",
"107 701 LINE",
"107 640 LINE",
"104 640 LINE",
"93 639 OFFCURVE",
"85 635 OFFCURVE",
"80 626 CURVE"
);
},
{
closed = 1;
nodes = (
"129 452 LINE SMOOTH",
"145 452 OFFCURVE",
"157 467 OFFCURVE",
"157 483 CURVE SMOOTH",
"157 508 OFFCURVE",
"149 516 OFFCURVE",
"101 516 CURVE SMOOTH",
"97 516 LINE",
"97 577 LINE",
"101 577 LINE SMOOTH",
"149 577 OFFCURVE",
"157 585 OFFCURVE",
"157 612 CURVE SMOOTH",
"157 631 OFFCURVE",
"143 640 OFFCURVE",
"130 640 CURVE SMOOTH",
"125 640 LINE",
"125 701 LINE",
"128 701 LINE SMOOTH",
"183 700 OFFCURVE",
"219 655 OFFCURVE",
"219 616 CURVE SMOOTH",
"219 582 OFFCURVE",
"211 559 OFFCURVE",
"195 547 CURVE",
"212 532 OFFCURVE",
"221 511 OFFCURVE",
"221 482 CURVE SMOOTH",
"221 430 OFFCURVE",
"172 392 OFFCURVE",
"131 392 CURVE SMOOTH",
"126 392 LINE",
"126 452 LINE"
);
},
{
closed = 1;
nodes = (
"80 467 LINE SMOOTH",
"85 459 OFFCURVE",
"93 455 OFFCURVE",
"104 454 CURVE",
"107 453 LINE",
"107 392 LINE",
"104 392 LINE SMOOTH",
"68 392 OFFCURVE",
"43 407 OFFCURVE",
"28 436 CURVE",
"26 439 LINE",
"78 470 LINE"
);
}
);
width = 247;
}
);
unicode = 00B3;
},
{
glyphname = acute;
layers = (
{
layerId = "2EFD55B3-2F90-4AA8-864A-7457E925C2F5";
name = Regular;
paths = (
{
closed = 1;
nodes = (
"141 605 LINE",
"50 605 LINE",
"87 757 LINE",
"214 757 LINE"
);
}
);
width = 263;
}
);
unicode = 00B4;
},
{
glyphname = mu;
layers = (
{
layerId = "2EFD55B3-2F90-4AA8-864A-7457E925C2F5";
name = Regular;
paths = (
{
closed = 1;
nodes = (
"276 700 LINE",
"400 700 LINE",
"400 698 LINE",
"400 328 LINE SMOOTH",
"400 326 OFFCURVE",
"401 323 OFFCURVE",
"403 320 CURVE",
"406 312 OFFCURVE",
"418 302 OFFCURVE",
"437 302 CURVE SMOOTH",
"442 302 LINE",
"442 181 LINE",
"437 181 LINE SMOOTH",
"400 181 OFFCURVE",
"367 192 OFFCURVE",
"339 213 CURVE",
"310 190 OFFCURVE",
"276 179 OFFCURVE",
"239 179 CURVE SMOOTH",
"234 179 LINE",
"234 300 LINE",
"239 300 LINE SMOOTH",
"258 300 OFFCURVE",
"270 311 OFFCURVE",
"274 318 CURVE",
"275 321 OFFCURVE",
"276 324 OFFCURVE",
"276 326 CURVE SMOOTH",
"276 698 LINE"
);
},
{
closed = 1;
nodes = (
"26 698 LINE",
"150 698 LINE",
"150 356 LINE",
"150 326 LINE SMOOTH",
"150 324 OFFCURVE",
"151 321 OFFCURVE",
"153 318 CURVE",
"156 310 OFFCURVE",
"168 300 OFFCURVE",
"187 300 CURVE SMOOTH",
"192 300 LINE",
"192 179 LINE",
"187 179 LINE SMOOTH",
"173 179 OFFCURVE",
"161 180 OFFCURVE",
"150 183 CURVE",
"150 0 LINE",
"26 0 LINE",
"26 321 LINE",
"26 356 LINE"
);
}
);
width = 468;
}
);
unicode = 00B5;
},
{
glyphname = paragraph;
layers = (
{
layerId = "2EFD55B3-2F90-4AA8-864A-7457E925C2F5";
name = Regular;
paths = (
{
closed = 1;
nodes = (
"418 705 LINE",
"418 -5 LINE",
"335 -5 LINE",
"335 705 LINE"
);
},
{
closed = 1;
nodes = (
"278 705 LINE",
"278 -5 LINE",
"195 -5 LINE",
"195 329 LINE",
"91 329 OFFCURVE",
"26 402 OFFCURVE",
"26 517 CURVE SMOOTH",
"26 620 OFFCURVE",
"96 705 OFFCURVE",
"195 705 CURVE SMOOTH"
);
}
);
width = 444;
}
);
unicode = 00B6;
},
{
glyphname = periodcentered;
layers = (
{
layerId = "2EFD55B3-2F90-4AA8-864A-7457E925C2F5";
name = Regular;
paths = (
{
closed = 1;
nodes = (
"50 388 OFFCURVE",
"84 421 OFFCURVE",
"125 421 CURVE SMOOTH",
"166 421 OFFCURVE",
"200 388 OFFCURVE",
"200 345 CURVE SMOOTH",
"200 304 OFFCURVE",
"166 270 OFFCURVE",
"125 270 CURVE SMOOTH",
"84 270 OFFCURVE",
"50 304 OFFCURVE",
"50 345 CURVE SMOOTH"
);
}
);
width = 250;
}
);
unicode = 00B7;
},
{
glyphname = cedilla;
layers = (
{
layerId = "2EFD55B3-2F90-4AA8-864A-7457E925C2F5";
name = Regular;
paths = (
{
closed = 1;
nodes = (
"194 123 LINE",
"194 35 OFFCURVE",
"143 -36 OFFCURVE",
"26 -36 CURVE",
"26 55 LINE",
"77 55 OFFCURVE",
"102 78 OFFCURVE",
"102 123 CURVE"
);
}
);
width = 219;
}
);
unicode = 00B8;
},
{
glyphname = uni00B9;
layers = (
{
layerId = "2EFD55B3-2F90-4AA8-864A-7457E925C2F5";
name = Regular;
paths = (
{
closed = 1;
nodes = (
"93 610 LINE",
"60 584 LINE",
"60 673 LINE",
"95 700 LINE",
"161 700 LINE",
"161 391 LINE",
"93 391 LINE"
);
}
);
width = 186;
}
);
unicode = 00B9;
},
{
glyphname = ordmasculine;
layers = (
{
layerId = "2EFD55B3-2F90-4AA8-864A-7457E925C2F5";
name = Regular;
paths = (
{
closed = 1;
nodes = (
"32 637 LINE SMOOTH",
"32 664 OFFCURVE",
"60 700 OFFCURVE",
"103 700 CURVE SMOOTH",
"108 700 LINE",
"108 645 LINE",
"103 645 LINE SMOOTH",
"93 645 OFFCURVE",
"88 642 OFFCURVE",
"88 635 CURVE SMOOTH",
"88 534 LINE SMOOTH",
"88 533 OFFCURVE",
"88 532 OFFCURVE",
"89 531 CURVE",
"90 528 OFFCURVE",
"96 525 OFFCURVE",
"103 525 CURVE SMOOTH",
"108 525 LINE",
"108 470 LINE",
"103 470 LINE SMOOTH",
"59 470 OFFCURVE",
"32 508 OFFCURVE",
"32 533 CURVE SMOOTH"
);
},
{
closed = 1;
nodes = (
"123 645 LINE",
"123 700 LINE",
"127 700 LINE SMOOTH",
"168 700 OFFCURVE",
"196 664 OFFCURVE",
"196 637 CURVE SMOOTH",
"196 533 LINE SMOOTH",
"196 508 OFFCURVE",
"170 470 OFFCURVE",
"127 470 CURVE SMOOTH",
"123 470 LINE",
"123 523 LINE",
"127 523 LINE SMOOTH",
"134 523 OFFCURVE",
"139 527 OFFCURVE",
"140 530 CURVE",
"141 531 OFFCURVE",
"141 532 OFFCURVE",
"141 533 CURVE SMOOTH",
"141 635 LINE SMOOTH",
"141 636 OFFCURVE",
"141 637 OFFCURVE",
"140 638 CURVE",
"139 641 OFFCURVE",
"134 645 OFFCURVE",
"127 645 CURVE SMOOTH"
);
},
{
closed = 1;
nodes = (
"26 432 LINE",
"204 432 LINE",
"204 361 LINE",
"26 361 LINE"
);
}
);
width = 230;
}
);
unicode = 00BA;
},
{
glyphname = guillemotright;
layers = (
{
layerId = "2EFD55B3-2F90-4AA8-864A-7457E925C2F5";
name = Regular;
paths = (
{
closed = 1;
nodes = (
"237 477 LINE",
"448 321 LINE",
"448 259 LINE",
"237 102 LINE",
"237 224 LINE",
"326 292 LINE",
"237 352 LINE"
);
},
{
closed = 1;
nodes = (
"26 477 LINE",
"237 321 LINE",
"237 259 LINE",
"26 102 LINE",
"26 224 LINE",
"115 292 LINE",
"26 352 LINE"
);
}
);
width = 414;
}
);
unicode = 00BB;
},
{
glyphname = onequarter;
layers = (
{
layerId = "2EFD55B3-2F90-4AA8-864A-7457E925C2F5";
name = Regular;
paths = (
{
closed = 1;
nodes = (
"26 -2 LINE",
"458 702 LINE",
"534 702 LINE",
"109 -2 LINE"
);
},
{
closed = 1;
nodes = (
"368 137 LINE",
"368 71 LINE",
"270 71 LINE",
"270 137 LINE",
"368 305 LINE",
"368 175 LINE",
"346 137 LINE"
);
},
{
closed = 1;
nodes = (
"488 137 LINE",
"488 71 LINE",
"461 71 LINE",
"461 -1 LINE",
"393 -1 LINE",
"393 352 LINE",
"461 352 LINE",
"461 137 LINE"
);
},
{
closed = 1;
nodes = (
"113 597 LINE",
"75 567 LINE",
"75 671 LINE",
"114 702 LINE",
"181 702 LINE",
"181 349 LINE",
"113 349 LINE"
);
}
);
width = 560;
}
);
unicode = 00BC;
},
{
glyphname = onehalf;
layers = (
{
layerId = "2EFD55B3-2F90-4AA8-864A-7457E925C2F5";
name = Regular;
paths = (
{
closed = 1;
nodes = (
"114 597 LINE",
"76 567 LINE",
"76 671 LINE",
"114 702 LINE",
"182 702 LINE",
"182 349 LINE",
"114 349 LINE"
);
},
{
closed = 1;
nodes = (
"448 288 LINE",
"448 354 LINE",
"453 354 LINE SMOOTH",
"522 354 OFFCURVE",
"553 302 OFFCURVE",
"554 251 CURVE SMOOTH",
"554 218 OFFCURVE",
"540 192 OFFCURVE",
"528 181 CURVE",
"522 176 OFFCURVE",
"512 168 OFFCURVE",
"499 159 CURVE SMOOTH",
"464 134 OFFCURVE",
"441 112 OFFCURVE",
"428 93 CURVE",
"427 92 LINE",
"348 92 LINE",
"349 94 LINE SMOOTH",
"360 117 OFFCURVE",
"376 138 OFFCURVE",
"392 154 CURVE SMOOTH",
"407 169 OFFCURVE",
"418 178 OFFCURVE",
"432 188 CURVE SMOOTH",
"439 193 OFFCURVE",
"443 195 OFFCURVE",
"444 196 CURVE",
"448 199 OFFCURVE",
"454 203 OFFCURVE",
"461 208 CURVE",
"475 217 OFFCURVE",
"480 220 OFFCURVE",
"486 232 CURVE",
"489 237 OFFCURVE",
"490 244 OFFCURVE",
"490 251 CURVE SMOOTH",
"490 274 OFFCURVE",
"476 287 OFFCURVE",
"449 288 CURVE"
);
},
{
closed = 1;
nodes = (
"551 65 LINE",
"551 -1 LINE",
"346 -1 LINE",
"346 65 LINE"
);
},
{
closed = 1;
nodes = (
"26 -2 LINE",
"458 702 LINE",
"534 702 LINE",
"109 -2 LINE"
);
},
{
closed = 1;
nodes = (
"422 288 LINE",
"407 281 OFFCURVE",
"400 268 OFFCURVE",
"400 250 CURVE SMOOTH",
"400 248 LINE",
"337 261 LINE",
"338 263 LINE",
"343 308 OFFCURVE",
"375 348 OFFCURVE",
"422 353 CURVE",
"424 354 LINE",
"424 290 LINE",
"424 288 LINE"
);
}
);
width = 581;
}
);
unicode = 00BD;
},
{
glyphname = threequarters;
layers = (
{
layerId = "2EFD55B3-2F90-4AA8-864A-7457E925C2F5";
name = Regular;
paths = (
{
closed = 1;
nodes = (
"50 -2 LINE",
"482 702 LINE",
"558 702 LINE",
"133 -2 LINE"
);
},
{
closed = 1;
nodes = (
"392 137 LINE",
"392 71 LINE",
"294 71 LINE",
"294 137 LINE",
"392 305 LINE",
"392 175 LINE",
"370 137 LINE"
);
},
{
closed = 1;
nodes = (
"512 137 LINE",
"512 71 LINE",
"485 71 LINE",
"485 -1 LINE",
"417 -1 LINE",
"417 352 LINE",
"485 352 LINE",
"485 137 LINE"
);
},
{
closed = 1;
nodes = (
"82 616 LINE",
"26 649 LINE",
"27 651 LINE",
"47 684 OFFCURVE",
"76 700 OFFCURVE",
"114 700 CURVE",
"114 635 LINE",
"113 635 LINE",
"100 634 OFFCURVE",
"90 629 OFFCURVE",
"83 618 CURVE"
);
},
{
closed = 1;
nodes = (
"142 412 LINE SMOOTH",
"162 412 OFFCURVE",
"177 430 OFFCURVE",
"177 450 CURVE SMOOTH",
"177 481 OFFCURVE",
"164 492 OFFCURVE",
"108 492 CURVE",
"108 557 LINE",
"109 557 LINE SMOOTH",
"165 557 OFFCURVE",
"177 568 OFFCURVE",
"177 600 CURVE SMOOTH",
"177 624 OFFCURVE",
"160 636 OFFCURVE",
"143 636 CURVE SMOOTH",
"140 636 LINE",
"140 701 LINE",
"141 700 LINE",
"204 699 OFFCURVE",
"243 648 OFFCURVE",
"243 604 CURVE SMOOTH",
"243 563 OFFCURVE",
"233 536 OFFCURVE",
"214 525 CURVE",
"235 510 OFFCURVE",
"245 485 OFFCURVE",
"245 450 CURVE SMOOTH",
"245 391 OFFCURVE",
"191 348 OFFCURVE",
"144 348 CURVE SMOOTH",
"141 348 LINE",
"141 412 LINE"
);
},
{
closed = 1;
nodes = (
"83 431 LINE",
"90 420 OFFCURVE",
"100 415 OFFCURVE",
"113 414 CURVE",
"114 414 LINE",
"114 348 LINE",
"113 348 LINE SMOOTH",
"72 348 OFFCURVE",
"44 365 OFFCURVE",
"27 398 CURVE",
"26 399 LINE",
"82 432 LINE"
);
}
);
width = 584;
}
);
unicode = 00BE;
},
{
glyphname = questiondown;
layers = (
{
layerId = "2EFD55B3-2F90-4AA8-864A-7457E925C2F5";
name = Regular;
paths = (
{
closed = 1;
nodes = (
"129 597 OFFCURVE",
"122 615 OFFCURVE",
"122 636 CURVE SMOOTH",
"122 679 OFFCURVE",
"156 711 OFFCURVE",
"197 711 CURVE SMOOTH",
"240 711 OFFCURVE",
"273 677 OFFCURVE",
"273 636 CURVE SMOOTH",
"273 593 OFFCURVE",
"238 560 OFFCURVE",
"197 560 CURVE SMOOTH",
"176 560 OFFCURVE",
"159 567 OFFCURVE",
"144 582 CURVE SMOOTH"
);
},
{
closed = 1;
nodes = (
"112 163 LINE",
"137 130 OFFCURVE",
"169 114 OFFCURVE",
"210 114 CURVE SMOOTH",
"259 114 OFFCURVE",
"302 147 OFFCURVE",
"302 196 CURVE SMOOTH",
"302 284 OFFCURVE",
"261 300 OFFCURVE",
"134 303 CURVE",
"134 523 LINE",
"263 523 LINE",
"263 413 LINE",
"268 412 OFFCURVE",
"274 411 OFFCURVE",
"281 410 CURVE",
"296 407 OFFCURVE",
"343 390 OFFCURVE",
"372 364 CURVE SMOOTH",
"401 338 OFFCURVE",
"430 280 OFFCURVE",
"430 208 CURVE SMOOTH",
"430 72 OFFCURVE",
"349 -14 OFFCURVE",
"218 -14 CURVE SMOOTH",
"151 -14 OFFCURVE",
"93 13 OFFCURVE",
"69 36 CURVE",
"56 47 OFFCURVE",
"43 61 OFFCURVE",
"30 78 CURVE"
);
}
);
width = 460;
}
);
unicode = 00BF;
},
{
glyphname = Agrave;
layers = (
{
layerId = "2EFD55B3-2F90-4AA8-864A-7457E925C2F5";
name = Regular;
paths = (
{
closed = 1;
nodes = (
"224 766 LINE",
"151 918 LINE",
"278 918 LINE",
"315 766 LINE"
);
},
{
closed = 1;
nodes = (
"200 699 LINE",
"339 699 LINE",
"490 0 LINE",
"353 0 LINE",
"333 85 LINE",
"239 85 LINE",
"269 223 LINE",
"305 223 LINE"
);
},
{
closed = 1;
nodes = (
"155 582 LINE",
"170 582 LINE",
"230 302 LINE",
"164 0 LINE",
"26 0 LINE"
);
}
);
width = 516;
}
);
unicode = 00C0;
},
{
glyphname = Aacute;
layers = (
{
layerId = "2EFD55B3-2F90-4AA8-864A-7457E925C2F5";
name = Regular;
paths = (
{
closed = 1;
nodes = (
"315 766 LINE",
"224 766 LINE",
"261 918 LINE",
"388 918 LINE"
);
},
{
closed = 1;
nodes = (
"200 699 LINE",
"339 699 LINE",
"490 0 LINE",
"353 0 LINE",
"333 85 LINE",
"239 85 LINE",
"269 223 LINE",
"305 223 LINE"
);
},
{
closed = 1;
nodes = (
"155 582 LINE",
"170 582 LINE",
"230 302 LINE",
"164 0 LINE",
"26 0 LINE"
);
}
);
width = 516;
}
);
unicode = 00C1;
},
{
glyphname = Acircumflex;
layers = (
{
layerId = "2EFD55B3-2F90-4AA8-864A-7457E925C2F5";
name = Regular;
paths = (
{
closed = 1;
nodes = (
"161 766 LINE",
"236 918 LINE",
"302 918 LINE",
"379 766 LINE",
"297 766 LINE",
"269 823 LINE",
"242 766 LINE"
);
},
{
closed = 1;
nodes = (
"200 699 LINE",
"339 699 LINE",
"490 0 LINE",
"353 0 LINE",
"333 85 LINE",
"239 85 LINE",
"269 223 LINE",
"305 223 LINE"
);
},
{
closed = 1;
nodes = (
"155 582 LINE",
"170 582 LINE",
"230 302 LINE",
"164 0 LINE",
"26 0 LINE"
);
}
);
width = 516;
}
);
unicode = 00C2;
},
{
glyphname = Atilde;
layers = (
{
layerId = "2EFD55B3-2F90-4AA8-864A-7457E925C2F5";
name = Regular;
paths = (
{
closed = 1;
nodes = (
"409 776 LINE",
"379 757 OFFCURVE",
"351 748 OFFCURVE",
"325 748 CURVE SMOOTH",
"307 748 OFFCURVE",
"285 755 OFFCURVE",
"258 768 CURVE SMOOTH",
"231 781 OFFCURVE",
"209 788 OFFCURVE",
"194 788 CURVE SMOOTH",
"174 788 OFFCURVE",
"152 781 OFFCURVE",
"128 766 CURVE",
"128 868 LINE",
"154 883 OFFCURVE",
"177 890 OFFCURVE",
"198 890 CURVE SMOOTH",
"215 890 OFFCURVE",
"237 883 OFFCURVE",
"264 870 CURVE SMOOTH",
"291 856 OFFCURVE",
"312 849 OFFCURVE",
"329 849 CURVE SMOOTH",
"352 849 OFFCURVE",
"378 858 OFFCURVE",
"409 877 CURVE"
);
},
{
closed = 1;
nodes = (
"200 699 LINE",
"339 699 LINE",
"490 0 LINE",
"353 0 LINE",
"333 85 LINE",
"239 85 LINE",
"269 223 LINE",
"305 223 LINE"
);
},
{
closed = 1;
nodes = (
"155 582 LINE",
"170 582 LINE",
"230 302 LINE",
"164 0 LINE",
"26 0 LINE"
);
}
);
width = 516;
}
);
unicode = 00C3;
},
{
glyphname = Adieresis;
layers = (
{
layerId = "2EFD55B3-2F90-4AA8-864A-7457E925C2F5";
name = Regular;
paths = (
{
closed = 1;
nodes = (
"117 802 OFFCURVE",
"110 820 OFFCURVE",
"110 841 CURVE SMOOTH",
"110 884 OFFCURVE",
"144 917 OFFCURVE",
"185 917 CURVE SMOOTH",
"226 917 OFFCURVE",
"260 884 OFFCURVE",
"260 841 CURVE SMOOTH",
"260 798 OFFCURVE",
"226 766 OFFCURVE",
"185 766 CURVE SMOOTH",
"164 766 OFFCURVE",
"147 773 OFFCURVE",
"132 788 CURVE SMOOTH"
);
},
{
closed = 1;
nodes = (
"287 802 OFFCURVE",
"280 820 OFFCURVE",
"280 841 CURVE SMOOTH",
"280 884 OFFCURVE",
"314 917 OFFCURVE",
"355 917 CURVE SMOOTH",
"396 917 OFFCURVE",
"430 884 OFFCURVE",
"430 841 CURVE SMOOTH",
"430 798 OFFCURVE",
"396 766 OFFCURVE",
"355 766 CURVE SMOOTH",
"334 766 OFFCURVE",
"317 773 OFFCURVE",
"302 788 CURVE SMOOTH"
);
},
{
closed = 1;
nodes = (
"200 699 LINE",
"339 699 LINE",
"490 0 LINE",
"353 0 LINE",
"333 85 LINE",
"239 85 LINE",
"269 223 LINE",
"305 223 LINE"
);
},
{
closed = 1;
nodes = (
"155 582 LINE",
"170 582 LINE",
"230 302 LINE",
"164 0 LINE",
"26 0 LINE"
);
}
);
width = 516;
}
);
unicode = 00C4;
},
{
glyphname = Aring;
layers = (
{
layerId = "2EFD55B3-2F90-4AA8-864A-7457E925C2F5";
name = Regular;
paths = (
{
closed = 1;
nodes = (
"155 582 LINE",
"170 582 LINE",
"230 302 LINE",
"164 0 LINE",
"26 0 LINE"
);
},
{
closed = 1;
nodes = (
"240 781 OFFCURVE",
"237 774 OFFCURVE",
"237 765 CURVE SMOOTH",
"237 748 OFFCURVE",
"252 733 OFFCURVE",
"269 733 CURVE SMOOTH",
"286 733 OFFCURVE",
"301 748 OFFCURVE",
"301 765 CURVE SMOOTH",
"301 782 OFFCURVE",
"286 797 OFFCURVE",
"269 797 CURVE SMOOTH",
"260 797 OFFCURVE",
"253 794 OFFCURVE",
"247 788 CURVE SMOOTH"
);
},
{
closed = 1;
nodes = (
"200 698 LINE",
"182 716 OFFCURVE",
"173 738 OFFCURVE",
"173 765 CURVE SMOOTH",
"173 818 OFFCURVE",
"216 861 OFFCURVE",
"269 861 CURVE SMOOTH",
"322 861 OFFCURVE",
"365 818 OFFCURVE",
"365 765 CURVE SMOOTH",
"365 740 OFFCURVE",
"356 718 OFFCURVE",
"339 699 CURVE",
"490 0 LINE",
"353 0 LINE",
"333 85 LINE",
"239 85 LINE",
"269 223 LINE",
"305 223 LINE"
);
}
);
width = 516;
}
);
unicode = 00C5;
},
{
glyphname = AE;
layers = (
{
layerId = "2EFD55B3-2F90-4AA8-864A-7457E925C2F5";
name = Regular;
paths = (
{
closed = 1;
nodes = (
"701 141 LINE",
"701 0 LINE",
"337 0 LINE",
"337 148 LINE",
"272 148 LINE",
"301 268 LINE",
"337 268 LINE",
"337 560 LINE",
"320 560 LINE",
"182 0 LINE",
"26 0 LINE",
"206 700 LINE",
"701 700 LINE",
"701 560 LINE",
"483 560 LINE",
"478 560 LINE",
"478 418 LINE",
"607 418 LINE",
"607 277 LINE",
"478 277 LINE",
"478 141 LINE"
);
}
);
width = 727;
}
);
unicode = 00C6;
},
{
glyphname = Ccedilla;
layers = (
{
layerId = "2EFD55B3-2F90-4AA8-864A-7457E925C2F5";
name = Regular;
paths = (
{
closed = 1;
nodes = (
"305 -44 LINE",
"305 -132 OFFCURVE",
"254 -203 OFFCURVE",
"137 -203 CURVE",
"137 -112 LINE",
"188 -112 OFFCURVE",
"213 -89 OFFCURVE",
"213 -44 CURVE"
);
},
{
closed = 1;
nodes = (
"229 564 LINE",
"201 564 OFFCURVE",
"182 544 OFFCURVE",
"177 532 CURVE",
"174 526 OFFCURVE",
"173 521 OFFCURVE",
"173 518 CURVE SMOOTH",
"173 181 LINE SMOOTH",
"173 178 OFFCURVE",
"174 173 OFFCURVE",
"177 167 CURVE",
"182 155 OFFCURVE",
"201 136 OFFCURVE",
"229 136 CURVE",
"229 -5 LINE",
"174 -5 OFFCURVE",
"126 15 OFFCURVE",
"98 43 CURVE SMOOTH",
"69 71 OFFCURVE",
"47 107 OFFCURVE",
"39 139 CURVE",
"34 154 OFFCURVE",
"32 168 OFFCURVE",
"32 181 CURVE SMOOTH",
"32 518 LINE SMOOTH",
"32 551 OFFCURVE",
"47 593 OFFCURVE",
"76 634 CURVE SMOOTH",
"105 674 OFFCURVE",
"162 705 OFFCURVE",
"229 705 CURVE"
);
},
{
closed = 1;
nodes = (
"283 136 LINE",
"326 145 OFFCURVE",
"330 170 OFFCURVE",
"330 203 CURVE SMOOTH",
"330 215 LINE",
"468 182 LINE",
"468 79 OFFCURVE",
"378 -5 OFFCURVE",
"283 -5 CURVE"
);
},
{
closed = 1;
nodes = (
"283 564 LINE",
"283 705 LINE",
"375 705 OFFCURVE",
"468 612 OFFCURVE",
"468 516 CURVE",
"330 480 LINE",
"330 495 LINE SMOOTH",
"330 528 OFFCURVE",
"325 539 OFFCURVE",
"311 550 CURVE",
"304 555 OFFCURVE",
"297 559 OFFCURVE",
"292 561 CURVE"
);
}
);
width = 494;
}
);
unicode = 00C7;
},
{
glyphname = Egrave;
layers = (
{
layerId = "2EFD55B3-2F90-4AA8-864A-7457E925C2F5";
name = Regular;
paths = (
{
closed = 1;
nodes = (
"168 766 LINE",
"95 918 LINE",
"222 918 LINE",
"259 766 LINE"
);
},
{
closed = 1;
nodes = (
"396 141 LINE",
"396 0 LINE",
"32 0 LINE",
"32 700 LINE",
"396 700 LINE",
"396 560 LINE",
"173 560 LINE",
"173 418 LINE",
"302 418 LINE",
"302 277 LINE",
"173 277 LINE",
"173 141 LINE"
);
}
);
width = 422;
}
);
unicode = 00C8;
},
{
glyphname = Eacute;
layers = (
{
layerId = "2EFD55B3-2F90-4AA8-864A-7457E925C2F5";
name = Regular;
paths = (
{
closed = 1;
nodes = (
"259 766 LINE",
"168 766 LINE",
"205 918 LINE",
"332 918 LINE"
);
},
{
closed = 1;
nodes = (
"396 141 LINE",
"396 0 LINE",
"32 0 LINE",
"32 700 LINE",
"396 700 LINE",
"396 560 LINE",
"173 560 LINE",
"173 418 LINE",
"302 418 LINE",
"302 277 LINE",
"173 277 LINE",
"173 141 LINE"
);
}
);
width = 422;
}
);
unicode = 00C9;
},
{
glyphname = Ecircumflex;
layers = (
{
layerId = "2EFD55B3-2F90-4AA8-864A-7457E925C2F5";
name = Regular;
paths = (
{
closed = 1;
nodes = (
"105 766 LINE",
"180 918 LINE",
"246 918 LINE",
"323 766 LINE",
"241 766 LINE",
"213 823 LINE",
"186 766 LINE"
);
},
{
closed = 1;
nodes = (
"396 141 LINE",
"396 0 LINE",
"32 0 LINE",
"32 700 LINE",
"396 700 LINE",
"396 560 LINE",
"173 560 LINE",
"173 418 LINE",
"302 418 LINE",
"302 277 LINE",
"173 277 LINE",
"173 141 LINE"
);
}
);
width = 422;
}
);
unicode = 00CA;
},
{
glyphname = Edieresis;
layers = (
{
layerId = "2EFD55B3-2F90-4AA8-864A-7457E925C2F5";
name = Regular;
paths = (
{
closed = 1;
nodes = (
"61 802 OFFCURVE",
"54 820 OFFCURVE",
"54 841 CURVE SMOOTH",
"54 884 OFFCURVE",
"88 917 OFFCURVE",
"129 917 CURVE SMOOTH",
"170 917 OFFCURVE",
"204 884 OFFCURVE",
"204 841 CURVE SMOOTH",
"204 798 OFFCURVE",
"170 766 OFFCURVE",
"129 766 CURVE SMOOTH",
"108 766 OFFCURVE",
"91 773 OFFCURVE",
"76 788 CURVE SMOOTH"
);
},
{
closed = 1;
nodes = (
"231 802 OFFCURVE",
"224 820 OFFCURVE",
"224 841 CURVE SMOOTH",
"224 884 OFFCURVE",
"258 917 OFFCURVE",
"299 917 CURVE SMOOTH",
"340 917 OFFCURVE",
"374 884 OFFCURVE",
"374 841 CURVE SMOOTH",
"374 798 OFFCURVE",
"340 766 OFFCURVE",
"299 766 CURVE SMOOTH",
"278 766 OFFCURVE",
"261 773 OFFCURVE",
"246 788 CURVE SMOOTH"
);
},
{
closed = 1;
nodes = (
"396 141 LINE",
"396 0 LINE",
"32 0 LINE",
"32 700 LINE",
"396 700 LINE",
"396 560 LINE",
"173 560 LINE",
"173 418 LINE",
"302 418 LINE",
"302 277 LINE",
"173 277 LINE",
"173 141 LINE"
);
}
);
width = 422;
}
);
unicode = 00CB;
},
{
glyphname = Igrave;
layers = (
{
layerId = "2EFD55B3-2F90-4AA8-864A-7457E925C2F5";
name = Regular;
paths = (
{
closed = 1;
nodes = (
"59 766 LINE",
"-14 918 LINE",
"113 918 LINE",
"150 766 LINE"
);
},
{
closed = 1;
nodes = (
"34 700 LINE",
"175 700 LINE",
"175 0 LINE",
"34 0 LINE"
);
}
);
width = 209;
}
);
unicode = 00CC;
},
{
glyphname = Iacute;
layers = (
{
layerId = "2EFD55B3-2F90-4AA8-864A-7457E925C2F5";
name = Regular;
paths = (
{
closed = 1;
nodes = (
"150 766 LINE",
"59 766 LINE",
"96 918 LINE",
"223 918 LINE"
);
},
{
closed = 1;
nodes = (
"34 700 LINE",
"175 700 LINE",
"175 0 LINE",
"34 0 LINE"
);
}
);
width = 209;
}
);
unicode = 00CD;
},
{
glyphname = Icircumflex;
layers = (
{
layerId = "2EFD55B3-2F90-4AA8-864A-7457E925C2F5";
name = Regular;
paths = (
{
closed = 1;
nodes = (
"-4 766 LINE",
"71 918 LINE",
"137 918 LINE",
"214 766 LINE",
"132 766 LINE",
"104 823 LINE",
"77 766 LINE"
);
},
{
closed = 1;
nodes = (
"34 700 LINE",
"175 700 LINE",
"175 0 LINE",
"34 0 LINE"
);
}
);
width = 209;
}
);
unicode = 00CE;
},
{
glyphname = Idieresis;
layers = (
{
layerId = "2EFD55B3-2F90-4AA8-864A-7457E925C2F5";
name = Regular;
paths = (
{
closed = 1;
nodes = (
"-49 802 OFFCURVE",
"-56 820 OFFCURVE",
"-56 841 CURVE SMOOTH",
"-56 884 OFFCURVE",
"-22 917 OFFCURVE",
"19 917 CURVE SMOOTH",
"60 917 OFFCURVE",
"94 884 OFFCURVE",
"94 841 CURVE SMOOTH",
"94 798 OFFCURVE",
"60 766 OFFCURVE",
"19 766 CURVE SMOOTH",
"-2 766 OFFCURVE",
"-19 773 OFFCURVE",
"-34 788 CURVE SMOOTH"
);
},
{
closed = 1;
nodes = (
"121 802 OFFCURVE",
"114 820 OFFCURVE",
"114 841 CURVE SMOOTH",
"114 884 OFFCURVE",
"148 917 OFFCURVE",
"189 917 CURVE SMOOTH",
"230 917 OFFCURVE",
"264 884 OFFCURVE",
"264 841 CURVE SMOOTH",
"264 798 OFFCURVE",
"230 766 OFFCURVE",
"189 766 CURVE SMOOTH",
"168 766 OFFCURVE",
"151 773 OFFCURVE",
"136 788 CURVE SMOOTH"
);
},
{
closed = 1;
nodes = (
"34 700 LINE",
"175 700 LINE",
"175 0 LINE",
"34 0 LINE"
);
}
);
width = 209;
}
);
unicode = 00CF;
},
{
glyphname = Eth;
layers = (
{
layerId = "2EFD55B3-2F90-4AA8-864A-7457E925C2F5";
name = Regular;
paths = (
{
closed = 1;
nodes = (
"224 420 LINE",
"280 420 LINE",
"280 292 LINE",
"224 292 LINE",
"224 0 LINE",
"83 0 LINE",
"83 292 LINE",
"26 292 LINE",
"26 420 LINE",
"83 420 LINE",
"83 700 LINE",
"224 700 LINE"
);
},
{
closed = 1;
nodes = (
"278 141 LINE",
"282 141 OFFCURVE",
"288 142 OFFCURVE",
"295 145 CURVE",
"310 149 OFFCURVE",
"334 168 OFFCURVE",
"334 197 CURVE SMOOTH",
"334 503 LINE SMOOTH",
"334 507 OFFCURVE",
"333 513 OFFCURVE",
"331 520 CURVE",
"326 535 OFFCURVE",
"306 559 OFFCURVE",
"278 559 CURVE",
"278 700 LINE",
"345 700 OFFCURVE",
"402 668 OFFCURVE",
"431 625 CURVE SMOOTH",
"460 581 OFFCURVE",
"475 538 OFFCURVE",
"475 503 CURVE SMOOTH",
"475 197 LINE SMOOTH",
"475 128 OFFCURVE",
"442 71 OFFCURVE",
"399 43 CURVE SMOOTH",
"355 14 OFFCURVE",
"311 0 OFFCURVE",
"278 0 CURVE"
);
}
);
width = 501;
}
);
unicode = 00D0;
},
{
glyphname = Ntilde;
layers = (
{
layerId = "2EFD55B3-2F90-4AA8-864A-7457E925C2F5";
name = Regular;
paths = (
{
closed = 1;
nodes = (
"395 776 LINE",
"365 757 OFFCURVE",
"337 748 OFFCURVE",
"311 748 CURVE SMOOTH",
"293 748 OFFCURVE",
"271 755 OFFCURVE",
"244 768 CURVE SMOOTH",
"217 781 OFFCURVE",
"195 788 OFFCURVE",
"180 788 CURVE SMOOTH",
"160 788 OFFCURVE",
"138 781 OFFCURVE",
"114 766 CURVE",
"114 868 LINE",
"140 883 OFFCURVE",
"163 890 OFFCURVE",
"184 890 CURVE SMOOTH",
"201 890 OFFCURVE",
"223 883 OFFCURVE",
"250 870 CURVE SMOOTH",
"277 856 OFFCURVE",
"298 849 OFFCURVE",
"315 849 CURVE SMOOTH",
"338 849 OFFCURVE",
"364 858 OFFCURVE",
"395 877 CURVE"
);
},
{
closed = 1;
nodes = (
"32 700 LINE",
"147 700 LINE",
"477 168 LINE",
"477 0 LINE",
"410 0 LINE",
"32 608 LINE"
);
},
{
closed = 1;
nodes = (
"477 700 LINE",
"477 284 LINE",
"469 284 LINE",
"336 498 LINE",
"336 700 LINE"
);
},
{
closed = 1;
nodes = (
"32 0 LINE",
"32 492 LINE",
"40 492 LINE",
"173 278 LINE",
"173 0 LINE"
);
}
);
width = 509;
}
);
unicode = 00D1;
},
{
glyphname = Ograve;
layers = (
{
layerId = "2EFD55B3-2F90-4AA8-864A-7457E925C2F5";
name = Regular;
paths = (
{
closed = 1;
nodes = (
"208 766 LINE",
"135 918 LINE",
"262 918 LINE",
"299 766 LINE"
);
},
{
closed = 1;
nodes = (
"281 137 LINE",
"284 137 OFFCURVE",
"290 139 OFFCURVE",
"298 142 CURVE SMOOTH",
"313 148 OFFCURVE",
"337 167 OFFCURVE",
"337 195 CURVE SMOOTH",
"337 508 LINE SMOOTH",
"337 511 OFFCURVE",
"336 517 OFFCURVE",
"333 525 CURVE",
"328 540 OFFCURVE",
"309 564 OFFCURVE",
"281 564 CURVE",
"281 705 LINE",
"398 705 OFFCURVE",
"478 599 OFFCURVE",
"478 524 CURVE SMOOTH",
"478 195 LINE SMOOTH",
"478 127 OFFCURVE",
"445 71 OFFCURVE",
"402 41 CURVE SMOOTH",
"358 11 OFFCURVE",
"314 -5 OFFCURVE",
"281 -5 CURVE"
);
},
{
closed = 1;
nodes = (
"226 -5 LINE",
"193 -5 OFFCURVE",
"149 11 OFFCURVE",
"106 41 CURVE SMOOTH",
"63 71 OFFCURVE",
"30 127 OFFCURVE",
"30 195 CURVE SMOOTH",
"30 524 LINE SMOOTH",
"30 568 OFFCURVE",
"55 627 OFFCURVE",
"119 672 CURVE SMOOTH",
"150 694 OFFCURVE",
"186 705 OFFCURVE",
"227 705 CURVE",
"227 564 LINE",
"199 564 OFFCURVE",
"180 540 OFFCURVE",
"175 525 CURVE",
"172 517 OFFCURVE",
"171 511 OFFCURVE",
"171 508 CURVE SMOOTH",
"171 195 LINE SMOOTH",
"171 167 OFFCURVE",
"194 148 OFFCURVE",
"210 142 CURVE",
"217 139 OFFCURVE",
"223 137 OFFCURVE",
"226 137 CURVE"
);
}
);
width = 508;
}
);
unicode = 00D2;
},
{
glyphname = Oacute;
layers = (
{
layerId = "2EFD55B3-2F90-4AA8-864A-7457E925C2F5";
name = Regular;
paths = (
{
closed = 1;
nodes = (
"299 766 LINE",
"208 766 LINE",
"245 918 LINE",
"372 918 LINE"
);
},
{
closed = 1;
nodes = (
"281 137 LINE",
"284 137 OFFCURVE",
"290 139 OFFCURVE",
"298 142 CURVE SMOOTH",
"313 148 OFFCURVE",
"337 167 OFFCURVE",
"337 195 CURVE SMOOTH",
"337 508 LINE SMOOTH",
"337 511 OFFCURVE",
"336 517 OFFCURVE",
"333 525 CURVE",
"328 540 OFFCURVE",
"309 564 OFFCURVE",
"281 564 CURVE",
"281 705 LINE",
"398 705 OFFCURVE",
"478 599 OFFCURVE",
"478 524 CURVE SMOOTH",
"478 195 LINE SMOOTH",
"478 127 OFFCURVE",
"445 71 OFFCURVE",
"402 41 CURVE SMOOTH",
"358 11 OFFCURVE",
"314 -5 OFFCURVE",
"281 -5 CURVE"
);
},
{
closed = 1;
nodes = (
"226 -5 LINE",
"193 -5 OFFCURVE",
"149 11 OFFCURVE",
"106 41 CURVE SMOOTH",
"63 71 OFFCURVE",
"30 127 OFFCURVE",
"30 195 CURVE SMOOTH",
"30 524 LINE SMOOTH",
"30 568 OFFCURVE",
"55 627 OFFCURVE",
"119 672 CURVE SMOOTH",
"150 694 OFFCURVE",
"186 705 OFFCURVE",
"227 705 CURVE",
"227 564 LINE",
"199 564 OFFCURVE",
"180 540 OFFCURVE",
"175 525 CURVE",
"172 517 OFFCURVE",
"171 511 OFFCURVE",
"171 508 CURVE SMOOTH",
"171 195 LINE SMOOTH",
"171 167 OFFCURVE",
"194 148 OFFCURVE",
"210 142 CURVE",
"217 139 OFFCURVE",
"223 137 OFFCURVE",
"226 137 CURVE"
);
}
);
width = 508;
}
);
unicode = 00D3;
},
{
glyphname = Ocircumflex;
layers = (
{
layerId = "2EFD55B3-2F90-4AA8-864A-7457E925C2F5";
name = Regular;
paths = (
{
closed = 1;
nodes = (
"145 766 LINE",
"220 918 LINE",
"286 918 LINE",
"363 766 LINE",
"281 766 LINE",
"253 823 LINE",
"226 766 LINE"
);
},
{
closed = 1;
nodes = (
"281 137 LINE",
"284 137 OFFCURVE",
"290 139 OFFCURVE",
"298 142 CURVE SMOOTH",
"313 148 OFFCURVE",
"337 167 OFFCURVE",
"337 195 CURVE SMOOTH",
"337 508 LINE SMOOTH",
"337 511 OFFCURVE",
"336 517 OFFCURVE",
"333 525 CURVE",
"328 540 OFFCURVE",
"309 564 OFFCURVE",
"281 564 CURVE",
"281 705 LINE",
"398 705 OFFCURVE",
"478 599 OFFCURVE",
"478 524 CURVE SMOOTH",
"478 195 LINE SMOOTH",
"478 127 OFFCURVE",
"445 71 OFFCURVE",
"402 41 CURVE SMOOTH",
"358 11 OFFCURVE",
"314 -5 OFFCURVE",
"281 -5 CURVE"
);
},
{
closed = 1;
nodes = (
"226 -5 LINE",
"193 -5 OFFCURVE",
"149 11 OFFCURVE",
"106 41 CURVE SMOOTH",
"63 71 OFFCURVE",
"30 127 OFFCURVE",
"30 195 CURVE SMOOTH",
"30 524 LINE SMOOTH",
"30 568 OFFCURVE",
"55 627 OFFCURVE",
"119 672 CURVE SMOOTH",
"150 694 OFFCURVE",
"186 705 OFFCURVE",
"227 705 CURVE",
"227 564 LINE",
"199 564 OFFCURVE",
"180 540 OFFCURVE",
"175 525 CURVE",
"172 517 OFFCURVE",
"171 511 OFFCURVE",
"171 508 CURVE SMOOTH",
"171 195 LINE SMOOTH",
"171 167 OFFCURVE",
"194 148 OFFCURVE",
"210 142 CURVE",
"217 139 OFFCURVE",
"223 137 OFFCURVE",
"226 137 CURVE"
);
}
);
width = 508;
}
);
unicode = 00D4;
},
{
glyphname = Otilde;
layers = (
{
layerId = "2EFD55B3-2F90-4AA8-864A-7457E925C2F5";
name = Regular;
paths = (
{
closed = 1;
nodes = (
"394 776 LINE",
"364 757 OFFCURVE",
"336 748 OFFCURVE",
"310 748 CURVE SMOOTH",
"292 748 OFFCURVE",
"270 755 OFFCURVE",
"243 768 CURVE SMOOTH",
"216 781 OFFCURVE",
"194 788 OFFCURVE",
"179 788 CURVE SMOOTH",
"159 788 OFFCURVE",
"137 781 OFFCURVE",
"113 766 CURVE",
"113 868 LINE",
"139 883 OFFCURVE",
"162 890 OFFCURVE",
"183 890 CURVE SMOOTH",
"200 890 OFFCURVE",
"222 883 OFFCURVE",
"249 870 CURVE SMOOTH",
"276 856 OFFCURVE",
"297 849 OFFCURVE",
"314 849 CURVE SMOOTH",
"337 849 OFFCURVE",
"363 858 OFFCURVE",
"394 877 CURVE"
);
},
{
closed = 1;
nodes = (
"281 137 LINE",
"284 137 OFFCURVE",
"290 139 OFFCURVE",
"298 142 CURVE SMOOTH",
"313 148 OFFCURVE",
"337 167 OFFCURVE",
"337 195 CURVE SMOOTH",
"337 508 LINE SMOOTH",
"337 511 OFFCURVE",
"336 517 OFFCURVE",
"333 525 CURVE",
"328 540 OFFCURVE",
"309 564 OFFCURVE",
"281 564 CURVE",
"281 705 LINE",
"398 705 OFFCURVE",
"478 599 OFFCURVE",
"478 524 CURVE SMOOTH",
"478 195 LINE SMOOTH",
"478 127 OFFCURVE",
"445 71 OFFCURVE",
"402 41 CURVE SMOOTH",
"358 11 OFFCURVE",
"314 -5 OFFCURVE",
"281 -5 CURVE"
);
},
{
closed = 1;
nodes = (
"226 -5 LINE",
"193 -5 OFFCURVE",
"149 11 OFFCURVE",
"106 41 CURVE SMOOTH",
"63 71 OFFCURVE",
"30 127 OFFCURVE",
"30 195 CURVE SMOOTH",
"30 524 LINE SMOOTH",
"30 568 OFFCURVE",
"55 627 OFFCURVE",
"119 672 CURVE SMOOTH",
"150 694 OFFCURVE",
"186 705 OFFCURVE",
"227 705 CURVE",
"227 564 LINE",
"199 564 OFFCURVE",
"180 540 OFFCURVE",
"175 525 CURVE",
"172 517 OFFCURVE",
"171 511 OFFCURVE",
"171 508 CURVE SMOOTH",
"171 195 LINE SMOOTH",
"171 167 OFFCURVE",
"194 148 OFFCURVE",
"210 142 CURVE",
"217 139 OFFCURVE",
"223 137 OFFCURVE",
"226 137 CURVE"
);
}
);
width = 508;
}
);
unicode = 00D5;
},
{
glyphname = Odieresis;
layers = (
{
layerId = "2EFD55B3-2F90-4AA8-864A-7457E925C2F5";
name = Regular;
paths = (
{
closed = 1;
nodes = (
"101 802 OFFCURVE",
"94 820 OFFCURVE",
"94 841 CURVE SMOOTH",
"94 884 OFFCURVE",
"128 917 OFFCURVE",
"169 917 CURVE SMOOTH",
"210 917 OFFCURVE",
"244 884 OFFCURVE",
"244 841 CURVE SMOOTH",
"244 798 OFFCURVE",
"210 766 OFFCURVE",
"169 766 CURVE SMOOTH",
"148 766 OFFCURVE",
"131 773 OFFCURVE",
"116 788 CURVE SMOOTH"
);
},
{
closed = 1;
nodes = (
"271 802 OFFCURVE",
"264 820 OFFCURVE",
"264 841 CURVE SMOOTH",
"264 884 OFFCURVE",
"298 917 OFFCURVE",
"339 917 CURVE SMOOTH",
"380 917 OFFCURVE",
"414 884 OFFCURVE",
"414 841 CURVE SMOOTH",
"414 798 OFFCURVE",
"380 766 OFFCURVE",
"339 766 CURVE SMOOTH",
"318 766 OFFCURVE",
"301 773 OFFCURVE",
"286 788 CURVE SMOOTH"
);
},
{
closed = 1;
nodes = (
"281 137 LINE",
"284 137 OFFCURVE",
"290 139 OFFCURVE",
"298 142 CURVE SMOOTH",
"313 148 OFFCURVE",
"337 167 OFFCURVE",
"337 195 CURVE SMOOTH",
"337 508 LINE SMOOTH",
"337 511 OFFCURVE",
"336 517 OFFCURVE",
"333 525 CURVE",
"328 540 OFFCURVE",
"309 564 OFFCURVE",
"281 564 CURVE",
"281 705 LINE",
"398 705 OFFCURVE",
"478 599 OFFCURVE",
"478 524 CURVE SMOOTH",
"478 195 LINE SMOOTH",
"478 127 OFFCURVE",
"445 71 OFFCURVE",
"402 41 CURVE SMOOTH",
"358 11 OFFCURVE",
"314 -5 OFFCURVE",
"281 -5 CURVE"
);
},
{
closed = 1;
nodes = (
"226 -5 LINE",
"193 -5 OFFCURVE",
"149 11 OFFCURVE",
"106 41 CURVE SMOOTH",
"63 71 OFFCURVE",
"30 127 OFFCURVE",
"30 195 CURVE SMOOTH",
"30 524 LINE SMOOTH",
"30 568 OFFCURVE",
"55 627 OFFCURVE",
"119 672 CURVE SMOOTH",
"150 694 OFFCURVE",
"186 705 OFFCURVE",
"227 705 CURVE",
"227 564 LINE",
"199 564 OFFCURVE",
"180 540 OFFCURVE",
"175 525 CURVE",
"172 517 OFFCURVE",
"171 511 OFFCURVE",
"171 508 CURVE SMOOTH",
"171 195 LINE SMOOTH",
"171 167 OFFCURVE",
"194 148 OFFCURVE",
"210 142 CURVE",
"217 139 OFFCURVE",
"223 137 OFFCURVE",
"226 137 CURVE"
);
}
);
width = 508;
}
);
unicode = 00D6;
},
{
glyphname = multiply;
layers = (
{
layerId = "2EFD55B3-2F90-4AA8-864A-7457E925C2F5";
name = Regular;
paths = (
{
closed = 1;
nodes = (
"260 417 LINE",
"100 578 LINE",
"189 667 LINE",
"349 507 LINE",
"508 666 LINE",
"597 577 LINE",
"438 418 LINE",
"597 259 LINE",
"507 170 LINE",
"349 328 LINE",
"190 168 LINE",
"101 257 LINE"
);
}
);
width = 697;
}
);
unicode = 00D7;
},
{
glyphname = Oslash;
layers = (
{
layerId = "2EFD55B3-2F90-4AA8-864A-7457E925C2F5";
name = Regular;
paths = (
{
closed = 1;
nodes = (
"584 658 LINE",
"662 570 LINE",
"556 474 LINE",
"556 195 LINE SMOOTH",
"556 127 OFFCURVE",
"523 71 OFFCURVE",
"480 41 CURVE SMOOTH",
"436 11 OFFCURVE",
"392 -5 OFFCURVE",
"359 -5 CURVE",
"359 137 LINE",
"362 137 OFFCURVE",
"368 139 OFFCURVE",
"376 142 CURVE SMOOTH",
"391 148 OFFCURVE",
"415 167 OFFCURVE",
"415 195 CURVE SMOOTH",
"415 347 LINE",
"249 197 LINE",
"249 195 LINE SMOOTH",
"249 167 OFFCURVE",
"272 148 OFFCURVE",
"288 142 CURVE",
"295 139 OFFCURVE",
"301 137 OFFCURVE",
"304 137 CURVE",
"304 -5 LINE",
"252 -5 OFFCURVE",
"174 30 OFFCURVE",
"135 94 CURVE",
"78 43 LINE",
"0 131 LINE",
"108 228 LINE",
"108 524 LINE SMOOTH",
"108 568 OFFCURVE",
"133 627 OFFCURVE",
"197 672 CURVE SMOOTH",
"228 694 OFFCURVE",
"264 705 OFFCURVE",
"305 705 CURVE",
"305 564 LINE",
"277 564 OFFCURVE",
"258 540 OFFCURVE",
"253 525 CURVE",
"250 517 OFFCURVE",
"249 511 OFFCURVE",
"249 508 CURVE SMOOTH",
"249 356 LINE",
"415 505 LINE",
"415 508 LINE SMOOTH",
"415 511 OFFCURVE",
"414 517 OFFCURVE",
"411 525 CURVE",
"406 540 OFFCURVE",
"387 564 OFFCURVE",
"359 564 CURVE",
"359 705 LINE",
"432 705 OFFCURVE",
"488 672 OFFCURVE",
"528 607 CURVE"
);
}
);
width = 662;
}
);
unicode = 00D8;
},
{
glyphname = Ugrave;
layers = (
{
layerId = "2EFD55B3-2F90-4AA8-864A-7457E925C2F5";
name = Regular;
paths = (
{
closed = 1;
nodes = (
"210 766 LINE",
"137 918 LINE",
"264 918 LINE",
"301 766 LINE"
);
},
{
closed = 1;
nodes = (
"283 137 LINE",
"286 137 OFFCURVE",
"292 138 OFFCURVE",
"300 141 CURVE",
"315 146 OFFCURVE",
"339 165 OFFCURVE",
"339 193 CURVE SMOOTH",
"339 700 LINE",
"479 700 LINE",
"479 193 LINE SMOOTH",
"479 125 OFFCURVE",
"447 68 OFFCURVE",
"404 39 CURVE SMOOTH",
"360 10 OFFCURVE",
"316 -5 OFFCURVE",
"283 -5 CURVE"
);
},
{
closed = 1;
nodes = (
"229 -5 LINE",
"204 -5 OFFCURVE",
"170 3 OFFCURVE",
"134 24 CURVE SMOOTH",
"97 44 OFFCURVE",
"67 72 OFFCURVE",
"47 118 CURVE SMOOTH",
"37 141 OFFCURVE",
"32 166 OFFCURVE",
"32 193 CURVE SMOOTH",
"32 700 LINE",
"173 700 LINE",
"173 193 LINE SMOOTH",
"173 165 OFFCURVE",
"197 146 OFFCURVE",
"213 141 CURVE",
"220 138 OFFCURVE",
"226 137 OFFCURVE",
"229 137 CURVE"
);
}
);
width = 512;
}
);
unicode = 00D9;
},
{
glyphname = Uacute;
layers = (
{
layerId = "2EFD55B3-2F90-4AA8-864A-7457E925C2F5";
name = Regular;
paths = (
{
closed = 1;
nodes = (
"301 766 LINE",
"210 766 LINE",
"247 918 LINE",
"374 918 LINE"
);
},
{
closed = 1;
nodes = (
"283 137 LINE",
"286 137 OFFCURVE",
"292 138 OFFCURVE",
"300 141 CURVE",
"315 146 OFFCURVE",
"339 165 OFFCURVE",
"339 193 CURVE SMOOTH",
"339 700 LINE",
"479 700 LINE",
"479 193 LINE SMOOTH",
"479 125 OFFCURVE",
"447 68 OFFCURVE",
"404 39 CURVE SMOOTH",
"360 10 OFFCURVE",
"316 -5 OFFCURVE",
"283 -5 CURVE"
);
},
{
closed = 1;
nodes = (
"229 -5 LINE",
"204 -5 OFFCURVE",
"170 3 OFFCURVE",
"134 24 CURVE SMOOTH",
"97 44 OFFCURVE",
"67 72 OFFCURVE",
"47 118 CURVE SMOOTH",
"37 141 OFFCURVE",
"32 166 OFFCURVE",
"32 193 CURVE SMOOTH",
"32 700 LINE",
"173 700 LINE",
"173 193 LINE SMOOTH",
"173 165 OFFCURVE",
"197 146 OFFCURVE",
"213 141 CURVE",
"220 138 OFFCURVE",
"226 137 OFFCURVE",
"229 137 CURVE"
);
}
);
width = 512;
}
);
unicode = 00DA;
},
{
glyphname = Ucircumflex;
layers = (
{
layerId = "2EFD55B3-2F90-4AA8-864A-7457E925C2F5";
name = Regular;
paths = (
{
closed = 1;
nodes = (
"147 766 LINE",
"222 918 LINE",
"288 918 LINE",
"365 766 LINE",
"283 766 LINE",
"255 823 LINE",
"228 766 LINE"
);
},
{
closed = 1;
nodes = (
"283 137 LINE",
"286 137 OFFCURVE",
"292 138 OFFCURVE",
"300 141 CURVE",
"315 146 OFFCURVE",
"339 165 OFFCURVE",
"339 193 CURVE SMOOTH",
"339 700 LINE",
"479 700 LINE",
"479 193 LINE SMOOTH",
"479 125 OFFCURVE",
"447 68 OFFCURVE",
"404 39 CURVE SMOOTH",
"360 10 OFFCURVE",
"316 -5 OFFCURVE",
"283 -5 CURVE"
);
},
{
closed = 1;
nodes = (
"229 -5 LINE",
"204 -5 OFFCURVE",
"170 3 OFFCURVE",
"134 24 CURVE SMOOTH",
"97 44 OFFCURVE",
"67 72 OFFCURVE",
"47 118 CURVE SMOOTH",
"37 141 OFFCURVE",
"32 166 OFFCURVE",
"32 193 CURVE SMOOTH",
"32 700 LINE",
"173 700 LINE",
"173 193 LINE SMOOTH",
"173 165 OFFCURVE",
"197 146 OFFCURVE",
"213 141 CURVE",
"220 138 OFFCURVE",
"226 137 OFFCURVE",
"229 137 CURVE"
);
}
);
width = 512;
}
);
unicode = 00DB;
},
{
glyphname = Udieresis;
layers = (
{
layerId = "2EFD55B3-2F90-4AA8-864A-7457E925C2F5";
name = Regular;
paths = (
{
closed = 1;
nodes = (
"103 802 OFFCURVE",
"96 820 OFFCURVE",
"96 841 CURVE SMOOTH",
"96 884 OFFCURVE",
"130 917 OFFCURVE",
"171 917 CURVE SMOOTH",
"212 917 OFFCURVE",
"246 884 OFFCURVE",
"246 841 CURVE SMOOTH",
"246 798 OFFCURVE",
"212 766 OFFCURVE",
"171 766 CURVE SMOOTH",
"150 766 OFFCURVE",
"133 773 OFFCURVE",
"118 788 CURVE SMOOTH"
);
},
{
closed = 1;
nodes = (
"273 802 OFFCURVE",
"266 820 OFFCURVE",
"266 841 CURVE SMOOTH",
"266 884 OFFCURVE",
"300 917 OFFCURVE",
"341 917 CURVE SMOOTH",
"382 917 OFFCURVE",
"416 884 OFFCURVE",
"416 841 CURVE SMOOTH",
"416 798 OFFCURVE",
"382 766 OFFCURVE",
"341 766 CURVE SMOOTH",
"320 766 OFFCURVE",
"303 773 OFFCURVE",
"288 788 CURVE SMOOTH"
);
},
{
closed = 1;
nodes = (
"283 137 LINE",
"286 137 OFFCURVE",
"292 138 OFFCURVE",
"300 141 CURVE",
"315 146 OFFCURVE",
"339 165 OFFCURVE",
"339 193 CURVE SMOOTH",
"339 700 LINE",
"479 700 LINE",
"479 193 LINE SMOOTH",
"479 125 OFFCURVE",
"447 68 OFFCURVE",
"404 39 CURVE SMOOTH",
"360 10 OFFCURVE",
"316 -5 OFFCURVE",
"283 -5 CURVE"
);
},
{
closed = 1;
nodes = (
"229 -5 LINE",
"204 -5 OFFCURVE",
"170 3 OFFCURVE",
"134 24 CURVE SMOOTH",
"97 44 OFFCURVE",
"67 72 OFFCURVE",
"47 118 CURVE SMOOTH",
"37 141 OFFCURVE",
"32 166 OFFCURVE",
"32 193 CURVE SMOOTH",
"32 700 LINE",
"173 700 LINE",
"173 193 LINE SMOOTH",
"173 165 OFFCURVE",
"197 146 OFFCURVE",
"213 141 CURVE",
"220 138 OFFCURVE",
"226 137 OFFCURVE",
"229 137 CURVE"
);
}
);
width = 512;
}
);
unicode = 00DC;
},
{
glyphname = Yacute;
layers = (
{
layerId = "2EFD55B3-2F90-4AA8-864A-7457E925C2F5";
name = Regular;
paths = (
{
closed = 1;
nodes = (
"285 766 LINE",
"194 766 LINE",
"231 918 LINE",
"358 918 LINE"
);
},
{
closed = 1;
nodes = (
"269 565 LINE",
"308 700 LINE",
"453 700 LINE",
"344 331 LINE",
"335 331 LINE"
);
},
{
closed = 1;
nodes = (
"26 700 LINE",
"173 700 LINE",
"303 253 LINE",
"303 0 LINE",
"157 0 LINE",
"157 252 LINE"
);
}
);
width = 479;
}
);
unicode = 00DD;
},
{
glyphname = Thorn;
layers = (
{
layerId = "2EFD55B3-2F90-4AA8-864A-7457E925C2F5";
name = Regular;
paths = (
{
closed = 1;
nodes = (
"26 700 LINE",
"167 700 LINE",
"167 0 LINE",
"26 0 LINE"
);
},
{
closed = 1;
nodes = (
"221 347 LINE",
"254 347 LINE SMOOTH",
"265 347 OFFCURVE",
"276 346 OFFCURVE",
"293 363 CURVE",
"301 372 OFFCURVE",
"305 383 OFFCURVE",
"305 398 CURVE SMOOTH",
"305 429 OFFCURVE",
"284 446 OFFCURVE",
"272 449 CURVE",
"266 450 OFFCURVE",
"260 451 OFFCURVE",
"254 451 CURVE SMOOTH",
"221 451 LINE",
"221 590 LINE",
"392 590 OFFCURVE",
"448 526 OFFCURVE",
"448 402 CURVE SMOOTH",
"448 261 OFFCURVE",
"381 208 OFFCURVE",
"221 208 CURVE"
);
}
);
width = 474;
}
);
unicode = 00DE;
},
{
glyphname = germandbls;
layers = (
{
layerId = "2EFD55B3-2F90-4AA8-864A-7457E925C2F5";
name = Regular;
paths = (
{
closed = 1;
nodes = (
"155 0 LINE",
"26 0 LINE",
"26 457 LINE SMOOTH",
"27 516 OFFCURVE",
"31 558 OFFCURVE",
"38 583 CURVE SMOOTH",
"87 744 OFFCURVE",
"406 767 OFFCURVE",
"406 518 CURVE SMOOTH",
"406 405 LINE",
"342 406 LINE",
"317 401 OFFCURVE",
"305 386 OFFCURVE",
"305 361 CURVE SMOOTH",
"305 339 OFFCURVE",
"334 318 OFFCURVE",
"391 299 CURVE SMOOTH",
"461 275 OFFCURVE",
"496 229 OFFCURVE",
"496 160 CURVE SMOOTH",
"496 60 OFFCURVE",
"424 0 OFFCURVE",
"327 0 CURVE SMOOTH",
"199 0 LINE",
"199 109 LINE",
"327 109 LINE",
"350 110 OFFCURVE",
"379 124 OFFCURVE",
"379 153 CURVE SMOOTH",
"379 174 OFFCURVE",
"364 189 OFFCURVE",
"349 197 CURVE",
"342 200 OFFCURVE",
"330 205 OFFCURVE",
"315 211 CURVE SMOOTH",
"299 217 OFFCURVE",
"286 223 OFFCURVE",
"276 228 CURVE SMOOTH",
"221 255 OFFCURVE",
"191 294 OFFCURVE",
"191 371 CURVE SMOOTH",
"191 440 OFFCURVE",
"237 486 OFFCURVE",
"294 507 CURVE",
"294 519 LINE SMOOTH",
"294 564 OFFCURVE",
"271 586 OFFCURVE",
"225 586 CURVE SMOOTH",
"178 586 OFFCURVE",
"155 557 OFFCURVE",
"155 498 CURVE SMOOTH"
);
}
);
width = 522;
}
);
unicode = 00DF;
},
{
glyphname = agrave;
layers = (
{
layerId = "2EFD55B3-2F90-4AA8-864A-7457E925C2F5";
name = Regular;
paths = (
{
closed = 1;
nodes = (
"159 580 LINE",
"86 732 LINE",
"213 732 LINE",
"250 580 LINE"
);
},
{
closed = 1;
nodes = (
"181 407 LINE",
"178 407 LINE",
"151 405 OFFCURVE",
"138 387 OFFCURVE",
"138 353 CURVE SMOOTH",
"138 349 LINE",
"33 389 LINE",
"33 391 LINE SMOOTH",
"33 459 OFFCURVE",
"107 519 OFFCURVE",
"178 519 CURVE SMOOTH",
"181 519 LINE"
);
},
{
closed = 1;
nodes = (
"228 519 LINE",
"231 519 LINE SMOOTH",
"323 519 OFFCURVE",
"384 436 OFFCURVE",
"384 380 CURVE SMOOTH",
"384 143 LINE SMOOTH",
"384 124 OFFCURVE",
"392 114 OFFCURVE",
"407 114 CURVE SMOOTH",
"410 114 LINE",
"410 1 LINE",
"407 1 LINE SMOOTH",
"372 1 OFFCURVE",
"344 11 OFFCURVE",
"321 30 CURVE",
"296 11 OFFCURVE",
"267 1 OFFCURVE",
"232 1 CURVE SMOOTH",
"229 1 LINE",
"229 113 LINE",
"232 113 LINE SMOOTH",
"249 113 OFFCURVE",
"262 129 OFFCURVE",
"266 139 CURVE",
"267 144 OFFCURVE",
"268 147 OFFCURVE",
"268 149 CURVE SMOOTH",
"268 227 LINE",
"253 218 OFFCURVE",
"229 209 OFFCURVE",
"194 199 CURVE SMOOTH",
"159 189 OFFCURVE",
"140 184 OFFCURVE",
"139 183 CURVE",
"131 179 OFFCURVE",
"127 172 OFFCURVE",
"127 162 CURVE SMOOTH",
"127 149 LINE SMOOTH",
"127 125 OFFCURVE",
"139 113 OFFCURVE",
"163 113 CURVE SMOOTH",
"180 113 LINE",
"180 1 LINE",
"88 1 OFFCURVE",
"26 60 OFFCURVE",
"26 121 CURVE SMOOTH",
"26 167 LINE SMOOTH",
"26 250 OFFCURVE",
"73 261 OFFCURVE",
"142 283 CURVE SMOOTH",
"176 294 OFFCURVE",
"206 305 OFFCURVE",
"231 316 CURVE SMOOTH",
"256 327 OFFCURVE",
"268 339 OFFCURVE",
"268 351 CURVE SMOOTH",
"268 363 LINE SMOOTH",
"268 391 OFFCURVE",
"263 404 OFFCURVE",
"231 407 CURVE",
"228 408 LINE"
);
}
);
width = 435;
}
);
unicode = 00E0;
},
{
glyphname = aacute;
layers = (
{
layerId = "2EFD55B3-2F90-4AA8-864A-7457E925C2F5";
name = Regular;
paths = (
{
closed = 1;
nodes = (
"250 580 LINE",
"159 580 LINE",
"196 732 LINE",
"323 732 LINE"
);
},
{
closed = 1;
nodes = (
"181 407 LINE",
"178 407 LINE",
"151 405 OFFCURVE",
"138 387 OFFCURVE",
"138 353 CURVE SMOOTH",
"138 349 LINE",
"33 389 LINE",
"33 391 LINE SMOOTH",
"33 459 OFFCURVE",
"107 519 OFFCURVE",
"178 519 CURVE SMOOTH",
"181 519 LINE"
);
},
{
closed = 1;
nodes = (
"228 519 LINE",
"231 519 LINE SMOOTH",
"323 519 OFFCURVE",
"384 436 OFFCURVE",
"384 380 CURVE SMOOTH",
"384 143 LINE SMOOTH",
"384 124 OFFCURVE",
"392 114 OFFCURVE",
"407 114 CURVE SMOOTH",
"410 114 LINE",
"410 1 LINE",
"407 1 LINE SMOOTH",
"372 1 OFFCURVE",
"344 11 OFFCURVE",
"321 30 CURVE",
"296 11 OFFCURVE",
"267 1 OFFCURVE",
"232 1 CURVE SMOOTH",
"229 1 LINE",
"229 113 LINE",
"232 113 LINE SMOOTH",
"249 113 OFFCURVE",
"262 129 OFFCURVE",
"266 139 CURVE",
"267 144 OFFCURVE",
"268 147 OFFCURVE",
"268 149 CURVE SMOOTH",
"268 227 LINE",
"253 218 OFFCURVE",
"229 209 OFFCURVE",
"194 199 CURVE SMOOTH",
"159 189 OFFCURVE",
"140 184 OFFCURVE",
"139 183 CURVE",
"131 179 OFFCURVE",
"127 172 OFFCURVE",
"127 162 CURVE SMOOTH",
"127 149 LINE SMOOTH",
"127 125 OFFCURVE",
"139 113 OFFCURVE",
"163 113 CURVE SMOOTH",
"180 113 LINE",
"180 1 LINE",
"88 1 OFFCURVE",
"26 60 OFFCURVE",
"26 121 CURVE SMOOTH",
"26 167 LINE SMOOTH",
"26 250 OFFCURVE",
"73 261 OFFCURVE",
"142 283 CURVE SMOOTH",
"176 294 OFFCURVE",
"206 305 OFFCURVE",
"231 316 CURVE SMOOTH",
"256 327 OFFCURVE",
"268 339 OFFCURVE",
"268 351 CURVE SMOOTH",
"268 363 LINE SMOOTH",
"268 391 OFFCURVE",
"263 404 OFFCURVE",
"231 407 CURVE",
"228 408 LINE"
);
}
);
width = 435;
}
);
unicode = 00E1;
},
{
glyphname = acircumflex;
layers = (
{
layerId = "2EFD55B3-2F90-4AA8-864A-7457E925C2F5";
name = Regular;
paths = (
{
closed = 1;
nodes = (
"96 580 LINE",
"171 732 LINE",
"237 732 LINE",
"314 580 LINE",
"232 580 LINE",
"204 637 LINE",
"177 580 LINE"
);
},
{
closed = 1;
nodes = (
"181 407 LINE",
"178 407 LINE",
"151 405 OFFCURVE",
"138 387 OFFCURVE",
"138 353 CURVE SMOOTH",
"138 349 LINE",
"33 389 LINE",
"33 391 LINE SMOOTH",
"33 459 OFFCURVE",
"107 519 OFFCURVE",
"178 519 CURVE SMOOTH",
"181 519 LINE"
);
},
{
closed = 1;
nodes = (
"228 519 LINE",
"231 519 LINE SMOOTH",
"323 519 OFFCURVE",
"384 436 OFFCURVE",
"384 380 CURVE SMOOTH",
"384 143 LINE SMOOTH",
"384 124 OFFCURVE",
"392 114 OFFCURVE",
"407 114 CURVE SMOOTH",
"410 114 LINE",
"410 1 LINE",
"407 1 LINE SMOOTH",
"372 1 OFFCURVE",
"344 11 OFFCURVE",
"321 30 CURVE",
"296 11 OFFCURVE",
"267 1 OFFCURVE",
"232 1 CURVE SMOOTH",
"229 1 LINE",
"229 113 LINE",
"232 113 LINE SMOOTH",
"249 113 OFFCURVE",
"262 129 OFFCURVE",
"266 139 CURVE",
"267 144 OFFCURVE",
"268 147 OFFCURVE",
"268 149 CURVE SMOOTH",
"268 227 LINE",
"253 218 OFFCURVE",
"229 209 OFFCURVE",
"194 199 CURVE SMOOTH",
"159 189 OFFCURVE",
"140 184 OFFCURVE",
"139 183 CURVE",
"131 179 OFFCURVE",
"127 172 OFFCURVE",
"127 162 CURVE SMOOTH",
"127 149 LINE SMOOTH",
"127 125 OFFCURVE",
"139 113 OFFCURVE",
"163 113 CURVE SMOOTH",
"180 113 LINE",
"180 1 LINE",
"88 1 OFFCURVE",
"26 60 OFFCURVE",
"26 121 CURVE SMOOTH",
"26 167 LINE SMOOTH",
"26 250 OFFCURVE",
"73 261 OFFCURVE",
"142 283 CURVE SMOOTH",
"176 294 OFFCURVE",
"206 305 OFFCURVE",
"231 316 CURVE SMOOTH",
"256 327 OFFCURVE",
"268 339 OFFCURVE",
"268 351 CURVE SMOOTH",
"268 363 LINE SMOOTH",
"268 391 OFFCURVE",
"263 404 OFFCURVE",
"231 407 CURVE",
"228 408 LINE"
);
}
);
width = 435;
}
);
unicode = 00E2;
},
{
glyphname = atilde;
layers = (
{
layerId = "2EFD55B3-2F90-4AA8-864A-7457E925C2F5";
name = Regular;
paths = (
{
closed = 1;
nodes = (
"345 590 LINE",
"315 571 OFFCURVE",
"287 562 OFFCURVE",
"261 562 CURVE SMOOTH",
"243 562 OFFCURVE",
"221 569 OFFCURVE",
"194 582 CURVE SMOOTH",
"167 595 OFFCURVE",
"145 602 OFFCURVE",
"130 602 CURVE SMOOTH",
"110 602 OFFCURVE",
"88 595 OFFCURVE",
"64 580 CURVE",
"64 682 LINE",
"90 697 OFFCURVE",
"113 704 OFFCURVE",
"134 704 CURVE SMOOTH",
"151 704 OFFCURVE",
"173 697 OFFCURVE",
"200 684 CURVE SMOOTH",
"227 670 OFFCURVE",
"248 663 OFFCURVE",
"265 663 CURVE SMOOTH",
"288 663 OFFCURVE",
"314 672 OFFCURVE",
"345 691 CURVE"
);
},
{
closed = 1;
nodes = (
"181 407 LINE",
"178 407 LINE",
"151 405 OFFCURVE",
"138 387 OFFCURVE",
"138 353 CURVE SMOOTH",
"138 349 LINE",
"33 389 LINE",
"33 391 LINE SMOOTH",
"33 459 OFFCURVE",
"107 519 OFFCURVE",
"178 519 CURVE SMOOTH",
"181 519 LINE"
);
},
{
closed = 1;
nodes = (
"228 519 LINE",
"231 519 LINE SMOOTH",
"323 519 OFFCURVE",
"384 436 OFFCURVE",
"384 380 CURVE SMOOTH",
"384 143 LINE SMOOTH",
"384 124 OFFCURVE",
"392 114 OFFCURVE",
"407 114 CURVE SMOOTH",
"410 114 LINE",
"410 1 LINE",
"407 1 LINE SMOOTH",
"372 1 OFFCURVE",
"344 11 OFFCURVE",
"321 30 CURVE",
"296 11 OFFCURVE",
"267 1 OFFCURVE",
"232 1 CURVE SMOOTH",
"229 1 LINE",
"229 113 LINE",
"232 113 LINE SMOOTH",
"249 113 OFFCURVE",
"262 129 OFFCURVE",
"266 139 CURVE",
"267 144 OFFCURVE",
"268 147 OFFCURVE",
"268 149 CURVE SMOOTH",
"268 227 LINE",
"253 218 OFFCURVE",
"229 209 OFFCURVE",
"194 199 CURVE SMOOTH",
"159 189 OFFCURVE",
"140 184 OFFCURVE",
"139 183 CURVE",
"131 179 OFFCURVE",
"127 172 OFFCURVE",
"127 162 CURVE SMOOTH",
"127 149 LINE SMOOTH",
"127 125 OFFCURVE",
"139 113 OFFCURVE",
"163 113 CURVE SMOOTH",
"180 113 LINE",
"180 1 LINE",
"88 1 OFFCURVE",
"26 60 OFFCURVE",
"26 121 CURVE SMOOTH",
"26 167 LINE SMOOTH",
"26 250 OFFCURVE",
"73 261 OFFCURVE",
"142 283 CURVE SMOOTH",
"176 294 OFFCURVE",
"206 305 OFFCURVE",
"231 316 CURVE SMOOTH",
"256 327 OFFCURVE",
"268 339 OFFCURVE",
"268 351 CURVE SMOOTH",
"268 363 LINE SMOOTH",
"268 391 OFFCURVE",
"263 404 OFFCURVE",
"231 407 CURVE",
"228 408 LINE"
);
}
);
width = 435;
}
);
unicode = 00E3;
},
{
glyphname = adieresis;
layers = (
{
layerId = "2EFD55B3-2F90-4AA8-864A-7457E925C2F5";
name = Regular;
paths = (
{
closed = 1;
nodes = (
"51 616 OFFCURVE",
"44 634 OFFCURVE",
"44 655 CURVE SMOOTH",
"44 698 OFFCURVE",
"78 731 OFFCURVE",
"119 731 CURVE SMOOTH",
"160 731 OFFCURVE",
"194 698 OFFCURVE",
"194 655 CURVE SMOOTH",
"194 612 OFFCURVE",
"160 580 OFFCURVE",
"119 580 CURVE SMOOTH",
"98 580 OFFCURVE",
"81 587 OFFCURVE",
"66 602 CURVE SMOOTH"
);
},
{
closed = 1;
nodes = (
"221 616 OFFCURVE",
"214 634 OFFCURVE",
"214 655 CURVE SMOOTH",
"214 698 OFFCURVE",
"248 731 OFFCURVE",
"289 731 CURVE SMOOTH",
"330 731 OFFCURVE",
"364 698 OFFCURVE",
"364 655 CURVE SMOOTH",
"364 612 OFFCURVE",
"330 580 OFFCURVE",
"289 580 CURVE SMOOTH",
"268 580 OFFCURVE",
"251 587 OFFCURVE",
"236 602 CURVE SMOOTH"
);
},
{
closed = 1;
nodes = (
"181 407 LINE",
"178 407 LINE",
"151 405 OFFCURVE",
"138 387 OFFCURVE",
"138 353 CURVE SMOOTH",
"138 349 LINE",
"33 389 LINE",
"33 391 LINE SMOOTH",
"33 459 OFFCURVE",
"107 519 OFFCURVE",
"178 519 CURVE SMOOTH",
"181 519 LINE"
);
},
{
closed = 1;
nodes = (
"228 519 LINE",
"231 519 LINE SMOOTH",
"323 519 OFFCURVE",
"384 436 OFFCURVE",
"384 380 CURVE SMOOTH",
"384 143 LINE SMOOTH",
"384 124 OFFCURVE",
"392 114 OFFCURVE",
"407 114 CURVE SMOOTH",
"410 114 LINE",
"410 1 LINE",
"407 1 LINE SMOOTH",
"372 1 OFFCURVE",
"344 11 OFFCURVE",
"321 30 CURVE",
"296 11 OFFCURVE",
"267 1 OFFCURVE",
"232 1 CURVE SMOOTH",
"229 1 LINE",
"229 113 LINE",
"232 113 LINE SMOOTH",
"249 113 OFFCURVE",
"262 129 OFFCURVE",
"266 139 CURVE",
"267 144 OFFCURVE",
"268 147 OFFCURVE",
"268 149 CURVE SMOOTH",
"268 227 LINE",
"253 218 OFFCURVE",
"229 209 OFFCURVE",
"194 199 CURVE SMOOTH",
"159 189 OFFCURVE",
"140 184 OFFCURVE",
"139 183 CURVE",
"131 179 OFFCURVE",
"127 172 OFFCURVE",
"127 162 CURVE SMOOTH",
"127 149 LINE SMOOTH",
"127 125 OFFCURVE",
"139 113 OFFCURVE",
"163 113 CURVE SMOOTH",
"180 113 LINE",
"180 1 LINE",
"88 1 OFFCURVE",
"26 60 OFFCURVE",
"26 121 CURVE SMOOTH",
"26 167 LINE SMOOTH",
"26 250 OFFCURVE",
"73 261 OFFCURVE",
"142 283 CURVE SMOOTH",
"176 294 OFFCURVE",
"206 305 OFFCURVE",
"231 316 CURVE SMOOTH",
"256 327 OFFCURVE",
"268 339 OFFCURVE",
"268 351 CURVE SMOOTH",
"268 363 LINE SMOOTH",
"268 391 OFFCURVE",
"263 404 OFFCURVE",
"231 407 CURVE",
"228 408 LINE"
);
}
);
width = 435;
}
);
unicode = 00E4;
},
{
glyphname = aring;
layers = (
{
layerId = "2EFD55B3-2F90-4AA8-864A-7457E925C2F5";
name = Regular;
paths = (
{
closed = 1;
nodes = (
"117 627 OFFCURVE",
"108 649 OFFCURVE",
"108 676 CURVE SMOOTH",
"108 729 OFFCURVE",
"151 772 OFFCURVE",
"204 772 CURVE SMOOTH",
"257 772 OFFCURVE",
"300 729 OFFCURVE",
"300 676 CURVE SMOOTH",
"300 623 OFFCURVE",
"257 580 OFFCURVE",
"204 580 CURVE SMOOTH",
"177 580 OFFCURVE",
"155 589 OFFCURVE",
"136 608 CURVE SMOOTH"
);
},
{
closed = 1;
nodes = (
"175 693 OFFCURVE",
"172 685 OFFCURVE",
"172 676 CURVE SMOOTH",
"172 657 OFFCURVE",
"185 644 OFFCURVE",
"204 644 CURVE SMOOTH",
"223 644 OFFCURVE",
"236 657 OFFCURVE",
"236 676 CURVE SMOOTH",
"236 695 OFFCURVE",
"223 708 OFFCURVE",
"204 708 CURVE SMOOTH",
"195 708 OFFCURVE",
"187 705 OFFCURVE",
"181 699 CURVE SMOOTH"
);
},
{
closed = 1;
nodes = (
"181 407 LINE",
"178 407 LINE",
"151 405 OFFCURVE",
"138 387 OFFCURVE",
"138 353 CURVE SMOOTH",
"138 349 LINE",
"33 389 LINE",
"33 391 LINE SMOOTH",
"33 459 OFFCURVE",
"107 519 OFFCURVE",
"178 519 CURVE SMOOTH",
"181 519 LINE"
);
},
{
closed = 1;
nodes = (
"228 519 LINE",
"231 519 LINE SMOOTH",
"323 519 OFFCURVE",
"384 436 OFFCURVE",
"384 380 CURVE SMOOTH",
"384 143 LINE SMOOTH",
"384 124 OFFCURVE",
"392 114 OFFCURVE",
"407 114 CURVE SMOOTH",
"410 114 LINE",
"410 1 LINE",
"407 1 LINE SMOOTH",
"372 1 OFFCURVE",
"344 11 OFFCURVE",
"321 30 CURVE",
"296 11 OFFCURVE",
"267 1 OFFCURVE",
"232 1 CURVE SMOOTH",
"229 1 LINE",
"229 113 LINE",
"232 113 LINE SMOOTH",
"249 113 OFFCURVE",
"262 129 OFFCURVE",
"266 139 CURVE",
"267 144 OFFCURVE",
"268 147 OFFCURVE",
"268 149 CURVE SMOOTH",
"268 227 LINE",
"253 218 OFFCURVE",
"229 209 OFFCURVE",
"194 199 CURVE SMOOTH",
"159 189 OFFCURVE",
"140 184 OFFCURVE",
"139 183 CURVE",
"131 179 OFFCURVE",
"127 172 OFFCURVE",
"127 162 CURVE SMOOTH",
"127 149 LINE SMOOTH",
"127 125 OFFCURVE",
"139 113 OFFCURVE",
"163 113 CURVE SMOOTH",
"180 113 LINE",
"180 1 LINE",
"88 1 OFFCURVE",
"26 60 OFFCURVE",
"26 121 CURVE SMOOTH",
"26 167 LINE SMOOTH",
"26 250 OFFCURVE",
"73 261 OFFCURVE",
"142 283 CURVE SMOOTH",
"176 294 OFFCURVE",
"206 305 OFFCURVE",
"231 316 CURVE SMOOTH",
"256 327 OFFCURVE",
"268 339 OFFCURVE",
"268 351 CURVE SMOOTH",
"268 363 LINE SMOOTH",
"268 391 OFFCURVE",
"263 404 OFFCURVE",
"231 407 CURVE",
"228 408 LINE"
);
}
);
width = 435;
}
);
unicode = 00E5;
},
{
glyphname = ae;
layers = (
{
layerId = "2EFD55B3-2F90-4AA8-864A-7457E925C2F5";
name = Regular;
paths = (
{
closed = 1;
nodes = (
"478 402 LINE",
"478 516 LINE",
"484 516 LINE SMOOTH",
"556 516 OFFCURVE",
"639 447 OFFCURVE",
"639 378 CURVE SMOOTH",
"639 208 LINE",
"384 208 LINE",
"384 143 LINE SMOOTH",
"384 121 OFFCURVE",
"398 109 OFFCURVE",
"425 108 CURVE",
"484 108 LINE SMOOTH",
"515 108 OFFCURVE",
"536 130 OFFCURVE",
"541 157 CURVE",
"640 120 LINE",
"624 55 OFFCURVE",
"555 0 OFFCURVE",
"484 0 CURVE SMOOTH",
"425 0 LINE SMOOTH",
"378 0 OFFCURVE",
"344 10 OFFCURVE",
"321 30 CURVE",
"296 11 OFFCURVE",
"267 1 OFFCURVE",
"232 1 CURVE SMOOTH",
"229 1 LINE",
"229 113 LINE",
"232 113 LINE SMOOTH",
"249 113 OFFCURVE",
"262 129 OFFCURVE",
"266 139 CURVE",
"267 144 OFFCURVE",
"268 147 OFFCURVE",
"268 149 CURVE SMOOTH",
"268 227 LINE",
"253 218 OFFCURVE",
"229 209 OFFCURVE",
"194 199 CURVE SMOOTH",
"159 189 OFFCURVE",
"140 184 OFFCURVE",
"139 183 CURVE",
"131 179 OFFCURVE",
"127 172 OFFCURVE",
"127 162 CURVE SMOOTH",
"127 149 LINE SMOOTH",
"127 125 OFFCURVE",
"139 113 OFFCURVE",
"163 113 CURVE SMOOTH",
"180 113 LINE",
"180 1 LINE",
"87 1 OFFCURVE",
"26 50 OFFCURVE",
"26 110 CURVE SMOOTH",
"26 180 LINE SMOOTH",
"26 216 OFFCURVE",
"35 234 OFFCURVE",
"75 257 CURVE SMOOTH",
"85 263 OFFCURVE",
"107 272 OFFCURVE",
"142 283 CURVE SMOOTH",
"176 294 OFFCURVE",
"206 305 OFFCURVE",
"231 316 CURVE SMOOTH",
"256 327 OFFCURVE",
"268 339 OFFCURVE",
"268 351 CURVE SMOOTH",
"268 363 LINE SMOOTH",
"268 392 OFFCURVE",
"263 407 OFFCURVE",
"231 407 CURVE SMOOTH",
"178 407 LINE SMOOTH",
"151 407 OFFCURVE",
"138 389 OFFCURVE",
"138 353 CURVE SMOOTH",
"138 349 LINE",
"33 389 LINE",
"33 391 LINE SMOOTH",
"33 459 OFFCURVE",
"107 519 OFFCURVE",
"178 519 CURVE SMOOTH",
"233 519 LINE SMOOTH",
"270 519 OFFCURVE",
"302 507 OFFCURVE",
"329 483 CURVE",
"357 505 OFFCURVE",
"389 516 OFFCURVE",
"424 516 CURVE SMOOTH",
"429 516 LINE",
"429 400 LINE",
"426 400 LINE SMOOTH",
"403 400 OFFCURVE",
"389 391 OFFCURVE",
"384 373 CURVE",
"384 324 LINE",
"525 324 LINE",
"525 369 LINE SMOOTH",
"525 391 OFFCURVE",
"511 402 OFFCURVE",
"482 402 CURVE SMOOTH"
);
}
);
width = 666;
}
);
unicode = 00E6;
},
{
glyphname = ccedilla;
layers = (
{
layerId = "2EFD55B3-2F90-4AA8-864A-7457E925C2F5";
name = Regular;
paths = (
{
closed = 1;
nodes = (
"270 -40 LINE",
"270 -128 OFFCURVE",
"219 -199 OFFCURVE",
"102 -199 CURVE",
"102 -108 LINE",
"153 -108 OFFCURVE",
"178 -85 OFFCURVE",
"178 -40 CURVE"
);
},
{
closed = 1;
nodes = (
"30 377 LINE SMOOTH",
"31 434 OFFCURVE",
"92 516 OFFCURVE",
"185 516 CURVE SMOOTH",
"191 516 LINE",
"191 400 LINE",
"185 400 LINE SMOOTH",
"166 400 OFFCURVE",
"154 390 OFFCURVE",
"151 383 CURVE",
"150 380 OFFCURVE",
"149 377 OFFCURVE",
"149 375 CURVE SMOOTH",
"149 141 LINE SMOOTH",
"149 139 OFFCURVE",
"150 136 OFFCURVE",
"152 133 CURVE",
"155 126 OFFCURVE",
"170 115 OFFCURVE",
"194 115 CURVE",
"199 114 LINE",
"199 0 LINE",
"194 0 LINE SMOOTH",
"139 0 OFFCURVE",
"93 23 OFFCURVE",
"69 54 CURVE SMOOTH",
"44 85 OFFCURVE",
"30 117 OFFCURVE",
"30 141 CURVE SMOOTH"
);
},
{
closed = 1;
nodes = (
"243 -1 LINE",
"243 116 LINE",
"249 116 LINE SMOOTH",
"250 116 OFFCURVE",
"253 116 OFFCURVE",
"256 117 CURVE",
"263 118 OFFCURVE",
"274 124 OFFCURVE",
"277 132 CURVE",
"280 137 OFFCURVE",
"281 145 OFFCURVE",
"281 156 CURVE SMOOTH",
"281 186 LINE",
"392 144 LINE",
"392 140 LINE SMOOTH",
"392 68 OFFCURVE",
"323 -1 OFFCURVE",
"250 -1 CURVE SMOOTH"
);
},
{
closed = 1;
nodes = (
"263 391 OFFCURVE",
"252 397 OFFCURVE",
"244 398 CURVE",
"239 399 LINE",
"236 399 LINE",
"233 399 LINE",
"233 516 LINE",
"239 516 LINE SMOOTH",
"312 516 OFFCURVE",
"381 448 OFFCURVE",
"381 376 CURVE SMOOTH",
"381 372 LINE",
"270 330 LINE",
"270 360 LINE SMOOTH",
"270 370 OFFCURVE",
"269 378 OFFCURVE",
"266 383 CURVE"
);
}
);
width = 418;
}
);
unicode = 00E7;
},
{
glyphname = egrave;
layers = (
{
layerId = "2EFD55B3-2F90-4AA8-864A-7457E925C2F5";
name = Regular;
paths = (
{
closed = 1;
nodes = (
"166 577 LINE",
"93 729 LINE",
"220 729 LINE",
"257 577 LINE"
);
},
{
closed = 1;
nodes = (
"236 0 LINE",
"236 111 LINE",
"242 111 LINE SMOOTH",
"271 112 OFFCURVE",
"294 132 OFFCURVE",
"298 153 CURVE",
"299 157 LINE",
"398 120 LINE",
"397 118 LINE",
"382 54 OFFCURVE",
"311 0 OFFCURVE",
"242 0 CURVE SMOOTH"
);
},
{
closed = 1;
nodes = (
"236 402 LINE",
"236 516 LINE",
"242 516 LINE SMOOTH",
"314 516 OFFCURVE",
"397 447 OFFCURVE",
"397 378 CURVE SMOOTH",
"397 208 LINE",
"148 208 LINE",
"148 141 LINE SMOOTH",
"148 139 OFFCURVE",
"149 136 OFFCURVE",
"151 131 CURVE",
"154 122 OFFCURVE",
"166 108 OFFCURVE",
"183 108 CURVE SMOOTH",
"188 108 LINE",
"188 0 LINE",
"183 0 LINE SMOOTH",
"90 0 OFFCURVE",
"26 84 OFFCURVE",
"26 141 CURVE SMOOTH",
"26 377 LINE SMOOTH",
"27 434 OFFCURVE",
"90 516 OFFCURVE",
"182 516 CURVE SMOOTH",
"187 516 LINE",
"187 400 LINE",
"184 400 LINE SMOOTH",
"159 400 OFFCURVE",
"148 384 OFFCURVE",
"148 369 CURVE SMOOTH",
"148 324 LINE",
"283 324 LINE",
"283 369 LINE SMOOTH",
"283 391 OFFCURVE",
"269 402 OFFCURVE",
"240 402 CURVE SMOOTH"
);
}
);
width = 424;
}
);
unicode = 00E8;
},
{
glyphname = eacute;
layers = (
{
layerId = "2EFD55B3-2F90-4AA8-864A-7457E925C2F5";
name = Regular;
paths = (
{
closed = 1;
nodes = (
"257 577 LINE",
"166 577 LINE",
"203 729 LINE",
"330 729 LINE"
);
},
{
closed = 1;
nodes = (
"236 0 LINE",
"236 111 LINE",
"242 111 LINE SMOOTH",
"271 112 OFFCURVE",
"294 132 OFFCURVE",
"298 153 CURVE",
"299 157 LINE",
"398 120 LINE",
"397 118 LINE",
"382 54 OFFCURVE",
"311 0 OFFCURVE",
"242 0 CURVE SMOOTH"
);
},
{
closed = 1;
nodes = (
"236 402 LINE",
"236 516 LINE",
"242 516 LINE SMOOTH",
"314 516 OFFCURVE",
"397 447 OFFCURVE",
"397 378 CURVE SMOOTH",
"397 208 LINE",
"148 208 LINE",
"148 141 LINE SMOOTH",
"148 139 OFFCURVE",
"149 136 OFFCURVE",
"151 131 CURVE",
"154 122 OFFCURVE",
"166 108 OFFCURVE",
"183 108 CURVE SMOOTH",
"188 108 LINE",
"188 0 LINE",
"183 0 LINE SMOOTH",
"90 0 OFFCURVE",
"26 84 OFFCURVE",
"26 141 CURVE SMOOTH",
"26 377 LINE SMOOTH",
"27 434 OFFCURVE",
"90 516 OFFCURVE",
"182 516 CURVE SMOOTH",
"187 516 LINE",
"187 400 LINE",
"184 400 LINE SMOOTH",
"159 400 OFFCURVE",
"148 384 OFFCURVE",
"148 369 CURVE SMOOTH",
"148 324 LINE",
"283 324 LINE",
"283 369 LINE SMOOTH",
"283 391 OFFCURVE",
"269 402 OFFCURVE",
"240 402 CURVE SMOOTH"
);
}
);
width = 424;
}
);
unicode = 00E9;
},
{
glyphname = ecircumflex;
layers = (
{
layerId = "2EFD55B3-2F90-4AA8-864A-7457E925C2F5";
name = Regular;
paths = (
{
closed = 1;
nodes = (
"103 577 LINE",
"178 729 LINE",
"244 729 LINE",
"321 577 LINE",
"239 577 LINE",
"211 634 LINE",
"184 577 LINE"
);
},
{
closed = 1;
nodes = (
"236 0 LINE",
"236 111 LINE",
"242 111 LINE SMOOTH",
"271 112 OFFCURVE",
"294 132 OFFCURVE",
"298 153 CURVE",
"299 157 LINE",
"398 120 LINE",
"397 118 LINE",
"382 54 OFFCURVE",
"311 0 OFFCURVE",
"242 0 CURVE SMOOTH"
);
},
{
closed = 1;
nodes = (
"236 402 LINE",
"236 516 LINE",
"242 516 LINE SMOOTH",
"314 516 OFFCURVE",
"397 447 OFFCURVE",
"397 378 CURVE SMOOTH",
"397 208 LINE",
"148 208 LINE",
"148 141 LINE SMOOTH",
"148 139 OFFCURVE",
"149 136 OFFCURVE",
"151 131 CURVE",
"154 122 OFFCURVE",
"166 108 OFFCURVE",
"183 108 CURVE SMOOTH",
"188 108 LINE",
"188 0 LINE",
"183 0 LINE SMOOTH",
"90 0 OFFCURVE",
"26 84 OFFCURVE",
"26 141 CURVE SMOOTH",
"26 377 LINE SMOOTH",
"27 434 OFFCURVE",
"90 516 OFFCURVE",
"182 516 CURVE SMOOTH",
"187 516 LINE",
"187 400 LINE",
"184 400 LINE SMOOTH",
"159 400 OFFCURVE",
"148 384 OFFCURVE",
"148 369 CURVE SMOOTH",
"148 324 LINE",
"283 324 LINE",
"283 369 LINE SMOOTH",
"283 391 OFFCURVE",
"269 402 OFFCURVE",
"240 402 CURVE SMOOTH"
);
}
);
width = 424;
}
);
unicode = 00EA;
},
{
glyphname = edieresis;
layers = (
{
layerId = "2EFD55B3-2F90-4AA8-864A-7457E925C2F5";
name = Regular;
paths = (
{
closed = 1;
nodes = (
"59 613 OFFCURVE",
"52 631 OFFCURVE",
"52 652 CURVE SMOOTH",
"52 695 OFFCURVE",
"86 728 OFFCURVE",
"127 728 CURVE SMOOTH",
"168 728 OFFCURVE",
"202 695 OFFCURVE",
"202 652 CURVE SMOOTH",
"202 609 OFFCURVE",
"168 577 OFFCURVE",
"127 577 CURVE SMOOTH",
"106 577 OFFCURVE",
"89 584 OFFCURVE",
"74 599 CURVE SMOOTH"
);
},
{
closed = 1;
nodes = (
"229 613 OFFCURVE",
"222 631 OFFCURVE",
"222 652 CURVE SMOOTH",
"222 695 OFFCURVE",
"256 728 OFFCURVE",
"297 728 CURVE SMOOTH",
"338 728 OFFCURVE",
"372 695 OFFCURVE",
"372 652 CURVE SMOOTH",
"372 609 OFFCURVE",
"338 577 OFFCURVE",
"297 577 CURVE SMOOTH",
"276 577 OFFCURVE",
"259 584 OFFCURVE",
"244 599 CURVE SMOOTH"
);
},
{
closed = 1;
nodes = (
"236 0 LINE",
"236 111 LINE",
"242 111 LINE SMOOTH",
"271 112 OFFCURVE",
"294 132 OFFCURVE",
"298 153 CURVE",
"299 157 LINE",
"398 120 LINE",
"397 118 LINE",
"382 54 OFFCURVE",
"311 0 OFFCURVE",
"242 0 CURVE SMOOTH"
);
},
{
closed = 1;
nodes = (
"236 402 LINE",
"236 516 LINE",
"242 516 LINE SMOOTH",
"314 516 OFFCURVE",
"397 447 OFFCURVE",
"397 378 CURVE SMOOTH",
"397 208 LINE",
"148 208 LINE",
"148 141 LINE SMOOTH",
"148 139 OFFCURVE",
"149 136 OFFCURVE",
"151 131 CURVE",
"154 122 OFFCURVE",
"166 108 OFFCURVE",
"183 108 CURVE SMOOTH",
"188 108 LINE",
"188 0 LINE",
"183 0 LINE SMOOTH",
"90 0 OFFCURVE",
"26 84 OFFCURVE",
"26 141 CURVE SMOOTH",
"26 377 LINE SMOOTH",
"27 434 OFFCURVE",
"90 516 OFFCURVE",
"182 516 CURVE SMOOTH",
"187 516 LINE",
"187 400 LINE",
"184 400 LINE SMOOTH",
"159 400 OFFCURVE",
"148 384 OFFCURVE",
"148 369 CURVE SMOOTH",
"148 324 LINE",
"283 324 LINE",
"283 369 LINE SMOOTH",
"283 391 OFFCURVE",
"269 402 OFFCURVE",
"240 402 CURVE SMOOTH"
);
}
);
width = 424;
}
);
unicode = 00EB;
},
{
glyphname = igrave;
layers = (
{
layerId = "2EFD55B3-2F90-4AA8-864A-7457E925C2F5";
name = Regular;
paths = (
{
closed = 1;
nodes = (
"54 577 LINE",
"-20 729 LINE",
"108 729 LINE",
"144 577 LINE"
);
},
{
closed = 1;
nodes = (
"161 0 LINE",
"39 0 LINE",
"39 516 LINE",
"161 516 LINE"
);
}
);
width = 199;
}
);
unicode = 00EC;
},
{
glyphname = iacute;
layers = (
{
layerId = "2EFD55B3-2F90-4AA8-864A-7457E925C2F5";
name = Regular;
paths = (
{
closed = 1;
nodes = (
"144 577 LINE",
"54 577 LINE",
"90 729 LINE",
"218 729 LINE"
);
},
{
closed = 1;
nodes = (
"161 0 LINE",
"39 0 LINE",
"39 516 LINE",
"161 516 LINE"
);
}
);
width = 199;
}
);
unicode = 00ED;
},
{
glyphname = icircumflex;
layers = (
{
layerId = "2EFD55B3-2F90-4AA8-864A-7457E925C2F5";
name = Regular;
paths = (
{
closed = 1;
nodes = (
"-22 577 LINE",
"53 729 LINE",
"119 729 LINE",
"196 577 LINE",
"114 577 LINE",
"86 634 LINE",
"59 577 LINE"
);
},
{
closed = 1;
nodes = (
"148 0 LINE",
"26 0 LINE",
"26 516 LINE",
"148 516 LINE"
);
}
);
width = 174;
}
);
unicode = 00EE;
},
{
glyphname = idieresis;
layers = (
{
layerId = "2EFD55B3-2F90-4AA8-864A-7457E925C2F5";
name = Regular;
paths = (
{
closed = 1;
nodes = (
"-61 694 OFFCURVE",
"-27 727 OFFCURVE",
"14 727 CURVE SMOOTH",
"55 727 OFFCURVE",
"89 694 OFFCURVE",
"89 651 CURVE SMOOTH",
"89 610 OFFCURVE",
"57 576 OFFCURVE",
"14 576 CURVE SMOOTH",
"-29 576 OFFCURVE",
"-61 610 OFFCURVE",
"-61 651 CURVE SMOOTH"
);
},
{
closed = 1;
nodes = (
"109 694 OFFCURVE",
"143 727 OFFCURVE",
"184 727 CURVE SMOOTH",
"225 727 OFFCURVE",
"259 694 OFFCURVE",
"259 651 CURVE SMOOTH",
"259 610 OFFCURVE",
"227 576 OFFCURVE",
"184 576 CURVE SMOOTH",
"141 576 OFFCURVE",
"109 610 OFFCURVE",
"109 651 CURVE SMOOTH"
);
},
{
closed = 1;
nodes = (
"161 0 LINE",
"39 0 LINE",
"39 516 LINE",
"161 516 LINE"
);
}
);
width = 199;
}
);
unicode = 00EF;
},
{
glyphname = eth;
layers = (
{
layerId = "2EFD55B3-2F90-4AA8-864A-7457E925C2F5";
name = Regular;
paths = (
{
closed = 1;
nodes = (
"28 376 LINE SMOOTH",
"28 433 OFFCURVE",
"90 516 OFFCURVE",
"186 516 CURVE SMOOTH",
"192 516 LINE",
"192 398 LINE",
"186 398 LINE SMOOTH",
"157 398 OFFCURVE",
"148 379 OFFCURVE",
"148 363 CURVE SMOOTH",
"148 154 LINE SMOOTH",
"148 129 OFFCURVE",
"161 117 OFFCURVE",
"186 117 CURVE SMOOTH",
"192 117 LINE",
"192 -1 LINE",
"186 -1 LINE SMOOTH",
"90 -1 OFFCURVE",
"28 84 OFFCURVE",
"28 141 CURVE SMOOTH"
);
},
{
closed = 1;
nodes = (
"210 541 LINE",
"192 598 LINE",
"242 614 LINE",
"231 626 OFFCURVE",
"215 637 OFFCURVE",
"192 647 CURVE",
"192 714 LINE",
"251 703 OFFCURVE",
"297 678 OFFCURVE",
"330 641 CURVE",
"380 657 LINE",
"398 599 LINE",
"364 588 LINE",
"383 549 OFFCURVE",
"392 500 OFFCURVE",
"392 442 CURVE SMOOTH",
"392 376 LINE",
"392 364 LINE",
"392 141 LINE SMOOTH",
"392 108 OFFCURVE",
"373 62 OFFCURVE",
"324 26 CURVE SMOOTH",
"299 8 OFFCURVE",
"271 -1 OFFCURVE",
"239 -1 CURVE SMOOTH",
"233 -1 LINE",
"233 117 LINE",
"239 117 LINE",
"266 118 OFFCURVE",
"275 136 OFFCURVE",
"275 152 CURVE SMOOTH",
"275 363 LINE SMOOTH",
"275 386 OFFCURVE",
"263 398 OFFCURVE",
"239 398 CURVE SMOOTH",
"233 398 LINE",
"233 516 LINE",
"239 516 LINE SMOOTH",
"252 516 OFFCURVE",
"263 515 OFFCURVE",
"273 512 CURVE",
"270 538 OFFCURVE",
"268 553 OFFCURVE",
"267 558 CURVE"
);
}
);
width = 420;
}
);
unicode = 00F0;
},
{
glyphname = ntilde;
layers = (
{
layerId = "2EFD55B3-2F90-4AA8-864A-7457E925C2F5";
name = Regular;
paths = (
{
closed = 1;
nodes = (
"357 590 LINE",
"327 571 OFFCURVE",
"299 562 OFFCURVE",
"273 562 CURVE SMOOTH",
"255 562 OFFCURVE",
"233 569 OFFCURVE",
"206 582 CURVE SMOOTH",
"179 595 OFFCURVE",
"157 602 OFFCURVE",
"142 602 CURVE SMOOTH",
"122 602 OFFCURVE",
"100 595 OFFCURVE",
"76 580 CURVE",
"76 682 LINE",
"102 697 OFFCURVE",
"125 704 OFFCURVE",
"146 704 CURVE SMOOTH",
"163 704 OFFCURVE",
"185 697 OFFCURVE",
"212 684 CURVE SMOOTH",
"239 670 OFFCURVE",
"260 663 OFFCURVE",
"277 663 CURVE SMOOTH",
"300 663 OFFCURVE",
"326 672 OFFCURVE",
"357 691 CURVE"
);
},
{
closed = 1;
nodes = (
"154 0 LINE",
"30 0 LINE",
"30 377 LINE SMOOTH",
"30 437 OFFCURVE",
"95 519 OFFCURVE",
"191 519 CURVE SMOOTH",
"196 519 LINE",
"196 398 LINE",
"191 398 LINE SMOOTH",
"172 398 OFFCURVE",
"160 387 OFFCURVE",
"157 380 CURVE",
"155 377 OFFCURVE",
"154 374 OFFCURVE",
"154 372 CURVE SMOOTH"
);
},
{
closed = 1;
nodes = (
"280 372 LINE SMOOTH",
"280 374 OFFCURVE",
"279 377 OFFCURVE",
"278 381 CURVE",
"274 388 OFFCURVE",
"260 398 OFFCURVE",
"243 398 CURVE SMOOTH",
"238 398 LINE",
"238 519 LINE",
"243 519 LINE SMOOTH",
"339 519 OFFCURVE",
"404 434 OFFCURVE",
"404 377 CURVE SMOOTH",
"404 0 LINE",
"280 0 LINE"
);
}
);
width = 434;
}
);
unicode = 00F1;
},
{
glyphname = ograve;
layers = (
{
layerId = "2EFD55B3-2F90-4AA8-864A-7457E925C2F5";
name = Regular;
paths = (
{
closed = 1;
nodes = (
"167 577 LINE",
"94 729 LINE",
"221 729 LINE",
"258 577 LINE"
);
},
{
closed = 1;
nodes = (
"233 398 LINE",
"233 516 LINE",
"239 516 LINE SMOOTH",
"331 516 OFFCURVE",
"392 433 OFFCURVE",
"392 376 CURVE SMOOTH",
"392 141 LINE SMOOTH",
"392 108 OFFCURVE",
"373 62 OFFCURVE",
"324 26 CURVE SMOOTH",
"299 8 OFFCURVE",
"271 -1 OFFCURVE",
"239 -1 CURVE SMOOTH",
"233 -1 LINE",
"233 117 LINE",
"239 117 LINE",
"266 118 OFFCURVE",
"275 136 OFFCURVE",
"275 152 CURVE SMOOTH",
"275 363 LINE SMOOTH",
"275 386 OFFCURVE",
"263 398 OFFCURVE",
"239 398 CURVE SMOOTH"
);
},
{
closed = 1;
nodes = (
"28 376 LINE SMOOTH",
"28 433 OFFCURVE",
"90 516 OFFCURVE",
"186 516 CURVE SMOOTH",
"192 516 LINE",
"192 398 LINE",
"186 398 LINE SMOOTH",
"157 398 OFFCURVE",
"148 379 OFFCURVE",
"148 363 CURVE SMOOTH",
"148 154 LINE SMOOTH",
"148 129 OFFCURVE",
"161 117 OFFCURVE",
"186 117 CURVE SMOOTH",
"192 117 LINE",
"192 -1 LINE",
"186 -1 LINE SMOOTH",
"90 -1 OFFCURVE",
"28 84 OFFCURVE",
"28 141 CURVE SMOOTH"
);
}
);
width = 420;
}
);
unicode = 00F2;
},
{
glyphname = oacute;
layers = (
{
layerId = "2EFD55B3-2F90-4AA8-864A-7457E925C2F5";
name = Regular;
paths = (
{
closed = 1;
nodes = (
"258 577 LINE",
"167 577 LINE",
"204 729 LINE",
"331 729 LINE"
);
},
{
closed = 1;
nodes = (
"233 398 LINE",
"233 516 LINE",
"239 516 LINE SMOOTH",
"331 516 OFFCURVE",
"392 433 OFFCURVE",
"392 376 CURVE SMOOTH",
"392 141 LINE SMOOTH",
"392 108 OFFCURVE",
"373 62 OFFCURVE",
"324 26 CURVE SMOOTH",
"299 8 OFFCURVE",
"271 -1 OFFCURVE",
"239 -1 CURVE SMOOTH",
"233 -1 LINE",
"233 117 LINE",
"239 117 LINE",
"266 118 OFFCURVE",
"275 136 OFFCURVE",
"275 152 CURVE SMOOTH",
"275 363 LINE SMOOTH",
"275 386 OFFCURVE",
"263 398 OFFCURVE",
"239 398 CURVE SMOOTH"
);
},
{
closed = 1;
nodes = (
"28 376 LINE SMOOTH",
"28 433 OFFCURVE",
"90 516 OFFCURVE",
"186 516 CURVE SMOOTH",
"192 516 LINE",
"192 398 LINE",
"186 398 LINE SMOOTH",
"157 398 OFFCURVE",
"148 379 OFFCURVE",
"148 363 CURVE SMOOTH",
"148 154 LINE SMOOTH",
"148 129 OFFCURVE",
"161 117 OFFCURVE",
"186 117 CURVE SMOOTH",
"192 117 LINE",
"192 -1 LINE",
"186 -1 LINE SMOOTH",
"90 -1 OFFCURVE",
"28 84 OFFCURVE",
"28 141 CURVE SMOOTH"
);
}
);
width = 420;
}
);
unicode = 00F3;
},
{
glyphname = ocircumflex;
layers = (
{
layerId = "2EFD55B3-2F90-4AA8-864A-7457E925C2F5";
name = Regular;
paths = (
{
closed = 1;
nodes = (
"104 577 LINE",
"179 729 LINE",
"245 729 LINE",
"322 577 LINE",
"240 577 LINE",
"212 634 LINE",
"185 577 LINE"
);
},
{
closed = 1;
nodes = (
"233 398 LINE",
"233 516 LINE",
"239 516 LINE SMOOTH",
"331 516 OFFCURVE",
"392 433 OFFCURVE",
"392 376 CURVE SMOOTH",
"392 141 LINE SMOOTH",
"392 108 OFFCURVE",
"373 62 OFFCURVE",
"324 26 CURVE SMOOTH",
"299 8 OFFCURVE",
"271 -1 OFFCURVE",
"239 -1 CURVE SMOOTH",
"233 -1 LINE",
"233 117 LINE",
"239 117 LINE",
"266 118 OFFCURVE",
"275 136 OFFCURVE",
"275 152 CURVE SMOOTH",
"275 363 LINE SMOOTH",
"275 386 OFFCURVE",
"263 398 OFFCURVE",
"239 398 CURVE SMOOTH"
);
},
{
closed = 1;
nodes = (
"28 376 LINE SMOOTH",
"28 433 OFFCURVE",
"90 516 OFFCURVE",
"186 516 CURVE SMOOTH",
"192 516 LINE",
"192 398 LINE",
"186 398 LINE SMOOTH",
"157 398 OFFCURVE",
"148 379 OFFCURVE",
"148 363 CURVE SMOOTH",
"148 154 LINE SMOOTH",
"148 129 OFFCURVE",
"161 117 OFFCURVE",
"186 117 CURVE SMOOTH",
"192 117 LINE",
"192 -1 LINE",
"186 -1 LINE SMOOTH",
"90 -1 OFFCURVE",
"28 84 OFFCURVE",
"28 141 CURVE SMOOTH"
);
}
);
width = 420;
}
);
unicode = 00F4;
},
{
glyphname = otilde;
layers = (
{
layerId = "2EFD55B3-2F90-4AA8-864A-7457E925C2F5";
name = Regular;
paths = (
{
closed = 1;
nodes = (
"353 587 LINE",
"323 568 OFFCURVE",
"295 559 OFFCURVE",
"269 559 CURVE SMOOTH",
"251 559 OFFCURVE",
"229 566 OFFCURVE",
"202 579 CURVE SMOOTH",
"175 592 OFFCURVE",
"153 599 OFFCURVE",
"138 599 CURVE SMOOTH",
"118 599 OFFCURVE",
"96 592 OFFCURVE",
"72 577 CURVE",
"72 679 LINE",
"98 694 OFFCURVE",
"121 701 OFFCURVE",
"142 701 CURVE SMOOTH",
"159 701 OFFCURVE",
"181 694 OFFCURVE",
"208 681 CURVE SMOOTH",
"235 667 OFFCURVE",
"256 660 OFFCURVE",
"273 660 CURVE SMOOTH",
"296 660 OFFCURVE",
"322 669 OFFCURVE",
"353 688 CURVE"
);
},
{
closed = 1;
nodes = (
"233 398 LINE",
"233 516 LINE",
"239 516 LINE SMOOTH",
"331 516 OFFCURVE",
"392 433 OFFCURVE",
"392 376 CURVE SMOOTH",
"392 141 LINE SMOOTH",
"392 108 OFFCURVE",
"373 62 OFFCURVE",
"324 26 CURVE SMOOTH",
"299 8 OFFCURVE",
"271 -1 OFFCURVE",
"239 -1 CURVE SMOOTH",
"233 -1 LINE",
"233 117 LINE",
"239 117 LINE",
"266 118 OFFCURVE",
"275 136 OFFCURVE",
"275 152 CURVE SMOOTH",
"275 363 LINE SMOOTH",
"275 386 OFFCURVE",
"263 398 OFFCURVE",
"239 398 CURVE SMOOTH"
);
},
{
closed = 1;
nodes = (
"28 376 LINE SMOOTH",
"28 433 OFFCURVE",
"90 516 OFFCURVE",
"186 516 CURVE SMOOTH",
"192 516 LINE",
"192 398 LINE",
"186 398 LINE SMOOTH",
"157 398 OFFCURVE",
"148 379 OFFCURVE",
"148 363 CURVE SMOOTH",
"148 154 LINE SMOOTH",
"148 129 OFFCURVE",
"161 117 OFFCURVE",
"186 117 CURVE SMOOTH",
"192 117 LINE",
"192 -1 LINE",
"186 -1 LINE SMOOTH",
"90 -1 OFFCURVE",
"28 84 OFFCURVE",
"28 141 CURVE SMOOTH"
);
}
);
width = 420;
}
);
unicode = 00F5;
},
{
glyphname = odieresis;
layers = (
{
layerId = "2EFD55B3-2F90-4AA8-864A-7457E925C2F5";
name = Regular;
paths = (
{
closed = 1;
nodes = (
"59 613 OFFCURVE",
"52 631 OFFCURVE",
"52 652 CURVE SMOOTH",
"52 695 OFFCURVE",
"86 728 OFFCURVE",
"127 728 CURVE SMOOTH",
"168 728 OFFCURVE",
"202 695 OFFCURVE",
"202 652 CURVE SMOOTH",
"202 609 OFFCURVE",
"168 577 OFFCURVE",
"127 577 CURVE SMOOTH",
"106 577 OFFCURVE",
"89 584 OFFCURVE",
"74 599 CURVE SMOOTH"
);
},
{
closed = 1;
nodes = (
"229 613 OFFCURVE",
"222 631 OFFCURVE",
"222 652 CURVE SMOOTH",
"222 695 OFFCURVE",
"256 728 OFFCURVE",
"297 728 CURVE SMOOTH",
"338 728 OFFCURVE",
"372 695 OFFCURVE",
"372 652 CURVE SMOOTH",
"372 609 OFFCURVE",
"338 577 OFFCURVE",
"297 577 CURVE SMOOTH",
"276 577 OFFCURVE",
"259 584 OFFCURVE",
"244 599 CURVE SMOOTH"
);
},
{
closed = 1;
nodes = (
"233 398 LINE",
"233 516 LINE",
"239 516 LINE SMOOTH",
"331 516 OFFCURVE",
"392 433 OFFCURVE",
"392 376 CURVE SMOOTH",
"392 141 LINE SMOOTH",
"392 108 OFFCURVE",
"373 62 OFFCURVE",
"324 26 CURVE SMOOTH",
"299 8 OFFCURVE",
"271 -1 OFFCURVE",
"239 -1 CURVE SMOOTH",
"233 -1 LINE",
"233 117 LINE",
"239 117 LINE",
"266 118 OFFCURVE",
"275 136 OFFCURVE",
"275 152 CURVE SMOOTH",
"275 363 LINE SMOOTH",
"275 386 OFFCURVE",
"263 398 OFFCURVE",
"239 398 CURVE SMOOTH"
);
},
{
closed = 1;
nodes = (
"28 376 LINE SMOOTH",
"28 433 OFFCURVE",
"90 516 OFFCURVE",
"186 516 CURVE SMOOTH",
"192 516 LINE",
"192 398 LINE",
"186 398 LINE SMOOTH",
"157 398 OFFCURVE",
"148 379 OFFCURVE",
"148 363 CURVE SMOOTH",
"148 154 LINE SMOOTH",
"148 129 OFFCURVE",
"161 117 OFFCURVE",
"186 117 CURVE SMOOTH",
"192 117 LINE",
"192 -1 LINE",
"186 -1 LINE SMOOTH",
"90 -1 OFFCURVE",
"28 84 OFFCURVE",
"28 141 CURVE SMOOTH"
);
}
);
width = 420;
}
);
unicode = 00F6;
},
{
glyphname = divide;
layers = (
{
layerId = "2EFD55B3-2F90-4AA8-864A-7457E925C2F5";
name = Regular;
paths = (
{
closed = 1;
nodes = (
"550 355 LINE",
"550 228 LINE",
"100 228 LINE",
"100 355 LINE"
);
},
{
closed = 1;
nodes = (
"253 429 OFFCURVE",
"246 447 OFFCURVE",
"246 468 CURVE SMOOTH",
"246 511 OFFCURVE",
"280 544 OFFCURVE",
"321 544 CURVE SMOOTH",
"362 544 OFFCURVE",
"396 511 OFFCURVE",
"396 468 CURVE SMOOTH",
"396 425 OFFCURVE",
"362 393 OFFCURVE",
"321 393 CURVE SMOOTH",
"300 393 OFFCURVE",
"283 400 OFFCURVE",
"268 415 CURVE SMOOTH"
);
},
{
closed = 1;
nodes = (
"246 158 OFFCURVE",
"280 191 OFFCURVE",
"321 191 CURVE SMOOTH",
"362 191 OFFCURVE",
"396 158 OFFCURVE",
"396 115 CURVE SMOOTH",
"396 74 OFFCURVE",
"362 40 OFFCURVE",
"321 40 CURVE SMOOTH",
"280 40 OFFCURVE",
"246 74 OFFCURVE",
"246 115 CURVE SMOOTH"
);
}
);
width = 650;
}
);
unicode = 00F7;
},
{
glyphname = oslash;
layers = (
{
layerId = "2EFD55B3-2F90-4AA8-864A-7457E925C2F5";
name = Regular;
paths = (
{
closed = 1;
nodes = (
"445 490 LINE",
"498 430 LINE",
"431 369 LINE",
"431 141 LINE SMOOTH",
"431 108 OFFCURVE",
"412 62 OFFCURVE",
"363 26 CURVE SMOOTH",
"338 8 OFFCURVE",
"310 -1 OFFCURVE",
"278 -1 CURVE SMOOTH",
"272 -1 LINE",
"272 117 LINE",
"278 117 LINE",
"305 118 OFFCURVE",
"314 136 OFFCURVE",
"314 152 CURVE SMOOTH",
"314 261 LINE",
"188 145 LINE",
"191 126 OFFCURVE",
"203 117 OFFCURVE",
"225 117 CURVE SMOOTH",
"231 117 LINE",
"231 -1 LINE",
"225 -1 LINE SMOOTH",
"172 -1 OFFCURVE",
"129 20 OFFCURVE",
"98 63 CURVE",
"53 22 LINE",
"0 82 LINE",
"67 143 LINE",
"67 376 LINE SMOOTH",
"67 433 OFFCURVE",
"129 516 OFFCURVE",
"225 516 CURVE SMOOTH",
"231 516 LINE",
"231 398 LINE",
"225 398 LINE SMOOTH",
"196 398 OFFCURVE",
"187 379 OFFCURVE",
"187 363 CURVE SMOOTH",
"187 253 LINE",
"314 370 LINE",
"311 389 OFFCURVE",
"299 398 OFFCURVE",
"278 398 CURVE SMOOTH",
"272 398 LINE",
"272 516 LINE",
"278 516 LINE SMOOTH",
"331 516 OFFCURVE",
"372 494 OFFCURVE",
"402 451 CURVE"
);
}
);
width = 498;
}
);
unicode = 00F8;
},
{
glyphname = ugrave;
layers = (
{
layerId = "2EFD55B3-2F90-4AA8-864A-7457E925C2F5";
name = Regular;
paths = (
{
closed = 1;
nodes = (
"172 577 LINE",
"99 729 LINE",
"226 729 LINE",
"263 577 LINE"
);
},
{
closed = 1;
nodes = (
"30 514 LINE",
"154 514 LINE",
"154 142 LINE SMOOTH",
"154 140 OFFCURVE",
"155 137 OFFCURVE",
"157 134 CURVE",
"160 126 OFFCURVE",
"172 116 OFFCURVE",
"191 116 CURVE SMOOTH",
"196 116 LINE",
"196 -5 LINE",
"191 -5 LINE SMOOTH",
"95 -5 OFFCURVE",
"30 77 OFFCURVE",
"30 137 CURVE SMOOTH"
);
},
{
closed = 1;
nodes = (
"238 116 LINE",
"243 116 LINE SMOOTH",
"262 116 OFFCURVE",
"274 127 OFFCURVE",
"278 134 CURVE",
"279 137 OFFCURVE",
"280 140 OFFCURVE",
"280 142 CURVE SMOOTH",
"280 514 LINE",
"404 514 LINE",
"404 137 LINE SMOOTH",
"404 80 OFFCURVE",
"339 -5 OFFCURVE",
"243 -5 CURVE SMOOTH",
"238 -5 LINE"
);
}
);
width = 434;
}
);
unicode = 00F9;
},
{
glyphname = uacute;
layers = (
{
layerId = "2EFD55B3-2F90-4AA8-864A-7457E925C2F5";
name = Regular;
paths = (
{
closed = 1;
nodes = (
"263 577 LINE",
"172 577 LINE",
"209 729 LINE",
"336 729 LINE"
);
},
{
closed = 1;
nodes = (
"30 514 LINE",
"154 514 LINE",
"154 142 LINE SMOOTH",
"154 140 OFFCURVE",
"155 137 OFFCURVE",
"157 134 CURVE",
"160 126 OFFCURVE",
"172 116 OFFCURVE",
"191 116 CURVE SMOOTH",
"196 116 LINE",
"196 -5 LINE",
"191 -5 LINE SMOOTH",
"95 -5 OFFCURVE",
"30 77 OFFCURVE",
"30 137 CURVE SMOOTH"
);
},
{
closed = 1;
nodes = (
"238 116 LINE",
"243 116 LINE SMOOTH",
"262 116 OFFCURVE",
"274 127 OFFCURVE",
"278 134 CURVE",
"279 137 OFFCURVE",
"280 140 OFFCURVE",
"280 142 CURVE SMOOTH",
"280 514 LINE",
"404 514 LINE",
"404 137 LINE SMOOTH",
"404 80 OFFCURVE",
"339 -5 OFFCURVE",
"243 -5 CURVE SMOOTH",
"238 -5 LINE"
);
}
);
width = 434;
}
);
unicode = 00FA;
},
{
glyphname = ucircumflex;
layers = (
{
layerId = "2EFD55B3-2F90-4AA8-864A-7457E925C2F5";
name = Regular;
paths = (
{
closed = 1;
nodes = (
"108 577 LINE",
"183 729 LINE",
"249 729 LINE",
"326 577 LINE",
"244 577 LINE",
"216 634 LINE",
"189 577 LINE"
);
},
{
closed = 1;
nodes = (
"30 514 LINE",
"154 514 LINE",
"154 142 LINE SMOOTH",
"154 140 OFFCURVE",
"155 137 OFFCURVE",
"157 134 CURVE",
"160 126 OFFCURVE",
"172 116 OFFCURVE",
"191 116 CURVE SMOOTH",
"196 116 LINE",
"196 -5 LINE",
"191 -5 LINE SMOOTH",
"95 -5 OFFCURVE",
"30 77 OFFCURVE",
"30 137 CURVE SMOOTH"
);
},
{
closed = 1;
nodes = (
"238 116 LINE",
"243 116 LINE SMOOTH",
"262 116 OFFCURVE",
"274 127 OFFCURVE",
"278 134 CURVE",
"279 137 OFFCURVE",
"280 140 OFFCURVE",
"280 142 CURVE SMOOTH",
"280 514 LINE",
"404 514 LINE",
"404 137 LINE SMOOTH",
"404 80 OFFCURVE",
"339 -5 OFFCURVE",
"243 -5 CURVE SMOOTH",
"238 -5 LINE"
);
}
);
width = 434;
}
);
unicode = 00FB;
},
{
glyphname = udieresis;
layers = (
{
layerId = "2EFD55B3-2F90-4AA8-864A-7457E925C2F5";
name = Regular;
paths = (
{
closed = 1;
nodes = (
"64 613 OFFCURVE",
"57 631 OFFCURVE",
"57 652 CURVE SMOOTH",
"57 695 OFFCURVE",
"91 728 OFFCURVE",
"132 728 CURVE SMOOTH",
"173 728 OFFCURVE",
"207 695 OFFCURVE",
"207 652 CURVE SMOOTH",
"207 609 OFFCURVE",
"173 577 OFFCURVE",
"132 577 CURVE SMOOTH",
"111 577 OFFCURVE",
"94 584 OFFCURVE",
"79 599 CURVE SMOOTH"
);
},
{
closed = 1;
nodes = (
"234 613 OFFCURVE",
"227 631 OFFCURVE",
"227 652 CURVE SMOOTH",
"227 695 OFFCURVE",
"261 728 OFFCURVE",
"302 728 CURVE SMOOTH",
"343 728 OFFCURVE",
"377 695 OFFCURVE",
"377 652 CURVE SMOOTH",
"377 609 OFFCURVE",
"343 577 OFFCURVE",
"302 577 CURVE SMOOTH",
"281 577 OFFCURVE",
"264 584 OFFCURVE",
"249 599 CURVE SMOOTH"
);
},
{
closed = 1;
nodes = (
"30 514 LINE",
"154 514 LINE",
"154 142 LINE SMOOTH",
"154 140 OFFCURVE",
"155 137 OFFCURVE",
"157 134 CURVE",
"160 126 OFFCURVE",
"172 116 OFFCURVE",
"191 116 CURVE SMOOTH",
"196 116 LINE",
"196 -5 LINE",
"191 -5 LINE SMOOTH",
"95 -5 OFFCURVE",
"30 77 OFFCURVE",
"30 137 CURVE SMOOTH"
);
},
{
closed = 1;
nodes = (
"238 116 LINE",
"243 116 LINE SMOOTH",
"262 116 OFFCURVE",
"274 127 OFFCURVE",
"278 134 CURVE",
"279 137 OFFCURVE",
"280 140 OFFCURVE",
"280 142 CURVE SMOOTH",
"280 514 LINE",
"404 514 LINE",
"404 137 LINE SMOOTH",
"404 80 OFFCURVE",
"339 -5 OFFCURVE",
"243 -5 CURVE SMOOTH",
"238 -5 LINE"
);
}
);
width = 434;
}
);
unicode = 00FC;
},
{
glyphname = yacute;
layers = (
{
layerId = "2EFD55B3-2F90-4AA8-864A-7457E925C2F5";
name = Regular;
paths = (
{
closed = 1;
nodes = (
"236 577 LINE",
"145 577 LINE",
"182 729 LINE",
"309 729 LINE"
);
},
{
closed = 1;
nodes = (
"251 515 LINE",
"382 514 LINE",
"279 208 LINE",
"267 208 LINE",
"213 393 LINE"
);
},
{
closed = 1;
nodes = (
"118 113 LINE",
"0 514 LINE",
"131 515 LINE",
"188 327 LINE",
"188 328 OFFCURVE",
"188 328 OFFCURVE",
"189 328 CURVE",
"189 328 OFFCURVE",
"189 328 OFFCURVE",
"189 329 CURVE",
"252 111 LINE",
"155 -182 LINE",
"29 -182 LINE"
);
}
);
width = 383;
}
);
unicode = 00FD;
},
{
glyphname = thorn;
layers = (
{
layerId = "2EFD55B3-2F90-4AA8-864A-7457E925C2F5";
name = Regular;
paths = (
{
closed = 1;
nodes = (
"30 700 LINE",
"155 700 LINE",
"155 -182 LINE",
"30 -182 LINE"
);
},
{
closed = 1;
nodes = (
"203 0 LINE",
"203 118 LINE",
"234 118 LINE",
"262 119 OFFCURVE",
"276 127 OFFCURVE",
"276 143 CURVE SMOOTH",
"276 372 LINE SMOOTH",
"276 385 OFFCURVE",
"257 398 OFFCURVE",
"228 398 CURVE SMOOTH",
"196 398 LINE",
"196 516 LINE",
"228 516 LINE SMOOTH",
"327 516 OFFCURVE",
"396 439 OFFCURVE",
"396 375 CURVE SMOOTH",
"396 139 LINE SMOOTH",
"396 75 OFFCURVE",
"335 0 OFFCURVE",
"232 0 CURVE SMOOTH"
);
}
);
width = 422;
}
);
unicode = 00FE;
},
{
glyphname = ydieresis;
layers = (
{
layerId = "2EFD55B3-2F90-4AA8-864A-7457E925C2F5";
name = Regular;
paths = (
{
closed = 1;
nodes = (
"38 613 OFFCURVE",
"31 631 OFFCURVE",
"31 652 CURVE SMOOTH",
"31 695 OFFCURVE",
"65 728 OFFCURVE",
"106 728 CURVE SMOOTH",
"147 728 OFFCURVE",
"181 695 OFFCURVE",
"181 652 CURVE SMOOTH",
"181 609 OFFCURVE",
"147 577 OFFCURVE",
"106 577 CURVE SMOOTH",
"85 577 OFFCURVE",
"68 584 OFFCURVE",
"53 599 CURVE SMOOTH"
);
},
{
closed = 1;
nodes = (
"208 613 OFFCURVE",
"201 631 OFFCURVE",
"201 652 CURVE SMOOTH",
"201 695 OFFCURVE",
"235 728 OFFCURVE",
"276 728 CURVE SMOOTH",
"317 728 OFFCURVE",
"351 695 OFFCURVE",
"351 652 CURVE SMOOTH",
"351 609 OFFCURVE",
"317 577 OFFCURVE",
"276 577 CURVE SMOOTH",
"255 577 OFFCURVE",
"238 584 OFFCURVE",
"223 599 CURVE SMOOTH"
);
},
{
closed = 1;
nodes = (
"251 515 LINE",
"382 514 LINE",
"279 208 LINE",
"267 208 LINE",
"213 393 LINE"
);
},
{
closed = 1;
nodes = (
"118 113 LINE",
"0 514 LINE",
"131 515 LINE",
"188 327 LINE",
"188 328 OFFCURVE",
"188 328 OFFCURVE",
"189 328 CURVE",
"189 328 OFFCURVE",
"189 328 OFFCURVE",
"189 329 CURVE",
"252 111 LINE",
"155 -182 LINE",
"29 -182 LINE"
);
}
);
width = 383;
}
);
unicode = 00FF;
},
{
glyphname = EURO;
layers = (
{
layerId = "2EFD55B3-2F90-4AA8-864A-7457E925C2F5";
name = Regular;
paths = (
{
closed = 1;
nodes = (
"338 142 LINE",
"367 151 OFFCURVE",
"381 170 OFFCURVE",
"381 199 CURVE",
"380 237 LINE",
"517 186 LINE",
"517 151 OFFCURVE",
"499 99 OFFCURVE",
"464 64 CURVE SMOOTH",
"425 23 OFFCURVE",
"383 3 OFFCURVE",
"338 2 CURVE"
);
},
{
closed = 1;
nodes = (
"338 698 LINE",
"383 697 OFFCURVE",
"425 677 OFFCURVE",
"464 636 CURVE SMOOTH",
"499 601 OFFCURVE",
"517 549 OFFCURVE",
"517 514 CURVE",
"380 463 LINE",
"381 501 LINE SMOOTH",
"381 530 OFFCURVE",
"367 549 OFFCURVE",
"338 558 CURVE"
);
},
{
closed = 1;
nodes = (
"278 558 LINE",
"241 543 OFFCURVE",
"236 533 OFFCURVE",
"236 488 CURVE SMOOTH",
"236 436 LINE",
"408 436 LINE",
"408 376 LINE",
"236 376 LINE",
"236 317 LINE",
"408 317 LINE",
"408 258 LINE",
"236 258 LINE",
"236 202 LINE SMOOTH",
"236 183 OFFCURVE",
"237 172 OFFCURVE",
"245 164 CURVE",
"249 159 OFFCURVE",
"252 156 OFFCURVE",
"253 155 CURVE SMOOTH",
"254 154 OFFCURVE",
"258 151 OFFCURVE",
"266 148 CURVE",
"273 144 OFFCURVE",
"277 142 OFFCURVE",
"278 141 CURVE",
"278 2 LINE",
"227 6 OFFCURVE",
"188 28 OFFCURVE",
"170 47 CURVE SMOOTH",
"161 56 OFFCURVE",
"149 71 OFFCURVE",
"134 90 CURVE",
"113 119 OFFCURVE",
"101 149 OFFCURVE",
"99 182 CURVE",
"99 258 LINE",
"50 258 LINE",
"50 317 LINE",
"99 317 LINE",
"99 377 LINE",
"50 377 LINE",
"50 436 LINE",
"99 436 LINE",
"99 496 LINE SMOOTH",
"99 591 OFFCURVE",
"165 694 OFFCURVE",
"278 698 CURVE"
);
}
);
width = 567;
}
);
unicode = 20AC;
},
{
glyphname = HKD;
layers = (
{
layerId = "2EFD55B3-2F90-4AA8-864A-7457E925C2F5";
name = Regular;
paths = (
{
closed = 1;
nodes = (
"126 698 LINE",
"169 698 LINE",
"169 488 LINE",
"126 488 LINE",
"126 573 LINE",
"117 573 LINE",
"117 614 LINE",
"126 614 LINE"
);
},
{
closed = 1;
nodes = (
"198 698 LINE",
"241 698 LINE",
"241 488 LINE",
"198 488 LINE"
);
},
{
closed = 1;
nodes = (
"283 698 LINE",
"325 698 LINE",
"299 611 LINE",
"326 488 LINE",
"284 488 LINE",
"257 611 LINE"
);
},
{
closed = 1;
nodes = (
"101 614 LINE",
"101 573 LINE",
"92 573 LINE",
"92 488 LINE",
"50 488 LINE",
"50 698 LINE",
"92 698 LINE",
"92 614 LINE"
);
},
{
closed = 1;
nodes = (
"535 -47 LINE",
"464 -47 LINE",
"464 13 LINE",
"399 44 OFFCURVE",
"353 111 OFFCURVE",
"352 158 CURVE",
"479 203 LINE",
"480 170 OFFCURVE",
"503 142 OFFCURVE",
"522 134 CURVE",
"535 127 LINE"
);
},
{
closed = 1;
nodes = (
"661 682 LINE",
"717 653 OFFCURVE",
"758 588 OFFCURVE",
"765 553 CURVE",
"635 510 LINE",
"632 538 OFFCURVE",
"613 559 OFFCURVE",
"600 564 CURVE SMOOTH",
"590 568 LINE",
"590 750 LINE",
"661 750 LINE"
);
},
{
closed = 1;
nodes = (
"535 750 LINE",
"535 568 LINE",
"514 561 OFFCURVE",
"494 537 OFFCURVE",
"494 513 CURVE SMOOTH",
"494 491 OFFCURVE",
"508 471 OFFCURVE",
"535 454 CURVE",
"535 302 LINE",
"513 310 OFFCURVE",
"496 317 OFFCURVE",
"483 323 CURVE SMOOTH",
"403 362 OFFCURVE",
"360 411 OFFCURVE",
"360 508 CURVE SMOOTH",
"360 585 OFFCURVE",
"395 642 OFFCURVE",
"464 679 CURVE",
"464 750 LINE"
);
},
{
closed = 1;
nodes = (
"590 428 LINE",
"651 404 OFFCURVE",
"687 383 OFFCURVE",
"712 364 CURVE",
"736 344 OFFCURVE",
"769 315 OFFCURVE",
"783 275 CURVE SMOOTH",
"790 255 OFFCURVE",
"793 233 OFFCURVE",
"793 209 CURVE SMOOTH",
"793 124 OFFCURVE",
"737 45 OFFCURVE",
"661 12 CURVE",
"661 -47 LINE",
"590 -47 LINE",
"590 -3 LINE",
"590 127 LINE",
"621 131 OFFCURVE",
"652 155 OFFCURVE",
"652 203 CURVE SMOOTH",
"652 234 OFFCURVE",
"631 260 OFFCURVE",
"590 280 CURVE"
);
}
);
width = 843;
}
);
unicode = 5713;
},
{
glyphname = Lslash;
layers = (
{
layerId = "2EFD55B3-2F90-4AA8-864A-7457E925C2F5";
name = Regular;
paths = (
{
closed = 1;
nodes = (
"348 553 LINE",
"420 460 LINE",
"270 343 LINE",
"270 139 LINE",
"505 139 LINE",
"505 0 LINE",
"129 0 LINE",
"129 233 LINE",
"98 209 LINE",
"26 302 LINE",
"129 382 LINE",
"129 700 LINE",
"270 700 LINE",
"270 492 LINE"
);
}
);
width = 530;
}
);
unicode = 0141;
},
{
glyphname = OE;
layers = (
{
layerId = "2EFD55B3-2F90-4AA8-864A-7457E925C2F5";
name = Regular;
paths = (
{
closed = 1;
nodes = (
"222 0 LINE",
"189 0 OFFCURVE",
"145 16 OFFCURVE",
"102 46 CURVE SMOOTH",
"59 76 OFFCURVE",
"26 132 OFFCURVE",
"26 200 CURVE SMOOTH",
"26 519 LINE SMOOTH",
"26 563 OFFCURVE",
"51 622 OFFCURVE",
"115 667 CURVE SMOOTH",
"146 689 OFFCURVE",
"182 700 OFFCURVE",
"223 700 CURVE",
"223 559 LINE",
"195 559 OFFCURVE",
"176 535 OFFCURVE",
"171 520 CURVE",
"168 512 OFFCURVE",
"167 506 OFFCURVE",
"167 503 CURVE SMOOTH",
"167 200 LINE SMOOTH",
"167 172 OFFCURVE",
"190 153 OFFCURVE",
"206 147 CURVE",
"213 144 OFFCURVE",
"219 142 OFFCURVE",
"222 142 CURVE"
);
},
{
closed = 1;
nodes = (
"698 141 LINE",
"698 0 LINE",
"277 0 LINE",
"277 142 LINE",
"334 142 LINE",
"334 559 LINE",
"277 559 LINE",
"277 700 LINE",
"698 700 LINE",
"698 560 LINE",
"475 560 LINE",
"475 418 LINE",
"604 418 LINE",
"604 277 LINE",
"475 277 LINE",
"475 141 LINE"
);
}
);
width = 724;
}
);
unicode = 0152;
},
{
glyphname = Scaron;
layers = (
{
layerId = "2EFD55B3-2F90-4AA8-864A-7457E925C2F5";
name = Regular;
paths = (
{
closed = 1;
nodes = (
"126 918 LINE",
"207 918 LINE",
"234 861 LINE",
"262 918 LINE",
"344 918 LINE",
"267 766 LINE",
"201 766 LINE"
);
},
{
closed = 1;
nodes = (
"209 -3 LINE",
"109 -3 OFFCURVE",
"27 93 OFFCURVE",
"26 158 CURVE",
"153 203 LINE",
"154 170 OFFCURVE",
"178 142 OFFCURVE",
"195 134 CURVE SMOOTH",
"209 127 LINE"
);
},
{
closed = 1;
nodes = (
"264 700 LINE",
"313 700 OFFCURVE",
"361 673 OFFCURVE",
"390 640 CURVE SMOOTH",
"418 607 OFFCURVE",
"435 573 OFFCURVE",
"439 553 CURVE",
"309 510 LINE",
"306 538 OFFCURVE",
"287 559 OFFCURVE",
"274 564 CURVE SMOOTH",
"264 568 LINE"
);
},
{
closed = 1;
nodes = (
"209 568 LINE",
"188 561 OFFCURVE",
"168 537 OFFCURVE",
"168 513 CURVE SMOOTH",
"168 473 OFFCURVE",
"202 450 OFFCURVE",
"269 425 CURVE SMOOTH",
"336 400 OFFCURVE",
"361 383 OFFCURVE",
"386 364 CURVE",
"410 344 OFFCURVE",
"443 315 OFFCURVE",
"457 275 CURVE SMOOTH",
"464 255 OFFCURVE",
"467 233 OFFCURVE",
"467 209 CURVE SMOOTH",
"467 96 OFFCURVE",
"372 -3 OFFCURVE",
"264 -3 CURVE",
"264 127 LINE",
"295 131 OFFCURVE",
"326 155 OFFCURVE",
"326 203 CURVE SMOOTH",
"326 238 OFFCURVE",
"294 267 OFFCURVE",
"265 280 CURVE SMOOTH",
"250 287 OFFCURVE",
"231 294 OFFCURVE",
"207 303 CURVE SMOOTH",
"183 312 OFFCURVE",
"166 318 OFFCURVE",
"157 323 CURVE",
"77 362 OFFCURVE",
"34 411 OFFCURVE",
"34 508 CURVE SMOOTH",
"34 573 OFFCURVE",
"64 628 OFFCURVE",
"103 657 CURVE SMOOTH",
"142 685 OFFCURVE",
"180 700 OFFCURVE",
"209 700 CURVE"
);
}
);
width = 497;
}
);
unicode = 0160;
},
{
glyphname = TradeMarkSign;
layers = (
{
layerId = "2EFD55B3-2F90-4AA8-864A-7457E925C2F5";
name = Regular;
paths = (
{
closed = 1;
nodes = (
"165 700 LINE",
"165 653 LINE",
"120 653 LINE",
"120 484 LINE",
"72 484 LINE",
"72 653 LINE",
"26 653 LINE",
"26 700 LINE"
);
},
{
closed = 1;
nodes = (
"330 700 LINE",
"377 700 LINE",
"377 484 LINE",
"330 484 LINE"
);
},
{
closed = 1;
nodes = (
"188 700 LINE",
"225 700 LINE",
"281 564 LINE",
"313 636 LINE",
"317 636 LINE",
"317 529 LINE",
"298 484 LINE",
"265 484 LINE",
"188 669 LINE"
);
},
{
closed = 1;
nodes = (
"188 484 LINE",
"188 628 LINE",
"191 628 LINE",
"236 522 LINE",
"236 484 LINE"
);
}
);
width = 403;
}
);
unicode = 2122;
},
{
glyphname = Ydieresis;
layers = (
{
layerId = "2EFD55B3-2F90-4AA8-864A-7457E925C2F5";
name = Regular;
paths = (
{
closed = 1;
nodes = (
"87 802 OFFCURVE",
"80 820 OFFCURVE",
"80 841 CURVE SMOOTH",
"80 884 OFFCURVE",
"114 917 OFFCURVE",
"155 917 CURVE SMOOTH",
"196 917 OFFCURVE",
"230 884 OFFCURVE",
"230 841 CURVE SMOOTH",
"230 798 OFFCURVE",
"196 766 OFFCURVE",
"155 766 CURVE SMOOTH",
"134 766 OFFCURVE",
"117 773 OFFCURVE",
"102 788 CURVE SMOOTH"
);
},
{
closed = 1;
nodes = (
"257 802 OFFCURVE",
"250 820 OFFCURVE",
"250 841 CURVE SMOOTH",
"250 884 OFFCURVE",
"284 917 OFFCURVE",
"325 917 CURVE SMOOTH",
"366 917 OFFCURVE",
"400 884 OFFCURVE",
"400 841 CURVE SMOOTH",
"400 798 OFFCURVE",
"366 766 OFFCURVE",
"325 766 CURVE SMOOTH",
"304 766 OFFCURVE",
"287 773 OFFCURVE",
"272 788 CURVE SMOOTH"
);
},
{
closed = 1;
nodes = (
"269 565 LINE",
"308 700 LINE",
"453 700 LINE",
"344 331 LINE",
"335 331 LINE"
);
},
{
closed = 1;
nodes = (
"26 700 LINE",
"173 700 LINE",
"303 253 LINE",
"303 0 LINE",
"157 0 LINE",
"157 252 LINE"
);
}
);
width = 479;
}
);
unicode = 0178;
},
{
glyphname = Zcaron;
layers = (
{
layerId = "2EFD55B3-2F90-4AA8-864A-7457E925C2F5";
name = Regular;
paths = (
{
closed = 1;
nodes = (
"100 918 LINE",
"181 918 LINE",
"208 861 LINE",
"236 918 LINE",
"318 918 LINE",
"241 766 LINE",
"175 766 LINE"
);
},
{
closed = 1;
nodes = (
"182 144 LINE",
"392 144 LINE",
"392 0 LINE",
"26 0 LINE",
"26 141 LINE",
"236 560 LINE",
"26 560 LINE",
"26 700 LINE",
"392 700 LINE",
"392 563 LINE"
);
}
);
width = 418;
}
);
unicode = 017D;
},
{
glyphname = breve;
layers = (
{
layerId = "2EFD55B3-2F90-4AA8-864A-7457E925C2F5";
name = Regular;
paths = (
{
closed = 1;
nodes = (
"218 526 LINE",
"218 473 OFFCURVE",
"175 430 OFFCURVE",
"122 430 CURVE SMOOTH",
"69 430 OFFCURVE",
"26 473 OFFCURVE",
"26 526 CURVE",
"90 526 LINE",
"90 507 OFFCURVE",
"103 494 OFFCURVE",
"122 494 CURVE SMOOTH",
"141 494 OFFCURVE",
"154 507 OFFCURVE",
"154 526 CURVE"
);
}
);
width = 244;
}
);
unicode = 02D8;
},
{
glyphname = bullet;
layers = (
{
layerId = "2EFD55B3-2F90-4AA8-864A-7457E925C2F5";
name = Regular;
paths = (
{
closed = 1;
nodes = (
"41 267 OFFCURVE",
"26 302 OFFCURVE",
"26 344 CURVE SMOOTH",
"26 428 OFFCURVE",
"92 496 OFFCURVE",
"176 496 CURVE SMOOTH",
"260 496 OFFCURVE",
"326 428 OFFCURVE",
"326 344 CURVE SMOOTH",
"326 260 OFFCURVE",
"260 194 OFFCURVE",
"176 194 CURVE SMOOTH",
"134 194 OFFCURVE",
"99 209 OFFCURVE",
"70 238 CURVE SMOOTH"
);
}
);
width = 352;
}
);
unicode = 2022;
},
{
glyphname = caron;
layers = (
{
layerId = "2EFD55B3-2F90-4AA8-864A-7457E925C2F5";
name = Regular;
paths = (
{
closed = 1;
nodes = (
"26 666 LINE",
"107 666 LINE",
"134 609 LINE",
"162 666 LINE",
"244 666 LINE",
"167 514 LINE",
"101 514 LINE"
);
}
);
width = 270;
}
);
unicode = 02C7;
},
{
glyphname = circumflex;
layers = (
{
layerId = "2EFD55B3-2F90-4AA8-864A-7457E925C2F5";
name = Regular;
paths = (
{
closed = 1;
nodes = (
"26 514 LINE",
"101 666 LINE",
"167 666 LINE",
"244 514 LINE",
"162 514 LINE",
"134 571 LINE",
"107 514 LINE"
);
}
);
width = 270;
}
);
unicode = 02C6;
},
{
glyphname = dagger;
layers = (
{
layerId = "2EFD55B3-2F90-4AA8-864A-7457E925C2F5";
name = Regular;
paths = (
{
closed = 1;
nodes = (
"427 577 LINE",
"427 450 LINE",
"297 450 LINE",
"297 -56 LINE",
"156 -56 LINE",
"156 450 LINE",
"26 450 LINE",
"26 577 LINE",
"156 577 LINE",
"156 764 LINE",
"297 764 LINE",
"297 577 LINE"
);
}
);
width = 453;
}
);
unicode = 2020;
},
{
glyphname = daggerdbl;
layers = (
{
layerId = "2EFD55B3-2F90-4AA8-864A-7457E925C2F5";
name = Regular;
paths = (
{
closed = 1;
nodes = (
"156 764 LINE",
"297 764 LINE",
"297 577 LINE",
"427 577 LINE",
"427 450 LINE",
"297 450 LINE",
"297 258 LINE",
"427 258 LINE",
"427 131 LINE",
"297 131 LINE",
"297 -56 LINE",
"156 -56 LINE",
"156 131 LINE",
"26 131 LINE",
"26 258 LINE",
"156 258 LINE",
"156 450 LINE",
"26 450 LINE",
"26 577 LINE",
"156 577 LINE"
);
}
);
width = 453;
}
);
unicode = 2021;
},
{
glyphname = dotaccent;
layers = (
{
layerId = "2EFD55B3-2F90-4AA8-864A-7457E925C2F5";
name = Regular;
paths = (
{
closed = 1;
nodes = (
"33 639 OFFCURVE",
"26 657 OFFCURVE",
"26 678 CURVE SMOOTH",
"26 721 OFFCURVE",
"60 754 OFFCURVE",
"101 754 CURVE SMOOTH",
"142 754 OFFCURVE",
"176 721 OFFCURVE",
"176 678 CURVE SMOOTH",
"176 635 OFFCURVE",
"142 603 OFFCURVE",
"101 603 CURVE SMOOTH",
"80 603 OFFCURVE",
"63 610 OFFCURVE",
"48 625 CURVE SMOOTH"
);
}
);
width = 202;
}
);
unicode = 02D9;
},
{
glyphname = dotlessi;
layers = (
{
layerId = "2EFD55B3-2F90-4AA8-864A-7457E925C2F5";
name = Regular;
paths = (
{
closed = 1;
nodes = (
"148 0 LINE",
"26 0 LINE",
"26 516 LINE",
"148 516 LINE"
);
}
);
width = 174;
}
);
unicode = 0131;
},
{
glyphname = emdash;
layers = (
{
layerId = "2EFD55B3-2F90-4AA8-864A-7457E925C2F5";
name = Regular;
paths = (
{
closed = 1;
nodes = (
"880 357 LINE",
"880 230 LINE",
"26 230 LINE",
"26 357 LINE"
);
}
);
width = 906;
}
);
unicode = 2014;
},
{
glyphname = endash;
layers = (
{
layerId = "2EFD55B3-2F90-4AA8-864A-7457E925C2F5";
name = Regular;
paths = (
{
closed = 1;
nodes = (
"506 357 LINE",
"506 230 LINE",
"26 230 LINE",
"26 357 LINE"
);
}
);
width = 532;
}
);
unicode = 2013;
},
{
glyphname = fi;
layers = (
{
layerId = "2EFD55B3-2F90-4AA8-864A-7457E925C2F5";
name = Regular;
paths = (
{
closed = 1;
nodes = (
"89 552 LINE SMOOTH",
"89 609 OFFCURVE",
"151 695 OFFCURVE",
"243 696 CURVE SMOOTH",
"304 696 LINE",
"277 579 LINE",
"244 579 LINE SMOOTH",
"227 579 OFFCURVE",
"216 568 OFFCURVE",
"213 561 CURVE",
"212 557 OFFCURVE",
"211 554 OFFCURVE",
"211 552 CURVE SMOOTH",
"211 516 LINE",
"457 516 LINE",
"457 0 LINE",
"335 0 LINE",
"335 400 LINE",
"211 400 LINE",
"211 0 LINE",
"89 0 LINE",
"89 400 LINE",
"26 400 LINE",
"26 516 LINE",
"89 516 LINE"
);
},
{
closed = 1;
nodes = (
"468 591 OFFCURVE",
"435 558 OFFCURVE",
"395 558 CURVE SMOOTH",
"355 558 OFFCURVE",
"322 591 OFFCURVE",
"322 630 CURVE SMOOTH",
"322 670 OFFCURVE",
"355 703 OFFCURVE",
"395 703 CURVE SMOOTH",
"435 703 OFFCURVE",
"468 670 OFFCURVE",
"468 630 CURVE SMOOTH"
);
}
);
width = 494;
}
);
unicode = FB01;
},
{
glyphname = fl;
layers = (
{
layerId = "2EFD55B3-2F90-4AA8-864A-7457E925C2F5";
name = Regular;
paths = (
{
closed = 1;
nodes = (
"457 0 LINE",
"331 0 LINE",
"331 579 LINE",
"244 579 LINE SMOOTH",
"227 579 OFFCURVE",
"216 568 OFFCURVE",
"213 561 CURVE",
"212 557 OFFCURVE",
"211 554 OFFCURVE",
"211 552 CURVE SMOOTH",
"211 515 LINE",
"277 516 LINE",
"277 400 LINE",
"211 400 LINE",
"211 0 LINE",
"89 0 LINE",
"89 400 LINE",
"26 400 LINE",
"26 516 LINE",
"89 516 LINE",
"89 552 LINE SMOOTH",
"89 609 OFFCURVE",
"151 695 OFFCURVE",
"243 696 CURVE SMOOTH",
"457 696 LINE"
);
}
);
width = 483;
}
);
unicode = FB02;
},
{
glyphname = florin;
layers = (
{
layerId = "2EFD55B3-2F90-4AA8-864A-7457E925C2F5";
name = Regular;
paths = (
{
closed = 1;
nodes = (
"141 552 LINE SMOOTH",
"141 609 OFFCURVE",
"203 695 OFFCURVE",
"295 696 CURVE SMOOTH",
"356 696 LINE",
"329 579 LINE",
"296 579 LINE SMOOTH",
"279 579 OFFCURVE",
"268 568 OFFCURVE",
"265 561 CURVE",
"264 557 OFFCURVE",
"263 554 OFFCURVE",
"263 552 CURVE SMOOTH",
"263 515 LINE",
"329 516 LINE",
"329 400 LINE",
"263 400 LINE",
"263 7 LINE",
"263 0 LINE",
"263 -30 LINE SMOOTH",
"263 -102 OFFCURVE",
"212 -168 OFFCURVE",
"109 -168 CURVE SMOOTH",
"26 -168 LINE",
"53 -63 LINE",
"108 -63 LINE SMOOTH",
"125 -63 OFFCURVE",
"136 -52 OFFCURVE",
"139 -44 CURVE",
"140 -41 OFFCURVE",
"141 -38 OFFCURVE",
"141 -36 CURVE SMOOTH",
"141 0 LINE",
"141 7 LINE",
"141 400 LINE",
"78 400 LINE",
"78 516 LINE",
"141 516 LINE"
);
}
);
width = 382;
}
);
unicode = 0192;
},
{
glyphname = fraction;
layers = (
{
layerId = "2EFD55B3-2F90-4AA8-864A-7457E925C2F5";
name = Regular;
paths = (
{
closed = 1;
nodes = (
"26 -2 LINE",
"458 702 LINE",
"534 702 LINE",
"109 -2 LINE"
);
}
);
width = 560;
}
);
unicode = 2044;
},
{
glyphname = guilsinglleft;
layers = (
{
layerId = "2EFD55B3-2F90-4AA8-864A-7457E925C2F5";
name = Regular;
paths = (
{
closed = 1;
nodes = (
"157 500 LINE",
"312 500 LINE",
"181 292 LINE",
"312 79 LINE",
"157 79 LINE",
"26 292 LINE"
);
}
);
width = 338;
}
);
unicode = 2039;
},
{
glyphname = guilsinglright;
layers = (
{
layerId = "2EFD55B3-2F90-4AA8-864A-7457E925C2F5";
name = Regular;
paths = (
{
closed = 1;
nodes = (
"181 500 LINE",
"312 292 LINE",
"181 79 LINE",
"26 79 LINE",
"157 292 LINE",
"26 500 LINE"
);
}
);
width = 338;
}
);
unicode = 203A;
},
{
glyphname = hungarumlaut;
layers = (
{
layerId = "2EFD55B3-2F90-4AA8-864A-7457E925C2F5";
name = Regular;
paths = (
{
closed = 1;
nodes = (
"252 605 LINE",
"169 605 LINE",
"198 757 LINE",
"310 757 LINE"
);
},
{
closed = 1;
nodes = (
"109 605 LINE",
"26 605 LINE",
"55 757 LINE",
"167 757 LINE"
);
}
);
width = 336;
}
);
unicode = 02DD;
},
{
glyphname = lslash;
layers = (
{
layerId = "2EFD55B3-2F90-4AA8-864A-7457E925C2F5";
name = Regular;
paths = (
{
closed = 1;
nodes = (
"278 0 LINE",
"147 0 LINE",
"147 698 LINE",
"278 698 LINE"
);
},
{
closed = 1;
nodes = (
"326 536 LINE",
"398 443 LINE",
"98 209 LINE",
"26 302 LINE"
);
}
);
width = 424;
}
);
unicode = 0142;
},
{
glyphname = minus;
layers = (
{
layerId = "2EFD55B3-2F90-4AA8-864A-7457E925C2F5";
name = Regular;
paths = (
{
closed = 1;
nodes = (
"366 357 LINE",
"366 230 LINE",
"50 230 LINE",
"50 357 LINE"
);
}
);
width = 416;
}
);
unicode = 2212;
},
{
glyphname = oe;
layers = (
{
layerId = "2EFD55B3-2F90-4AA8-864A-7457E925C2F5";
name = Regular;
paths = (
{
closed = 1;
nodes = (
"26 376 LINE SMOOTH",
"26 433 OFFCURVE",
"88 516 OFFCURVE",
"184 516 CURVE SMOOTH",
"190 516 LINE",
"190 398 LINE",
"184 398 LINE SMOOTH",
"164 398 OFFCURVE",
"151 387 OFFCURVE",
"148 380 CURVE",
"147 377 OFFCURVE",
"146 374 OFFCURVE",
"146 373 CURVE SMOOTH",
"146 142 LINE SMOOTH",
"146 140 OFFCURVE",
"147 137 OFFCURVE",
"149 133 CURVE SMOOTH",
"153 125 OFFCURVE",
"167 113 OFFCURVE",
"184 113 CURVE SMOOTH",
"190 113 LINE",
"190 -1 LINE",
"184 -1 LINE SMOOTH",
"88 -1 OFFCURVE",
"26 84 OFFCURVE",
"26 141 CURVE SMOOTH"
);
},
{
closed = 1;
nodes = (
"483 402 LINE",
"483 516 LINE",
"489 516 LINE SMOOTH",
"561 516 OFFCURVE",
"644 447 OFFCURVE",
"644 378 CURVE SMOOTH",
"644 208 LINE",
"395 208 LINE",
"395 141 LINE SMOOTH",
"395 139 OFFCURVE",
"396 136 OFFCURVE",
"398 131 CURVE",
"401 122 OFFCURVE",
"413 108 OFFCURVE",
"430 108 CURVE SMOOTH",
"489 108 LINE SMOOTH",
"517 108 OFFCURVE",
"541 130 OFFCURVE",
"545 153 CURVE",
"546 157 LINE",
"645 120 LINE",
"644 118 LINE",
"629 54 OFFCURVE",
"558 0 OFFCURVE",
"489 0 CURVE SMOOTH",
"430 0 LINE SMOOTH",
"394 0 OFFCURVE",
"362 11 OFFCURVE",
"334 34 CURVE",
"306 11 OFFCURVE",
"274 -1 OFFCURVE",
"237 -1 CURVE SMOOTH",
"231 -1 LINE",
"231 113 LINE",
"237 113 LINE SMOOTH",
"256 113 OFFCURVE",
"268 125 OFFCURVE",
"271 132 CURVE",
"272 135 OFFCURVE",
"273 138 OFFCURVE",
"273 140 CURVE SMOOTH",
"273 372 LINE SMOOTH",
"273 374 OFFCURVE",
"272 377 OFFCURVE",
"271 381 CURVE",
"267 388 OFFCURVE",
"254 398 OFFCURVE",
"237 398 CURVE SMOOTH",
"231 398 LINE",
"231 516 LINE",
"237 516 LINE SMOOTH",
"274 516 OFFCURVE",
"306 505 OFFCURVE",
"333 482 CURVE",
"362 505 OFFCURVE",
"394 516 OFFCURVE",
"429 516 CURVE SMOOTH",
"434 516 LINE",
"434 400 LINE",
"431 400 LINE SMOOTH",
"406 400 OFFCURVE",
"395 384 OFFCURVE",
"395 369 CURVE SMOOTH",
"395 324 LINE",
"530 324 LINE",
"530 369 LINE SMOOTH",
"530 391 OFFCURVE",
"516 402 OFFCURVE",
"487 402 CURVE SMOOTH"
);
}
);
width = 671;
}
);
unicode = 0153;
},
{
glyphname = perthousand;
layers = (
{
layerId = "2EFD55B3-2F90-4AA8-864A-7457E925C2F5";
name = Regular;
paths = (
{
closed = 1;
nodes = (
"748 352 LINE",
"748 287 LINE",
"746 287 LINE",
"728 283 OFFCURVE",
"719 254 OFFCURVE",
"719 201 CURVE SMOOTH",
"719 171 LINE SMOOTH",
"719 104 OFFCURVE",
"728 69 OFFCURVE",
"746 65 CURVE",
"747 65 LINE",
"747 0 LINE",
"745 0 LINE",
"721 1 OFFCURVE",
"699 15 OFFCURVE",
"680 41 CURVE SMOOTH",
"661 66 OFFCURVE",
"651 112 OFFCURVE",
"651 178 CURVE SMOOTH",
"651 295 OFFCURVE",
"693 348 OFFCURVE",
"746 352 CURVE"
);
},
{
closed = 1;
nodes = (
"776 352 LINE",
"829 348 OFFCURVE",
"872 297 OFFCURVE",
"872 178 CURVE SMOOTH",
"872 112 OFFCURVE",
"862 66 OFFCURVE",
"843 41 CURVE SMOOTH",
"823 15 OFFCURVE",
"801 1 OFFCURVE",
"777 0 CURVE",
"775 0 LINE",
"775 65 LINE",
"776 65 LINE",
"795 69 OFFCURVE",
"804 104 OFFCURVE",
"804 171 CURVE SMOOTH",
"804 201 LINE SMOOTH",
"804 254 OFFCURVE",
"795 282 OFFCURVE",
"776 287 CURVE",
"774 287 LINE",
"774 352 LINE"
);
},
{
closed = 1;
nodes = (
"490 352 LINE",
"490 287 LINE",
"488 287 LINE",
"470 283 OFFCURVE",
"461 254 OFFCURVE",
"461 201 CURVE SMOOTH",
"461 171 LINE SMOOTH",
"461 104 OFFCURVE",
"470 69 OFFCURVE",
"488 65 CURVE",
"489 65 LINE",
"489 0 LINE",
"487 0 LINE",
"463 1 OFFCURVE",
"441 15 OFFCURVE",
"422 41 CURVE SMOOTH",
"403 66 OFFCURVE",
"393 112 OFFCURVE",
"393 178 CURVE SMOOTH",
"393 295 OFFCURVE",
"435 348 OFFCURVE",
"488 352 CURVE"
);
},
{
closed = 1;
nodes = (
"518 352 LINE",
"571 348 OFFCURVE",
"614 297 OFFCURVE",
"614 178 CURVE SMOOTH",
"614 112 OFFCURVE",
"604 66 OFFCURVE",
"585 41 CURVE SMOOTH",
"565 15 OFFCURVE",
"543 1 OFFCURVE",
"519 0 CURVE",
"517 0 LINE",
"517 65 LINE",
"518 65 LINE",
"537 69 OFFCURVE",
"546 104 OFFCURVE",
"546 171 CURVE SMOOTH",
"546 201 LINE SMOOTH",
"546 254 OFFCURVE",
"537 282 OFFCURVE",
"518 287 CURVE",
"516 287 LINE",
"516 352 LINE"
);
},
{
closed = 1;
nodes = (
"122 703 LINE",
"122 637 LINE",
"121 637 LINE",
"103 633 OFFCURVE",
"94 604 OFFCURVE",
"94 551 CURVE SMOOTH",
"94 522 LINE SMOOTH",
"94 455 OFFCURVE",
"103 419 OFFCURVE",
"121 415 CURVE",
"122 415 LINE",
"122 350 LINE",
"120 351 LINE",
"100 352 OFFCURVE",
"81 360 OFFCURVE",
"61 384 CURVE",
"40 407 OFFCURVE",
"26 457 OFFCURVE",
"26 528 CURVE SMOOTH",
"26 645 OFFCURVE",
"68 698 OFFCURVE",
"121 702 CURVE"
);
},
{
closed = 1;
nodes = (
"151 702 LINE",
"204 698 OFFCURVE",
"246 647 OFFCURVE",
"246 528 CURVE SMOOTH",
"246 457 OFFCURVE",
"232 407 OFFCURVE",
"212 384 CURVE SMOOTH",
"191 360 OFFCURVE",
"172 352 OFFCURVE",
"152 351 CURVE",
"150 350 LINE",
"150 415 LINE",
"151 415 LINE",
"169 419 OFFCURVE",
"178 455 OFFCURVE",
"178 522 CURVE SMOOTH",
"178 551 LINE SMOOTH",
"178 604 OFFCURVE",
"169 633 OFFCURVE",
"151 637 CURVE",
"150 637 LINE",
"150 703 LINE"
);
},
{
closed = 1;
nodes = (
"67 0 LINE",
"497 700 LINE",
"570 700 LINE",
"147 0 LINE"
);
}
);
width = 897;
}
);
unicode = 2030;
},
{
glyphname = quotedbl.alt;
layers = (
{
layerId = "2EFD55B3-2F90-4AA8-864A-7457E925C2F5";
name = Regular;
paths = (
{
closed = 1;
nodes = (
"333 476 LINE",
"206 476 LINE",
"206 700 LINE",
"333 700 LINE"
);
},
{
closed = 1;
nodes = (
"153 476 LINE",
"26 476 LINE",
"26 700 LINE",
"153 700 LINE"
);
}
);
width = 359;
}
);
},
{
glyphname = quotedblbase;
layers = (
{
layerId = "2EFD55B3-2F90-4AA8-864A-7457E925C2F5";
name = Regular;
paths = (
{
closed = 1;
nodes = (
"357 465 LINE",
"230 465 LINE",
"230 736 LINE",
"357 736 LINE"
);
},
{
closed = 1;
nodes = (
"177 465 LINE",
"50 465 LINE",
"50 736 LINE",
"177 736 LINE"
);
}
);
width = 359;
}
);
unicode = 201E;
},
{
glyphname = quotedblleft;
layers = (
{
layerId = "2EFD55B3-2F90-4AA8-864A-7457E925C2F5";
name = Regular;
paths = (
{
closed = 1;
nodes = (
"357 465 LINE",
"230 465 LINE",
"230 736 LINE",
"357 736 LINE"
);
},
{
closed = 1;
nodes = (
"177 465 LINE",
"50 465 LINE",
"50 736 LINE",
"177 736 LINE"
);
}
);
width = 359;
}
);
unicode = 201C;
},
{
glyphname = quotedblright;
layers = (
{
layerId = "2EFD55B3-2F90-4AA8-864A-7457E925C2F5";
name = Regular;
paths = (
{
closed = 1;
nodes = (
"357 465 LINE",
"230 465 LINE",
"230 736 LINE",
"357 736 LINE"
);
},
{
closed = 1;
nodes = (
"177 465 LINE",
"50 465 LINE",
"50 736 LINE",
"177 736 LINE"
);
}
);
width = 359;
}
);
unicode = 201D;
},
{
glyphname = quoteleft;
layers = (
{
layerId = "2EFD55B3-2F90-4AA8-864A-7457E925C2F5";
name = Regular;
paths = (
{
closed = 1;
nodes = (
"177 465 LINE",
"50 465 LINE",
"50 736 LINE",
"177 736 LINE"
);
}
);
width = 187;
}
);
unicode = 2018;
},
{
glyphname = quoteright;
layers = (
{
layerId = "2EFD55B3-2F90-4AA8-864A-7457E925C2F5";
name = Regular;
paths = (
{
closed = 1;
nodes = (
"177 465 LINE",
"50 465 LINE",
"50 736 LINE",
"177 736 LINE"
);
}
);
width = 187;
}
);
unicode = 2019;
},
{
glyphname = quotesinglbase;
layers = (
{
layerId = "2EFD55B3-2F90-4AA8-864A-7457E925C2F5";
name = Regular;
paths = (
{
closed = 1;
nodes = (
"177 465 LINE",
"50 465 LINE",
"50 736 LINE",
"177 736 LINE"
);
}
);
width = 187;
}
);
unicode = 201A;
},
{
glyphname = ring;
layers = (
{
layerId = "2EFD55B3-2F90-4AA8-864A-7457E925C2F5";
name = Regular;
paths = (
{
closed = 1;
nodes = (
"35 477 OFFCURVE",
"26 499 OFFCURVE",
"26 526 CURVE SMOOTH",
"26 579 OFFCURVE",
"69 622 OFFCURVE",
"122 622 CURVE SMOOTH",
"175 622 OFFCURVE",
"218 579 OFFCURVE",
"218 526 CURVE SMOOTH",
"218 473 OFFCURVE",
"175 430 OFFCURVE",
"122 430 CURVE SMOOTH",
"95 430 OFFCURVE",
"73 439 OFFCURVE",
"54 458 CURVE SMOOTH"
);
},
{
closed = 1;
nodes = (
"93 543 OFFCURVE",
"90 535 OFFCURVE",
"90 526 CURVE SMOOTH",
"90 507 OFFCURVE",
"103 494 OFFCURVE",
"122 494 CURVE SMOOTH",
"141 494 OFFCURVE",
"154 507 OFFCURVE",
"154 526 CURVE SMOOTH",
"154 545 OFFCURVE",
"141 558 OFFCURVE",
"122 558 CURVE SMOOTH",
"113 558 OFFCURVE",
"105 555 OFFCURVE",
"99 549 CURVE SMOOTH"
);
}
);
width = 244;
}
);
unicode = 02DA;
},
{
glyphname = scaron;
layers = (
{
layerId = "2EFD55B3-2F90-4AA8-864A-7457E925C2F5";
name = Regular;
paths = (
{
closed = 1;
nodes = (
"97 730 LINE",
"178 730 LINE",
"205 673 LINE",
"233 730 LINE",
"315 730 LINE",
"238 578 LINE",
"172 578 LINE"
);
},
{
closed = 1;
nodes = (
"187 406 LINE",
"185 406 LINE",
"157 403 OFFCURVE",
"143 389 OFFCURVE",
"143 362 CURVE SMOOTH",
"143 355 OFFCURVE",
"146 348 OFFCURVE",
"152 343 CURVE",
"157 337 OFFCURVE",
"172 330 OFFCURVE",
"197 322 CURVE",
"221 313 OFFCURVE",
"255 305 OFFCURVE",
"299 296 CURVE SMOOTH",
"356 285 OFFCURVE",
"402 237 OFFCURVE",
"402 160 CURVE SMOOTH",
"402 60 OFFCURVE",
"329 -5 OFFCURVE",
"233 -5 CURVE SMOOTH",
"230 -5 LINE",
"230 109 LINE",
"233 109 LINE",
"256 110 OFFCURVE",
"285 124 OFFCURVE",
"285 153 CURVE SMOOTH",
"285 166 OFFCURVE",
"276 177 OFFCURVE",
"257 186 CURVE SMOOTH",
"238 195 OFFCURVE",
"213 203 OFFCURVE",
"182 211 CURVE SMOOTH",
"119 227 OFFCURVE",
"81 243 OFFCURVE",
"53 283 CURVE SMOOTH",
"38 303 OFFCURVE",
"31 332 OFFCURVE",
"31 371 CURVE SMOOTH",
"31 419 OFFCURVE",
"55 461 OFFCURVE",
"88 483 CURVE SMOOTH",
"120 505 OFFCURVE",
"155 517 OFFCURVE",
"184 517 CURVE SMOOTH",
"187 517 LINE"
);
},
{
closed = 1;
nodes = (
"393 374 LINE",
"281 355 LINE",
"281 358 LINE",
"278 382 OFFCURVE",
"259 398 OFFCURVE",
"247 402 CURVE",
"241 403 OFFCURVE",
"236 404 OFFCURVE",
"231 404 CURVE SMOOTH",
"228 404 LINE",
"229 517 LINE",
"232 517 LINE SMOOTH",
"321 517 OFFCURVE",
"393 444 OFFCURVE",
"393 376 CURVE SMOOTH"
);
},
{
closed = 1;
nodes = (
"26 136 LINE",
"138 157 LINE",
"138 154 LINE",
"141 134 OFFCURVE",
"162 112 OFFCURVE",
"186 111 CURVE",
"189 110 LINE",
"189 -5 LINE",
"186 -5 LINE SMOOTH",
"97 -5 OFFCURVE",
"30 65 OFFCURVE",
"27 134 CURVE"
);
}
);
width = 418;
}
);
unicode = 0161;
},
{
glyphname = tilde;
layers = (
{
layerId = "2EFD55B3-2F90-4AA8-864A-7457E925C2F5";
name = Regular;
paths = (
{
closed = 1;
nodes = (
"307 114 LINE",
"277 95 OFFCURVE",
"249 86 OFFCURVE",
"223 86 CURVE SMOOTH",
"205 86 OFFCURVE",
"183 93 OFFCURVE",
"156 106 CURVE SMOOTH",
"129 119 OFFCURVE",
"107 126 OFFCURVE",
"92 126 CURVE SMOOTH",
"72 126 OFFCURVE",
"50 119 OFFCURVE",
"26 104 CURVE",
"26 206 LINE",
"52 221 OFFCURVE",
"75 228 OFFCURVE",
"96 228 CURVE SMOOTH",
"113 228 OFFCURVE",
"135 221 OFFCURVE",
"162 208 CURVE SMOOTH",
"189 194 OFFCURVE",
"210 187 OFFCURVE",
"227 187 CURVE SMOOTH",
"250 187 OFFCURVE",
"276 196 OFFCURVE",
"307 215 CURVE"
);
}
);
width = 333;
}
);
unicode = 02DC;
},
{
glyphname = zcaron;
layers = (
{
layerId = "2EFD55B3-2F90-4AA8-864A-7457E925C2F5";
name = Regular;
paths = (
{
closed = 1;
nodes = (
"67 729 LINE",
"148 729 LINE",
"175 672 LINE",
"203 729 LINE",
"285 729 LINE",
"208 577 LINE",
"142 577 LINE"
);
},
{
closed = 1;
nodes = (
"322 400 LINE",
"169 118 LINE",
"322 117 LINE",
"322 0 LINE",
"26 0 LINE",
"26 116 LINE",
"183 394 LINE",
"26 394 LINE",
"26 514 LINE",
"322 514 LINE"
);
}
